<svg width="24" height="25" viewBox="0 0 24 25" fill="none" xmlns="http://www.w3.org/2000/svg">
<path opacity="0.2" d="M21.75 5.75049V19.2505H15C14.2044 19.2505 13.4413 19.5666 12.8787 20.1292C12.3161 20.6918 12 21.4548 12 22.2505V8.75049C12 7.95484 12.3161 7.19178 12.8787 6.62917C13.4413 6.06656 14.2044 5.75049 15 5.75049H21.75Z" fill="#FEFFFF"/>
<path d="M21.75 5.00049H15C14.4178 5.00049 13.8437 5.13603 13.3229 5.39639C12.8022 5.65674 12.3493 6.03475 12 6.50049C11.6507 6.03475 11.1978 5.65674 10.6771 5.39639C10.1563 5.13603 9.58217 5.00049 9 5.00049H2.25C2.05109 5.00049 1.86032 5.07951 1.71967 5.22016C1.57902 5.36081 1.5 5.55158 1.5 5.75049V19.2505C1.5 19.4494 1.57902 19.6402 1.71967 19.7808C1.86032 19.9215 2.05109 20.0005 2.25 20.0005H9C9.59674 20.0005 10.169 20.2375 10.591 20.6595C11.0129 21.0815 11.25 21.6538 11.25 22.2505C11.25 22.4494 11.329 22.6402 11.4697 22.7808C11.6103 22.9215 11.8011 23.0005 12 23.0005C12.1989 23.0005 12.3897 22.9215 12.5303 22.7808C12.671 22.6402 12.75 22.4494 12.75 22.2505C12.75 21.6538 12.9871 21.0815 13.409 20.6595C13.831 20.2375 14.4033 20.0005 15 20.0005H21.75C21.9489 20.0005 22.1397 19.9215 22.2803 19.7808C22.421 19.6402 22.5 19.4494 22.5 19.2505V5.75049C22.5 5.55158 22.421 5.36081 22.2803 5.22016C22.1397 5.07951 21.9489 5.00049 21.75 5.00049ZM9 18.5005H3V6.50049H9C9.59674 6.50049 10.169 6.73754 10.591 7.1595C11.0129 7.58145 11.25 8.15375 11.25 8.75049V19.2505C10.6015 18.7624 9.81161 18.4991 9 18.5005ZM21 18.5005H15C14.1884 18.4991 13.3985 18.7624 12.75 19.2505V8.75049C12.75 8.15375 12.9871 7.58145 13.409 7.1595C13.831 6.73754 14.4033 6.50049 15 6.50049H21V18.5005ZM15 8.75049H18.75C18.9489 8.75049 19.1397 8.82951 19.2803 8.97016C19.421 9.11081 19.5 9.30158 19.5 9.50049C19.5 9.6994 19.421 9.89017 19.2803 10.0308C19.1397 10.1715 18.9489 10.2505 18.75 10.2505H15C14.8011 10.2505 14.6103 10.1715 14.4697 10.0308C14.329 9.89017 14.25 9.6994 14.25 9.50049C14.25 9.30158 14.329 9.11081 14.4697 8.97016C14.6103 8.82951 14.8011 8.75049 15 8.75049ZM19.5 12.5005C19.5 12.6994 19.421 12.8902 19.2803 13.0308C19.1397 13.1715 18.9489 13.2505 18.75 13.2505H15C14.8011 13.2505 14.6103 13.1715 14.4697 13.0308C14.329 12.8902 14.25 12.6994 14.25 12.5005C14.25 12.3016 14.329 12.1108 14.4697 11.9702C14.6103 11.8295 14.8011 11.7505 15 11.7505H18.75C18.9489 11.7505 19.1397 11.8295 19.2803 11.9702C19.421 12.1108 19.5 12.3016 19.5 12.5005ZM19.5 15.5005C19.5 15.6994 19.421 15.8902 19.2803 16.0308C19.1397 16.1715 18.9489 16.2505 18.75 16.2505H15C14.8011 16.2505 14.6103 16.1715 14.4697 16.0308C14.329 15.8902 14.25 15.6994 14.25 15.5005C14.25 15.3016 14.329 15.1108 14.4697 14.9702C14.6103 14.8295 14.8011 14.7505 15 14.7505H18.75C18.9489 14.7505 19.1397 14.8295 19.2803 14.9702C19.421 15.1108 19.5 15.3016 19.5 15.5005Z" fill="#FEFFFF"/>
</svg>
