<svg width="24" height="24" viewBox="0 0 24 24" fill="none" xmlns="http://www.w3.org/2000/svg">
<path opacity="0.2" d="M22.051 17.3991L15.7697 20.1834C15.6744 20.2267 15.5712 20.2499 15.4665 20.2517C15.3619 20.2534 15.258 20.2336 15.1613 20.1935C15.0646 20.1534 14.9772 20.0939 14.9044 20.0186C14.8317 19.9434 14.7752 19.8539 14.7385 19.7559L13.7813 17.1619C13.1893 17.2208 12.5949 17.2502 12 17.25C11.4052 17.2502 10.8107 17.2208 10.2188 17.1619L9.25783 19.7559C9.22108 19.8539 9.16458 19.9434 9.09185 20.0186C9.01911 20.0939 8.93168 20.1534 8.83499 20.1935C8.7383 20.2336 8.6344 20.2534 8.52974 20.2517C8.42508 20.2499 8.32189 20.2267 8.22658 20.1834L1.94533 17.3991C1.7836 17.328 1.65214 17.2022 1.5741 17.0437C1.49607 16.8852 1.47647 16.7043 1.51876 16.5328L4.29095 5.625C4.3271 5.48164 4.40442 5.35198 4.51337 5.25203C4.62232 5.15208 4.75813 5.08619 4.90408 5.0625L8.2847 4.5075C8.47299 4.4755 8.66641 4.51563 8.82644 4.61988C8.98646 4.72412 9.10132 4.88484 9.14814 5.07L9.61689 6.91031C11.1999 6.69904 12.8039 6.69904 14.3869 6.91031L14.8556 5.07C14.9025 4.88484 15.0173 4.72412 15.1773 4.61988C15.3374 4.51563 15.5308 4.4755 15.7191 4.5075L19.096 5.0625C19.2419 5.08619 19.3777 5.15208 19.4867 5.25203C19.5956 5.35198 19.6729 5.48164 19.7091 5.625L22.4775 16.5347C22.5193 16.7059 22.4995 16.8864 22.4215 17.0445C22.3435 17.2025 22.2123 17.3281 22.051 17.3991Z" fill="#FEFFFF"/>
<path d="M9.74999 13.125C9.74999 13.3475 9.68401 13.565 9.56039 13.75C9.43677 13.935 9.26107 14.0792 9.0555 14.1643C8.84994 14.2495 8.62374 14.2718 8.40551 14.2284C8.18728 14.185 7.98682 14.0778 7.82949 13.9205C7.67216 13.7631 7.56501 13.5627 7.5216 13.3445C7.47819 13.1262 7.50047 12.9 7.58562 12.6945C7.67077 12.4889 7.81496 12.3132 7.99997 12.1896C8.18498 12.066 8.40248 12 8.62499 12C8.92336 12 9.2095 12.1185 9.42048 12.3295C9.63146 12.5405 9.74999 12.8266 9.74999 13.125ZM15.375 12C15.1525 12 14.935 12.066 14.75 12.1896C14.565 12.3132 14.4208 12.4889 14.3356 12.6945C14.2505 12.9 14.2282 13.1262 14.2716 13.3445C14.315 13.5627 14.4222 13.7631 14.5795 13.9205C14.7368 14.0778 14.9373 14.185 15.1555 14.2284C15.3737 14.2718 15.5999 14.2495 15.8055 14.1643C16.0111 14.0792 16.1868 13.935 16.3104 13.75C16.434 13.565 16.5 13.3475 16.5 13.125C16.5 12.8266 16.3815 12.5405 16.1705 12.3295C15.9595 12.1185 15.6734 12 15.375 12ZM22.3547 18.0844L16.0734 20.8697C15.8846 20.9536 15.6805 20.9981 15.4738 21.0003C15.2671 21.0025 15.0622 20.9624 14.8716 20.8825C14.681 20.8026 14.5087 20.6846 14.3654 20.5357C14.222 20.3867 14.1107 20.2101 14.0381 20.0165L13.2778 17.954C12.8578 17.9822 12.4319 17.9965 12 17.9972C11.5681 17.9978 11.1422 17.9834 10.7222 17.954L9.96186 20.0165C9.8892 20.21 9.77777 20.3866 9.63442 20.5354C9.49107 20.6843 9.31882 20.8023 9.12823 20.8821C8.93764 20.962 8.73274 21.0021 8.5261 21C8.31946 20.9978 8.11544 20.9535 7.92655 20.8697L1.6453 18.0844C1.32122 17.9425 1.058 17.6902 0.902464 17.3724C0.746931 17.0547 0.709179 16.692 0.795923 16.349L3.56249 5.43748C3.63545 5.15359 3.78959 4.89713 4.00605 4.69948C4.22251 4.50184 4.4919 4.37159 4.78124 4.32467L8.16186 3.76967C8.53457 3.70951 8.91632 3.79023 9.23278 3.99611C9.54923 4.202 9.77771 4.5183 9.87374 4.88342L10.1794 6.08623C10.775 6.02873 11.3819 5.99998 12 5.99998C12.6181 5.99998 13.2244 6.02873 13.8187 6.08623L14.1244 4.88342C14.2206 4.51841 14.4491 4.20224 14.7655 3.99639C15.0819 3.79054 15.4636 3.70973 15.8362 3.76967L19.2187 4.32467C19.5081 4.37159 19.7775 4.50184 19.9939 4.69948C20.2104 4.89713 20.3645 5.15359 20.4375 5.43748L23.2059 16.3481C23.2928 16.6914 23.2549 17.0545 23.099 17.3725C22.9431 17.6905 22.6793 17.9428 22.3547 18.0844ZM21.75 16.7137L18.9815 5.81248H18.974L15.5934 5.24998C15.591 5.24858 15.5883 5.24784 15.5855 5.24784C15.5827 5.24784 15.5799 5.24858 15.5775 5.24998L15.3122 6.29435C15.7809 6.38248 16.2497 6.48748 16.7025 6.61498C16.881 6.66049 17.0365 6.77011 17.1394 6.92294C17.2423 7.07577 17.2853 7.26112 17.2603 7.44364C17.2352 7.62617 17.1439 7.79309 17.0037 7.91258C16.8635 8.03208 16.6842 8.09578 16.5 8.09154C16.4315 8.09145 16.3634 8.08199 16.2975 8.06342C14.8968 7.6834 13.4513 7.49388 12 7.49998C10.5487 7.49357 9.10321 7.68278 7.70249 8.06248C7.6068 8.09206 7.50616 8.10218 7.4065 8.09223C7.30684 8.08229 7.21018 8.05249 7.12223 8.00458C7.03428 7.95668 6.95681 7.89164 6.89439 7.81331C6.83198 7.73498 6.78589 7.64494 6.75884 7.54851C6.73179 7.45208 6.72433 7.35121 6.73689 7.25184C6.74946 7.15248 6.7818 7.05664 6.832 6.96998C6.88221 6.88332 6.94926 6.80759 7.02921 6.74726C7.10916 6.68693 7.20038 6.64323 7.29749 6.61873C7.74936 6.49123 8.21436 6.38623 8.68686 6.2981L8.42155 5.24998C8.41789 5.24883 8.41396 5.24883 8.4103 5.24998L5.02592 5.80498C5.02315 5.80434 5.02026 5.80434 5.01749 5.80498L2.24999 16.7184L8.53124 19.5C8.53434 19.5019 8.53791 19.5029 8.54155 19.5029C8.54519 19.5029 8.54876 19.5019 8.55186 19.5L9.18749 17.7862C8.55063 17.6889 7.92013 17.5536 7.29936 17.3812C7.11446 17.3221 6.95967 17.1937 6.86752 17.0228C6.77538 16.852 6.75306 16.6521 6.80526 16.4651C6.85747 16.2782 6.98012 16.1187 7.14745 16.0203C7.31477 15.9219 7.51372 15.8922 7.70249 15.9375C9.10315 16.3175 10.5487 16.5067 12 16.5C13.4513 16.5067 14.8968 16.3175 16.2975 15.9375C16.4891 15.8838 16.6941 15.9084 16.8676 16.0059C17.041 16.1033 17.1686 16.2657 17.2223 16.4573C17.276 16.6489 17.2514 16.854 17.1539 17.0274C17.0565 17.2008 16.8941 17.3285 16.7025 17.3822C16.0811 17.5543 15.45 17.6892 14.8125 17.7862L15.4453 19.5C15.4483 19.5016 15.4517 19.5025 15.4551 19.5025C15.4586 19.5025 15.462 19.5016 15.465 19.5L21.75 16.7137Z" fill="#FEFFFF"/>
</svg>
