<svg width="16" height="16" viewBox="0 0 16 16" fill="none" xmlns="http://www.w3.org/2000/svg">
<path opacity="0.2" d="M13 6L8 11L3 6H13Z" fill="#030404"/>
<path d="M13.4618 5.80875C13.424 5.71738 13.3599 5.63928 13.2777 5.58432C13.1955 5.52936 13.0988 5.50002 12.9999 5.5H2.99991C2.90096 5.49992 2.80421 5.5292 2.72191 5.58414C2.63962 5.63908 2.57547 5.71719 2.53759 5.8086C2.49972 5.90002 2.48982 6.00061 2.50914 6.09765C2.52847 6.1947 2.57615 6.28382 2.64616 6.35375L7.64616 11.3538C7.69259 11.4002 7.74774 11.4371 7.80844 11.4623C7.86913 11.4874 7.9342 11.5004 7.99991 11.5004C8.06561 11.5004 8.13068 11.4874 8.19138 11.4623C8.25208 11.4371 8.30722 11.4002 8.35366 11.3538L13.3537 6.35375C13.4236 6.28379 13.4711 6.19466 13.4904 6.09765C13.5096 6.00064 13.4997 5.9001 13.4618 5.80875ZM7.99991 10.2931L4.20678 6.5H11.793L7.99991 10.2931Z" fill="#030404"/>
</svg>
