<svg width="17" height="16" viewBox="0 0 17 16" fill="none" xmlns="http://www.w3.org/2000/svg">
<path d="M13.7706 6.53073L8.77059 11.5307C8.70091 11.6007 8.61812 11.6561 8.52695 11.694C8.43579 11.7318 8.33805 11.7513 8.23934 11.7513C8.14063 11.7513 8.04289 11.7318 7.95172 11.694C7.86056 11.6561 7.77777 11.6007 7.70809 11.5307L2.70809 6.53073C2.56719 6.38984 2.48804 6.19874 2.48804 5.99948C2.48804 5.80023 2.56719 5.60913 2.70809 5.46823C2.84898 5.32734 3.04008 5.24818 3.23934 5.24818C3.4386 5.24818 3.62969 5.32734 3.77059 5.46823L8.23996 9.93761L12.7093 5.46761C12.8502 5.32671 13.0413 5.24756 13.2406 5.24756C13.4398 5.24756 13.6309 5.32671 13.7718 5.46761C13.9127 5.60851 13.9919 5.7996 13.9919 5.99886C13.9919 6.19812 13.9127 6.38921 13.7718 6.53011L13.7706 6.53073Z" fill="url(#paint0_linear_3809_7009)"/>
<defs>
<linearGradient id="paint0_linear_3809_7009" x1="8.23996" y1="5.24756" x2="8.23996" y2="11.7513" gradientUnits="userSpaceOnUse">
<stop offset="0.13" stop-color="white"/>
<stop offset="1" stop-color="#999999"/>
</linearGradient>
</defs>
</svg>
