<svg width="24" height="24" viewBox="0 0 24 24" fill="none" xmlns="http://www.w3.org/2000/svg">
<path d="M18.8944 5.10562C17.0659 3.27712 14.5859 2.24988 12 2.24988C9.4141 2.24988 6.93412 3.27712 5.10562 5.10562C3.27712 6.93412 2.24988 9.4141 2.24988 12C2.24988 14.5859 3.27712 17.0659 5.10562 18.8944C6.93412 20.7229 9.4141 21.7501 12 21.7501C14.5859 21.7501 17.0659 20.7229 18.8944 18.8944C20.7229 17.0659 21.7501 14.5859 21.7501 12C21.7501 9.4141 20.7229 6.93412 18.8944 5.10562ZM17.25 18.3628C16.7877 18.7451 16.2847 19.0752 15.75 19.3472V9.31031L17.25 7.81031V18.3628ZM9.75 15.3103L11.25 13.8103V20.2116C10.7424 20.1641 10.2403 20.07 9.75 19.9303V15.3103ZM8.25 19.3472C7.70437 19.0694 7.19177 18.731 6.72187 18.3384L8.25 16.8103V19.3472ZM12.75 12.3103L14.25 10.8103V19.9341C13.7597 20.0737 13.2576 20.1679 12.75 20.2153V12.3103ZM3.75 12C3.75042 10.4325 4.19738 8.89758 5.03856 7.57492C5.87973 6.25226 7.08031 5.19661 8.49972 4.53157C9.91912 3.86652 11.4986 3.6196 13.0533 3.81973C14.6079 4.01985 16.0734 4.65873 17.2781 5.66156L5.66062 17.2791C4.42153 15.7995 3.74486 13.9299 3.75 12ZM18.75 16.7428V7.25718C19.7259 8.64619 20.2496 10.3024 20.2496 12C20.2496 13.6976 19.7259 15.3538 18.75 16.7428Z" fill="#FEFFFF"/>
</svg>
