<svg width="24" height="24" viewBox="0 0 24 24" fill="none" xmlns="http://www.w3.org/2000/svg">
<g clip-path="url(#clip0_3267_4425)">
<path opacity="0.2" d="M23.0306 12.0938L20.3438 14.7807C20.2032 14.9209 20.0127 14.9997 19.8141 14.9997C19.6155 14.9997 19.425 14.9209 19.2844 14.7807L15.7594 11.25L13.1344 13.875L10.1344 10.875L12.7594 8.25004L7.5 2.97942C9.02561 2.29021 10.7251 2.08251 12.3718 2.38401C14.0185 2.68551 15.5341 3.48188 16.7166 4.66692L23.0306 11.0316C23.1005 11.1013 23.1559 11.1841 23.1938 11.2752C23.2316 11.3663 23.2511 11.464 23.2511 11.5627C23.2511 11.6614 23.2316 11.7591 23.1938 11.8502C23.1559 11.9413 23.1005 12.0241 23.0306 12.0938Z" fill="#FEFFFF"/>
<path d="M23.5631 10.5L17.2387 4.13254C15.5497 2.44685 13.2608 1.50012 10.8745 1.50012C8.48821 1.50012 6.19937 2.44685 4.51031 4.13254L4.50187 4.14098L3.21093 5.47504C3.0772 5.61875 3.00515 5.80917 3.01024 6.00541C3.01534 6.20165 3.09717 6.38807 3.23817 6.52466C3.37917 6.66124 3.5681 6.7371 3.7644 6.73594C3.96071 6.73479 4.14873 6.65671 4.28812 6.51848L5.57531 5.1891C6.09324 4.67143 6.6842 4.23239 7.32937 3.88598L11.6887 8.25004L2.68874 17.25C2.54942 17.3893 2.4389 17.5547 2.3635 17.7367C2.28809 17.9187 2.24928 18.1138 2.24928 18.3108C2.24928 18.5078 2.28809 18.7029 2.3635 18.8849C2.4389 19.0669 2.54942 19.2323 2.68874 19.3716L4.62843 21.3113C4.76772 21.4506 4.9331 21.5611 5.11511 21.6365C5.29712 21.7119 5.4922 21.7508 5.68921 21.7508C5.88622 21.7508 6.08131 21.7119 6.26332 21.6365C6.44533 21.5611 6.6107 21.4506 6.74999 21.3113L15.75 12.3113L17.0944 13.6557L18.75 15.3094C18.8893 15.4487 19.0547 15.5593 19.2367 15.6347C19.4187 15.7101 19.6138 15.7489 19.8108 15.7489C20.0078 15.7489 20.2029 15.7101 20.3849 15.6347C20.5669 15.5593 20.7323 15.4487 20.8716 15.3094L23.5612 12.6197C23.8423 12.3387 24.0004 11.9577 24.0007 11.5603C24.0011 11.1628 23.8437 10.7815 23.5631 10.5ZM5.68874 20.25L3.74999 18.3104L10.125 11.9354L12.0637 13.875L5.68874 20.25ZM15.2194 10.7175L13.125 12.8129L11.1853 10.875L13.2806 8.77973C13.3504 8.71007 13.4057 8.62736 13.4434 8.53631C13.4812 8.44526 13.5006 8.34767 13.5006 8.2491C13.5006 8.15054 13.4812 8.05295 13.4434 7.9619C13.4057 7.87085 13.3504 7.78813 13.2806 7.71848L8.84249 3.28129C10.1247 2.92016 11.48 2.90707 12.769 3.24337C14.058 3.57966 15.2342 4.2532 16.1766 5.19473L20.3222 9.36754L17.625 12.0619L16.2806 10.7175C16.211 10.6478 16.1282 10.5925 16.0372 10.5547C15.9462 10.517 15.8486 10.4976 15.75 10.4976C15.6514 10.4976 15.5538 10.517 15.4628 10.5547C15.3717 10.5925 15.289 10.6478 15.2194 10.7175ZM19.8131 14.2482L18.6881 13.1232L21.375 10.4297L22.5 11.5547L19.8131 14.2482Z" fill="#FEFFFF"/>
</g>
<defs>
<clipPath id="clip0_3267_4425">
<rect width="24" height="24" fill="white"/>
</clipPath>
</defs>
</svg>
