<svg width="24" height="24" viewBox="0 0 24 24" fill="none" xmlns="http://www.w3.org/2000/svg">
<g clip-path="url(#clip0_3457_3713)">
<path fill-rule="evenodd" clip-rule="evenodd" d="M23.9499 13.3856C23.9499 13.4993 23.9236 13.6074 23.8737 13.7012L18.7375 22.5973C18.5197 22.9746 18.1171 23.207 17.6815 23.207H6.26831C5.83266 23.207 5.4301 22.9746 5.21228 22.5973L0.0756354 13.7004C0.0258647 13.6067 -0.00012207 13.4992 -0.00012207 13.3856C-0.00012207 13.0174 0.298371 12.7189 0.666581 12.7189H6.30192L7.73006 15.1447L7.73884 15.1592C7.92942 15.4652 8.33041 15.5649 8.64283 15.381L8.659 15.3712C8.80305 15.2808 8.90734 15.1386 8.95005 14.9734L10.7698 7.93861L12.3324 19.2643L12.3347 19.2801C12.3924 19.6364 12.7244 19.8832 13.0839 19.8336L13.1002 19.8312C13.3605 19.7887 13.572 19.5964 13.6383 19.3401L15.8317 10.8607L16.7324 12.3905L16.7413 12.4052C16.8628 12.6 17.0765 12.7189 17.3069 12.7189H23.2832C23.6514 12.7189 23.9499 13.0174 23.9499 13.3856ZM17.6815 1C18.1171 1 18.5197 1.23242 18.7375 1.6097L23.874 10.5062C23.9237 10.5999 23.9499 10.7079 23.9499 10.8214C23.9499 11.1896 23.6514 11.4881 23.2832 11.4881H17.6294L16.2013 9.06229L16.1915 9.04612C16.101 8.90207 15.9588 8.79779 15.7937 8.75508L15.7782 8.75126C15.4268 8.6691 15.0722 8.88226 14.9813 9.23357L13.1615 16.2684L11.599 4.94272L11.5965 4.92639C11.5541 4.66613 11.3618 4.45468 11.1055 4.38838C10.749 4.29617 10.3853 4.5104 10.2931 4.86687L8.09956 13.3463L7.19899 11.8166L7.19004 11.8018C7.0685 11.607 6.85487 11.4881 6.62446 11.4881H0.666581C0.298371 11.4881 -0.00012207 11.1896 -0.00012207 10.8214C-0.00012207 10.7088 0.0251672 10.6023 0.0740208 10.5092L5.21228 1.6097C5.4301 1.23242 5.83266 1 6.26831 1H17.6815Z" fill="#030404"/>
</g>
<defs>
<clipPath id="clip0_3457_3713">
<rect width="24" height="24" fill="white"/>
</clipPath>
</defs>
</svg>
