<svg width="24" height="25" viewBox="0 0 24 25" fill="none" xmlns="http://www.w3.org/2000/svg">
<path fill-rule="evenodd" clip-rule="evenodd" d="M24 12.5C24 19.1274 18.6274 24.5 12 24.5C5.37258 24.5 0 19.1274 0 12.5C0 5.87258 5.37258 0.5 12 0.5C18.6274 0.5 24 5.87258 24 12.5ZM14.7416 6.85503C15.0766 7.35642 15.2554 7.94589 15.2554 8.54891C15.2545 9.35725 14.933 10.1322 14.3614 10.7038C13.7898 11.2754 13.0149 11.5969 12.2065 11.5978C11.6035 11.5978 11.014 11.419 10.5126 11.084C10.0112 10.749 9.62046 10.2728 9.38969 9.71568C9.15893 9.15856 9.09855 8.54553 9.21619 7.9541C9.33384 7.36267 9.62422 6.8194 10.0506 6.39301C10.477 5.96661 11.0203 5.67623 11.6117 5.55859C12.2031 5.44094 12.8162 5.50132 13.3733 5.73209C13.9304 5.96285 14.4066 6.35364 14.7416 6.85503ZM14.6702 12.666C15.1716 12.331 15.7611 12.1522 16.3641 12.1522C17.1725 12.1531 17.9474 12.4746 18.519 13.0462C19.0906 13.6178 19.4121 14.3927 19.413 15.2011C19.413 15.8041 19.2342 16.3936 18.8992 16.895C18.5642 17.3964 18.088 17.7871 17.5309 18.0179C16.9738 18.2487 16.3607 18.3091 15.7693 18.1914C15.1779 18.0738 14.6346 17.7834 14.2082 17.357C13.7818 16.9306 13.4914 16.3873 13.3738 15.7959C13.2562 15.2045 13.3165 14.5914 13.5473 14.0343C13.7781 13.4772 14.1689 13.001 14.6702 12.666ZM6.35503 12.666C6.85642 12.331 7.4459 12.1522 8.04891 12.1522C8.85725 12.1531 9.63222 12.4746 10.2038 13.0462C10.7754 13.6178 11.0969 14.3927 11.0978 15.2011C11.0978 15.8041 10.919 16.3936 10.584 16.895C10.249 17.3964 9.7728 17.7871 9.21568 18.0179C8.65857 18.2487 8.04553 18.3091 7.4541 18.1914C6.86267 18.0738 6.31941 17.7834 5.89301 17.357C5.46661 16.9306 5.17623 16.3873 5.05859 15.7959C4.94094 15.2045 5.00132 14.5914 5.23209 14.0343C5.46285 13.4772 5.85364 13.001 6.35503 12.666Z" fill="#030404"/>
</svg>

