<svg width="24" height="24" viewBox="0 0 24 24" fill="none" xmlns="http://www.w3.org/2000/svg">
<g clip-path="url(#clip0_3337_15751)">
<path fill-rule="evenodd" clip-rule="evenodd" d="M23.95 13.3856C23.95 13.4993 23.9237 13.6074 23.8738 13.7012L18.7376 22.5973C18.5198 22.9746 18.1173 23.207 17.6816 23.207H6.26843C5.83278 23.207 5.43023 22.9746 5.2124 22.5973L0.0757575 13.7004C0.0259868 13.6067 0 13.4992 0 13.3856C0 13.0174 0.298493 12.7189 0.666704 12.7189H6.30204L7.73018 15.1447L7.73896 15.1592C7.92954 15.4652 8.33053 15.5649 8.64296 15.381L8.65912 15.3712C8.80318 15.2808 8.90746 15.1386 8.95017 14.9734L10.7699 7.93861L12.3325 19.2643L12.3348 19.2801C12.3926 19.6364 12.7246 19.8832 13.084 19.8336L13.1004 19.8312C13.3606 19.7887 13.5721 19.5964 13.6384 19.3401L15.8319 10.8607L16.7325 12.3905L16.7414 12.4052C16.863 12.6 17.0766 12.7189 17.307 12.7189H23.2833C23.6516 12.7189 23.95 13.0174 23.95 13.3856ZM17.6816 1C18.1173 1 18.5198 1.23242 18.7376 1.6097L23.8741 10.5062C23.9238 10.5999 23.95 10.7079 23.95 10.8214C23.95 11.1896 23.6516 11.4881 23.2833 11.4881H17.6295L16.2014 9.06229L16.1916 9.04612C16.1012 8.90207 15.9589 8.79779 15.7938 8.75508L15.7783 8.75126C15.4269 8.6691 15.0723 8.88226 14.9814 9.23357L13.1616 16.2684L11.5991 4.94272L11.5967 4.92639C11.5542 4.66613 11.3619 4.45468 11.1056 4.38838C10.7492 4.29617 10.3854 4.5104 10.2932 4.86687L8.09968 13.3463L7.19911 11.8166L7.19017 11.8018C7.06862 11.607 6.85499 11.4881 6.62458 11.4881H0.666704C0.298493 11.4881 0 11.1896 0 10.8214C0 10.7088 0.0252892 10.6023 0.0741429 10.5092L5.2124 1.6097C5.43023 1.23242 5.83278 1 6.26843 1H17.6816Z" fill="#030404"/>
</g>
<defs>
<clipPath id="clip0_3337_15751">
<rect width="24" height="24" fill="white"/>
</clipPath>
</defs>
</svg>
