<svg width="25" height="24" viewBox="0 0 25 24" fill="none" xmlns="http://www.w3.org/2000/svg">
<path opacity="0.2" d="M8.75 18.7504V12.6444L12.9097 16.2922L10.04 19.2697C9.93631 19.3773 9.80285 19.4515 9.65673 19.4827C9.51061 19.5139 9.35849 19.5008 9.21989 19.445C9.08128 19.3892 8.9625 19.2932 8.87878 19.1695C8.79506 19.0457 8.75022 18.8998 8.75 18.7504ZM22.1216 3.00693L3.125 10.4422C3.00705 10.4876 2.90701 10.5701 2.8399 10.6772C2.77278 10.7842 2.74221 10.9102 2.75278 11.0361C2.76334 11.1621 2.81447 11.2812 2.89849 11.3756C2.98251 11.47 3.09489 11.5346 3.21875 11.5597L8.75 12.6444L22.25 3.11474C22.254 3.09781 22.2533 3.08008 22.2478 3.06356C22.2424 3.04703 22.2324 3.03234 22.2191 3.02115C22.2058 3.00996 22.1896 3.0027 22.1723 3.00019C22.1551 2.99768 22.1375 3.00001 22.1216 3.00693Z" fill="#FEFFFF"/>
<path d="M22.7075 2.45532C22.5913 2.35498 22.4499 2.28825 22.2986 2.26231C22.1473 2.23637 21.9917 2.25222 21.8487 2.30814L2.84937 9.74345C2.5801 9.84815 2.35214 10.0375 2.1998 10.283C2.04745 10.5284 1.97898 10.8168 2.00468 11.1045C2.03037 11.3923 2.14886 11.6639 2.34229 11.8785C2.53572 12.0931 2.79362 12.2391 3.07718 12.2944L7.99999 13.2609V18.75C7.99902 19.049 8.08787 19.3414 8.25503 19.5893C8.42219 19.8372 8.65995 20.0291 8.93749 20.1403C9.21461 20.2535 9.51936 20.2806 9.81213 20.2183C10.1049 20.1559 10.3721 20.0069 10.5791 19.7906L12.9528 17.3288L16.7187 20.625C16.9904 20.866 17.3409 20.9994 17.7041 21C17.8632 20.9999 18.0214 20.9749 18.1728 20.9259C18.4203 20.8474 18.6428 20.7055 18.8183 20.5142C18.9938 20.3229 19.1162 20.0889 19.1731 19.8356L22.9784 3.28126C23.0125 3.13196 23.0052 2.97622 22.9575 2.83072C22.9098 2.68522 22.8234 2.55545 22.7075 2.45532ZM16.9756 5.83032L8.57656 11.8453L3.92562 10.9331L16.9756 5.83032ZM9.49999 18.75V14.2988L11.8241 16.3369L9.49999 18.75ZM17.7059 19.5L9.95468 12.7031L21.1109 4.7072L17.7059 19.5Z" fill="#FEFFFF"/>
</svg>
