<svg width="25" height="24" viewBox="0 0 25 24" fill="none" xmlns="http://www.w3.org/2000/svg">
<path opacity="0.2" d="M23 6.7504L20 9.7504C19.6006 16.0167 14.3675 21.0004 8 21.0004C5 21.0004 4.25 19.8754 4.25 19.8754C4.25 19.8754 7.25 18.7504 8.75 16.5004C8.75 16.5004 3.57969 13.5004 4.32312 5.2504C4.32312 5.2504 8.04125 9.0004 12.5 9.7504V8.2504C12.5 6.1879 14.1875 4.47509 16.25 4.5004C16.9779 4.50885 17.6882 4.72513 18.2972 5.12375C18.9063 5.52238 19.3888 6.08675 19.6878 6.7504H23Z" fill="#FEFFFF"/>
<path d="M23.6929 6.46351C23.6361 6.32646 23.54 6.2093 23.4167 6.12687C23.2934 6.04443 23.1484 6.00042 23 6.00039H20.1472C19.7484 5.32174 19.1808 4.75786 18.4995 4.36358C17.8182 3.96931 17.0465 3.75806 16.2594 3.75039C15.6732 3.74261 15.0913 3.85224 14.548 4.07282C14.0048 4.2934 13.5112 4.62047 13.0963 5.03476C12.6688 5.45386 12.3294 5.95427 12.0982 6.50652C11.867 7.05876 11.7486 7.65169 11.75 8.25039V8.82132C7.97568 7.8257 4.88849 4.75539 4.85567 4.72257C4.75505 4.62106 4.62752 4.55042 4.4881 4.51896C4.34867 4.48749 4.20316 4.49653 4.0687 4.54499C3.93424 4.59346 3.81642 4.67934 3.72913 4.79252C3.64184 4.9057 3.58871 5.04146 3.57599 5.18382C3.17286 9.66414 4.47317 12.6623 5.63849 14.3882C6.20696 15.2415 6.8985 16.006 7.69067 16.6569C6.25911 18.3004 4.01099 19.1638 3.98755 19.1732C3.88172 19.2128 3.78621 19.2759 3.70817 19.3576C3.63013 19.4393 3.57156 19.5377 3.53686 19.6452C3.50215 19.7528 3.49219 19.8668 3.50774 19.9787C3.52328 20.0906 3.56392 20.1976 3.62661 20.2916C3.69599 20.3966 3.97818 20.7651 4.66536 21.1091C5.51661 21.5348 6.6388 21.7504 8.00005 21.7504C14.6263 21.7504 20.1613 16.6485 20.7275 10.0841L23.5307 7.28101C23.6355 7.17607 23.7069 7.04238 23.7358 6.89686C23.7646 6.75135 23.7497 6.60054 23.6929 6.46351ZM19.4741 9.2207C19.3455 9.3496 19.2682 9.52087 19.2566 9.70257C18.875 15.6173 13.9325 20.2504 8.00005 20.2504C7.01005 20.2504 6.31255 20.1191 5.82317 19.9616C6.90317 19.3757 8.40692 18.3679 9.37442 16.9166C9.4311 16.8317 9.46981 16.736 9.48819 16.6355C9.50658 16.535 9.50424 16.4319 9.48133 16.3323C9.45842 16.2328 9.41542 16.1389 9.35496 16.0566C9.2945 15.9743 9.21786 15.9052 9.12974 15.8535C9.11755 15.846 7.92411 15.1279 6.83474 13.4826C5.61317 11.6357 5.00005 9.41101 5.00005 6.85257C6.50005 8.07132 9.24224 9.9632 12.3772 10.4901C12.4846 10.5079 12.5946 10.5021 12.6996 10.4732C12.8045 10.4442 12.9019 10.3927 12.9849 10.3224C13.068 10.252 13.1347 10.1644 13.1805 10.0656C13.2263 9.96681 13.25 9.85925 13.25 9.75039V8.25039C13.2492 7.85031 13.3284 7.4541 13.483 7.08508C13.6375 6.71607 13.8643 6.38169 14.1501 6.10164C14.4238 5.82701 14.7499 5.61016 15.109 5.46393C15.4681 5.3177 15.853 5.24509 16.2407 5.25039C17.4275 5.26539 18.5366 5.98914 19.0007 7.05132C19.0592 7.18487 19.1553 7.29846 19.2774 7.37822C19.3994 7.45797 19.5421 7.50043 19.6879 7.50039H21.1879L19.4741 9.2207Z" fill="#FEFFFF"/>
</svg>
