<svg xmlns="http://www.w3.org/2000/svg" width="24" height="24" viewBox="0 0 24 24" fill="none">
  <g clip-path="url(#clip0_3853_11021)">
    <path d="M6.72817 23.8032C12.7606 23.8032 12.7606 23.7134 13.7835 23.4098C15.1202 23.013 10.0095 19.4753 6.72817 19.4753C3.44688 19.4753 0.786865 20.4442 0.786865 21.6393C0.786865 22.8344 3.44701 23.8032 6.72817 23.8032Z" fill="black"/>
    <path d="M20.4262 5.40167L20.7036 5.70068L20.4611 6.02864C12.5936 16.666 8.0615 21.4823 6.13856 20.8363C4.96729 20.4429 3.79268 19.2596 2.61803 17.5413C2.20515 16.9374 1.81744 16.3014 1.46482 15.6685C1.23001 15.247 1.03126 14.8627 0.928062 14.6462C0.796425 14.37 0.740848 14.1999 0.696756 13.9764C0.694065 13.9628 0.694065 13.9628 0.691509 13.9496C0.673105 13.8547 0.666738 13.8248 0.652982 13.7729C0.416247 12.8807 0.295166 11.9563 0.295166 11.0164C0.295166 5.09514 5.09526 0.295044 11.0165 0.295044C12.8715 0.295044 14.6592 0.767158 16.2434 1.6534L16.2843 1.67899C17.5814 2.58205 18.9611 3.82293 20.4262 5.40167ZM15.7422 2.50011C14.309 1.70299 12.6941 1.27865 11.0165 1.27865C5.63849 1.27865 1.27877 5.63837 1.27877 11.0164C1.27877 11.871 1.38875 12.7106 1.60369 13.5207C1.62495 13.6008 1.63456 13.646 1.65711 13.7622C1.65948 13.7744 1.65948 13.7744 1.66175 13.786C1.69021 13.9302 1.72023 14.0221 1.81596 14.223C1.9101 14.4205 2.09928 14.7863 2.32406 15.1898C2.66297 15.798 3.03541 16.409 3.43003 16.9862C4.4913 18.5386 5.54381 19.5989 6.45178 19.9039C7.66276 20.3107 12.2216 15.4849 19.4262 5.77321C18.1182 4.39258 16.8895 3.30153 15.7422 2.50011Z" fill="black"/>
    <path d="M15.7423 2.50014C14.309 1.70302 12.6941 1.27869 11.0165 1.27869C5.63853 1.27869 1.27881 5.63841 1.27881 11.0164C1.27881 11.871 1.38878 12.7106 1.60373 13.5207C1.62498 13.6008 1.6346 13.6461 1.65714 13.7623C1.65951 13.7745 1.65951 13.7745 1.66179 13.786C1.69024 13.9302 1.72027 14.0222 1.816 14.223C1.91014 14.4205 2.09932 14.7864 2.3241 15.1898C2.66301 15.7981 3.03545 16.409 3.43007 16.9862C4.49134 18.5387 5.54385 19.599 6.45181 19.904C7.66279 20.3108 12.2217 15.4849 19.4263 5.77325C18.1182 4.39262 16.8895 3.30157 15.7423 2.50014Z" fill="#EC1C79"/>
    <path d="M12.9838 23.7048C7.06255 23.7048 2.26245 18.9047 2.26245 12.9835C2.26245 7.0623 7.06255 2.26221 12.9838 2.26221C18.905 2.26221 23.7051 7.0623 23.7051 12.9835C23.7051 18.9047 18.905 23.7048 12.9838 23.7048ZM12.9838 22.7212C18.3617 22.7212 22.7215 18.3615 22.7215 12.9835C22.7215 7.60553 18.3617 3.24581 12.9838 3.24581C7.60578 3.24581 3.24606 7.60553 3.24606 12.9835C3.24606 18.3615 7.60578 22.7212 12.9838 22.7212Z" fill="black"/>
    <path d="M12.9838 22.7213C18.3618 22.7213 22.7215 18.3615 22.7215 12.9836C22.7215 7.60557 18.3618 3.24585 12.9838 3.24585C7.60581 3.24585 3.24609 7.60557 3.24609 12.9836C3.24609 18.3615 7.60581 22.7213 12.9838 22.7213Z" fill="white"/>
    <path fill-rule="evenodd" clip-rule="evenodd" d="M5.69956 14.9783L4.41064 11.095H5.53982L6.21182 13.3258L6.95543 11.084H7.8753L8.61891 13.3258L9.29091 11.095H10.3981L9.10914 14.9783H8.17825L7.4016 12.7585L6.63045 14.9783H5.69956ZM10.8222 14.9507V11.095H13.9233V12.0039H11.8798V12.5877H13.7305V13.4305H11.8798V14.0419H13.9508V14.9507H10.8222ZM15.4381 14.9507V12.0314H14.2813V11.095H17.6634V12.0314H16.5066V14.9507H15.4381ZM18.1316 14.9507V11.095H19.2002V12.5381H20.5717V11.095H21.6403V14.9507H20.5717V13.4856H19.2002V14.9507H18.1316Z" fill="black"/>
    <path d="M0.934001 9.93521C0.661908 9.79916 0.55162 9.4683 0.687667 9.19621C0.823713 8.92411 1.15458 8.81383 1.42667 8.94987L3.00044 9.73676C3.27253 9.87281 3.38282 10.2037 3.24677 10.4758C3.11073 10.7479 2.77986 10.8581 2.50777 10.7221L0.934001 9.93521Z" fill="black"/>
    <path d="M0.752755 12.5447C0.476543 12.4173 0.355967 12.09 0.483443 11.8138C0.610918 11.5376 0.938172 11.417 1.21438 11.5445L2.78815 12.2708C3.06437 12.3983 3.18494 12.7255 3.05747 13.0017C2.92999 13.2779 2.60274 13.3985 2.32653 13.271L0.752755 12.5447Z" fill="black"/>
  </g>
  <defs>
    <clipPath id="clip0_3853_11021">
      <rect width="24" height="24" fill="white"/>
    </clipPath>
  </defs>
</svg>