<svg width="29" height="29" viewBox="0 0 29 29" fill="none" xmlns="http://www.w3.org/2000/svg">
<g filter="url(#filter0_d_3651_1538)">
<path opacity="0.2" d="M23.7428 6.70593C23.6851 6.47467 23.5731 6.2605 23.4161 6.08116C23.2591 5.90182 23.0616 5.76248 22.84 5.67468C19.7013 4.46718 14.5 4.5 14.5 4.5C14.5 4.5 9.29875 4.46718 6.15625 5.67937C5.93466 5.76717 5.73718 5.90651 5.58017 6.08585C5.42317 6.26519 5.31116 6.47936 5.25344 6.71062C5.03781 7.55062 4.75 9.19593 4.75 12C4.75 14.8041 5.03781 16.4494 5.25719 17.2941C5.3152 17.5241 5.42694 17.737 5.58322 17.9155C5.73951 18.0939 5.93589 18.2328 6.15625 18.3206C9.29875 19.5328 14.5 19.5 14.5 19.5C14.5 19.5 19.7013 19.5328 22.8438 18.3206C23.0648 18.2333 23.2619 18.0947 23.4189 17.9162C23.5759 17.7377 23.6882 17.5245 23.7466 17.2941C23.9659 16.4503 24.2537 14.8041 24.2537 12C24.2537 9.19593 23.9622 7.55062 23.7428 6.70593ZM13 15V9L17.5 12L13 15Z" fill="#FEFFFF"/>
<path d="M17.9163 11.3756L13.4163 8.37563C13.3033 8.30025 13.1719 8.25697 13.0363 8.2504C12.9006 8.24382 12.7657 8.27421 12.646 8.33831C12.5263 8.40241 12.4262 8.49783 12.3564 8.61436C12.2867 8.7309 12.2499 8.86419 12.25 9V15C12.2499 15.1358 12.2867 15.2691 12.3564 15.3856C12.4262 15.5022 12.5263 15.5976 12.646 15.6617C12.7657 15.7258 12.9006 15.7562 13.0363 15.7496C13.1719 15.743 13.3033 15.6998 13.4163 15.6244L17.9163 12.6244C18.0191 12.5559 18.1035 12.4631 18.1618 12.3542C18.2202 12.2452 18.2507 12.1236 18.2507 12C18.2507 11.8764 18.2202 11.7548 18.1618 11.6458C18.1035 11.5369 18.0191 11.4441 17.9163 11.3756ZM13.75 13.5984V10.4063L16.1481 12L13.75 13.5984ZM24.4684 6.5175C24.3801 6.17189 24.2109 5.85224 23.9747 5.58491C23.7385 5.31758 23.4421 5.11024 23.11 4.98C19.8962 3.73875 14.7812 3.75 14.5 3.75C14.2188 3.75 9.10375 3.73875 5.89 4.98C5.5579 5.11024 5.26153 5.31758 5.02534 5.58491C4.78915 5.85224 4.6199 6.17189 4.53156 6.5175C4.28875 7.45313 4 9.16313 4 12C4 14.8369 4.28875 16.5469 4.53156 17.4825C4.61977 17.8283 4.78895 18.1481 5.02515 18.4156C5.26136 18.6831 5.5578 18.8906 5.89 19.0209C8.96875 20.2088 13.7875 20.25 14.4381 20.25H14.5619C15.2125 20.25 20.0341 20.2088 23.11 19.0209C23.4422 18.8906 23.7386 18.6831 23.9748 18.4156C24.211 18.1481 24.3802 17.8283 24.4684 17.4825C24.7113 16.545 25 14.8369 25 12C25 9.16313 24.7113 7.45313 24.4684 6.5175ZM23.0163 17.1113C22.9877 17.2263 22.9323 17.3329 22.8545 17.4224C22.7768 17.5118 22.679 17.5816 22.5691 17.6259C19.6019 18.7716 14.5553 18.7509 14.4953 18.7509C14.4353 18.7509 9.39813 18.7678 6.43281 17.6259C6.32291 17.5816 6.22508 17.5118 6.14735 17.4224C6.06962 17.3329 6.0142 17.2263 5.98563 17.1113C5.7625 16.2553 5.5 14.6784 5.5 12C5.5 9.32157 5.7625 7.74469 5.98375 6.89344C6.01179 6.77774 6.06697 6.67037 6.14473 6.58022C6.2225 6.49007 6.3206 6.41972 6.43094 6.375C9.39813 5.23313 14.4438 5.25 14.5047 5.25C14.5656 5.25 19.6019 5.23313 22.5672 6.375C22.6771 6.41936 22.7749 6.48913 22.8526 6.57859C22.9304 6.66806 22.9858 6.77467 23.0144 6.88969C23.2375 7.74469 23.5 9.32157 23.5 12C23.5 14.6784 23.2375 16.2553 23.0163 17.1066V17.1113Z" fill="#FEFFFF"/>
</g>
<defs>
<filter id="filter0_d_3651_1538" x="-1.5" y="0" width="32" height="32" filterUnits="userSpaceOnUse" color-interpolation-filters="sRGB">
<feFlood flood-opacity="0" result="BackgroundImageFix"/>
<feColorMatrix in="SourceAlpha" type="matrix" values="0 0 0 0 0 0 0 0 0 0 0 0 0 0 0 0 0 0 127 0" result="hardAlpha"/>
<feOffset dy="4"/>
<feGaussianBlur stdDeviation="2"/>
<feComposite in2="hardAlpha" operator="out"/>
<feColorMatrix type="matrix" values="0 0 0 0 0 0 0 0 0 0 0 0 0 0 0 0 0 0 0.25 0"/>
<feBlend mode="normal" in2="BackgroundImageFix" result="effect1_dropShadow_3651_1538"/>
<feBlend mode="normal" in="SourceGraphic" in2="effect1_dropShadow_3651_1538" result="shape"/>
</filter>
</defs>
</svg>
