<svg id="Layer_1" data-name="Layer 1" xmlns="http://www.w3.org/2000/svg" viewBox="0 0 21 16.5"><defs><style>.cls-1,.cls-2{fill:#fff;}.cls-1{isolation:isolate;opacity:0.2;}</style></defs><path class="cls-1" d="M315.21,390.69a1.53,1.53,0,0,0-.91-1c-3.13-1.2-8.34-1.17-8.34-1.17s-5.2,0-8.34,1.18a1.44,1.44,0,0,0-.57.4,1.53,1.53,0,0,0-.33.63,27.69,27.69,0,0,0,0,10.58,1.43,1.43,0,0,0,.33.62,1.46,1.46,0,0,0,.57.41c3.14,1.21,8.34,1.18,8.34,1.18s5.21,0,8.35-1.18a1.46,1.46,0,0,0,.57-.41,1.43,1.43,0,0,0,.33-.62,27.74,27.74,0,0,0,0-10.59ZM304.46,399v-6l4.5,3Z" transform="translate(-295.46 -387.74)"/><path class="cls-2" d="M309.38,395.36l-4.5-3a.81.81,0,0,0-.38-.12.68.68,0,0,0-.39.09.75.75,0,0,0-.29.27.77.77,0,0,0-.11.39v6a.73.73,0,0,0,.11.38.71.71,0,0,0,.29.28.89.89,0,0,0,.39.09.72.72,0,0,0,.38-.13l4.5-3a.81.81,0,0,0,.25-.27.73.73,0,0,0,.09-.35.74.74,0,0,0-.09-.36A.81.81,0,0,0,309.38,395.36Zm-4.17,2.23v-3.2l2.4,1.6Zm10.72-7.08a2.13,2.13,0,0,0-.49-.94,2.3,2.3,0,0,0-.87-.6c-3.21-1.24-8.32-1.23-8.61-1.23s-5.39,0-8.61,1.23a2.35,2.35,0,0,0-.86.6,2.13,2.13,0,0,0-.49.94,28.08,28.08,0,0,0,0,11,2,2,0,0,0,.49.93,2.26,2.26,0,0,0,.86.61c3.08,1.19,7.9,1.23,8.55,1.23H306c.65,0,5.47,0,8.54-1.23a2.22,2.22,0,0,0,.87-.61,2,2,0,0,0,.49-.93,28.6,28.6,0,0,0,0-11Zm-1.45,10.59a.77.77,0,0,1-.16.31.72.72,0,0,1-.29.2c-3,1.15-8,1.13-8.07,1.13s-5.1,0-8.06-1.13a.72.72,0,0,1-.29-.2.77.77,0,0,1-.16-.31,26.89,26.89,0,0,1,0-10.22.77.77,0,0,1,.16-.31.86.86,0,0,1,.29-.21c3-1.14,8-1.12,8.07-1.12s5.1,0,8.06,1.12a.86.86,0,0,1,.29.21.71.71,0,0,1,.16.31,27.39,27.39,0,0,1,0,10.21Z" transform="translate(-295.46 -387.74)"/></svg>