<svg width="40" height="40" viewBox="0 0 40 40" fill="none" xmlns="http://www.w3.org/2000/svg">
<rect width="40" height="40" rx="20" fill="url(#paint0_linear_3262_932)"/>
<path d="M17.4702 9.90019C16.0455 12.2149 13.7918 14.9327 11.8491 17.1303C11.5771 17.4424 11.331 17.7675 11.0978 18.1186C8.98669 21.1745 8.61108 25.2967 10.1005 28.6647C11.4087 31.6946 14.1156 34.1003 17.3406 34.8805C25.8112 36.9351 32.7922 28.7167 29.619 20.3683C29.3988 19.7831 29.1657 19.1329 28.8549 18.5867C27.9482 17.1173 26.7049 15.8299 25.5392 14.4775C24.0627 12.9301 22.353 10.3293 21.5889 8.93791C20.6952 7.40346 20.0864 6.07707 19.7238 5.20582C18.9208 7.24742 18.1307 8.87289 17.4702 9.90019Z" fill="url(#paint1_radial_3262_932)"/>
<path d="M19.7242 5.19971C18.9251 7.25348 18.1263 8.86808 17.4731 9.89619C16.0458 12.2158 13.7937 14.9341 11.8441 17.1292C11.5804 17.4418 11.3256 17.7739 11.0916 18.1176C8.98997 21.1745 8.61461 25.2903 10.1051 28.6605C11.4092 31.6915 14.1194 34.1064 17.3431 34.8756C25.8051 36.9407 32.7863 28.7193 29.624 20.3739C29.3927 19.7822 29.1615 19.139 28.8596 18.5838C27.9452 17.1196 26.7039 15.8351 25.5347 14.4786C24.0636 12.9349 22.3521 10.3268 21.5862 8.93867C20.6939 7.40841 20.0928 6.08202 19.7242 5.19971Z" stroke="url(#paint2_linear_3262_932)" stroke-width="1.66667" stroke-miterlimit="10"/>
<path d="M19.7681 9.20964C19.5675 9.30922 19.4736 9.67988 19.367 9.90031C19.062 10.6157 18.7534 11.2913 18.3861 11.9528C17.1394 14.1732 15.3832 16.2261 13.7148 18.183C9.6975 22.8581 12.1283 30.7374 18.3046 31.9775C25.5525 33.3185 30.2281 25.779 26.7757 19.272C25.7112 17.5372 24.1733 16.1767 22.9795 14.5334C21.9742 13.149 21.2203 11.86 20.4892 10.4159C20.3209 10.0824 20.1615 9.72205 20.0099 9.40636C19.9607 9.308 19.8631 9.17594 19.7771 9.20719L19.7681 9.20964Z" fill="white" stroke="url(#paint3_linear_3262_932)" stroke-width="1.66667" stroke-miterlimit="10"/>
<mask id="mask0_3262_932" style="mask-type:luminance" maskUnits="userSpaceOnUse" x="9" y="10" width="17" height="17">
<path d="M10.9397 14.7951C9.78698 16.7257 9.55392 19.2857 10.2956 21.41C13.4145 29.9854 25.7214 27.967 25.9713 18.8449V18.8259C25.8931 13.7708 21.9162 10.7381 17.8604 10.7383C15.2446 10.7384 12.5957 12.0003 10.9397 14.7951Z" fill="white"/>
</mask>
<g mask="url(#mask0_3262_932)">
<path d="M19.7717 16.6559C21.9185 16.6275 23.719 18.1091 24.7529 19.7623C27.1155 23.1951 26.2416 28.5219 21.9608 30.2684C19.1135 31.4542 15.8409 29.9783 14.4292 27.3052C12.1328 23.2401 14.9078 16.8822 19.7524 16.6563L19.7717 16.6559Z" fill="#474848"/>
</g>
<path d="M17.5881 21.1324C17.5947 21.9867 16.8243 22.7217 15.9785 22.6935C13.8501 22.5727 14.0221 19.4264 16.1453 19.5364C16.9402 19.5927 17.6018 20.3137 17.5882 21.1138L17.5881 21.1324Z" fill="white"/>
<mask id="mask1_3262_932" style="mask-type:luminance" maskUnits="userSpaceOnUse" x="13" y="16" width="14" height="15">
<path d="M19.7489 16.656L19.7296 16.6565C14.8849 16.8824 12.11 23.2403 14.4063 27.3053C15.818 29.9784 19.0907 31.4544 21.938 30.2685C26.2188 28.5221 27.0926 23.1952 24.7301 19.7624C23.7059 18.1248 21.9297 16.6556 19.8097 16.6556C19.7895 16.6556 19.7692 16.6557 19.7489 16.656Z" fill="white"/>
</mask>
<g mask="url(#mask1_3262_932)">
<path d="M29.3008 25.0619C24.9161 27.5985 20.5314 30.1351 16.1468 32.6717C17.7771 29.8602 19.4076 27.0488 21.038 24.2373C21.2243 24.0169 21.5 23.6918 21.8358 23.2997C22.768 22.2111 23.2341 21.6668 23.515 21.3773C24.026 20.8506 24.8332 20.1579 26.0812 19.5336C27.1543 21.3763 28.2276 23.2192 29.3008 25.0619Z" fill="#1D1D1E"/>
<path d="M28.9431 24.4478L15.8378 32.1413L12.3581 26.1662C12.6554 26.0046 13.1055 25.7779 13.6746 25.562C14.9669 25.0715 16.0009 24.9672 16.7487 24.8813C18.1184 24.7238 19.8234 24.5278 21.5502 24.1231C24.2025 23.5016 25.0186 22.8304 25.3446 22.5326C26.0658 21.8736 26.4746 21.1357 26.7072 20.6086C27.4525 21.8883 28.1978 23.168 28.9431 24.4478Z" fill="#7C7D7D"/>
<path d="M29.5609 25.5087L16.4557 33.2023L12.9434 27.1713C13.1614 27.0079 13.467 26.7923 13.8483 26.5652C14.4156 26.2273 15.0715 25.9113 15.9448 25.6154C16.3806 25.4678 16.9593 25.295 18.8032 24.949C20.769 24.5799 21.0043 24.6086 22.3631 24.3016C23.1859 24.1156 23.9966 23.9024 24.9223 23.4736C25.5895 23.1644 26.0019 22.8889 26.3579 22.5746C26.7804 22.2016 27.0678 21.823 27.2519 21.5439C28.0216 22.8655 28.7913 24.1871 29.5609 25.5087Z" fill="#A5A4A5"/>
<path d="M28.8821 24.3429L15.7769 32.0365L13.3005 27.7844C13.6107 27.5138 14.0714 27.1476 14.6765 26.7908C15.7831 26.1382 16.7513 25.8833 17.2841 25.7471C18.8021 25.3591 20.2397 25.0024 22.2588 24.5813C22.6084 24.5084 23.0716 24.4131 23.6865 24.224C24.6731 23.9206 25.3061 23.6042 25.9189 23.2943C26.3198 23.0915 26.5806 22.9388 26.8621 22.7032C27.168 22.4472 27.3823 22.1904 27.5203 22.0045C27.9743 22.784 28.4282 23.5635 28.8821 24.3429Z" fill="#DCDBDB"/>
<path d="M18.9456 37.419L32.0509 29.7255C30.7337 27.4639 29.4167 25.2023 28.0995 22.9407C27.9333 23.0651 27.7045 23.2311 27.4257 23.4175C27.1948 23.5717 26.6993 23.8938 26.0183 24.253C25.5346 24.5082 25.2927 24.6357 24.9373 24.7596C24.768 24.8186 24.5466 24.8792 24.1106 24.9982C23.6367 25.1275 23.2768 25.2198 23.1526 25.2515C21.6978 25.6242 21.9684 25.5576 21.5457 25.6641C19.231 26.2475 18.8157 26.3424 17.6117 26.6623C16.6713 26.9121 15.9426 27.1148 15.1524 27.6939C14.5911 28.1052 14.2092 28.5524 13.9699 28.8752C15.6285 31.7231 17.287 34.571 18.9456 37.419Z" fill="white"/>
</g>
<defs>
<linearGradient id="paint0_linear_3262_932" x1="20" y1="0" x2="20" y2="40" gradientUnits="userSpaceOnUse">
<stop offset="0.13" stop-color="white"/>
<stop offset="1" stop-color="#999999"/>
</linearGradient>
<radialGradient id="paint1_radial_3262_932" cx="0" cy="0" r="1" gradientUnits="userSpaceOnUse" gradientTransform="translate(19.8015 20.1988) scale(12.9519 13.0038)">
<stop stop-color="#474749"/>
<stop offset="0.42" stop-color="#484648"/>
<stop offset="1" stop-color="#231F20"/>
</radialGradient>
<linearGradient id="paint2_linear_3262_932" x1="9.15619" y1="20.1595" x2="30.4469" y2="20.1595" gradientUnits="userSpaceOnUse">
<stop stop-color="#231F20"/>
<stop offset="1" stop-color="#231F20"/>
</linearGradient>
<linearGradient id="paint3_linear_3262_932" x1="11.6999" y1="20.6682" x2="27.9824" y2="20.6682" gradientUnits="userSpaceOnUse">
<stop stop-color="#231F20"/>
<stop offset="1" stop-color="#231F20"/>
</linearGradient>
</defs>
</svg>
