<svg width="54" height="54" viewBox="0 0 54 54" fill="none" xmlns="http://www.w3.org/2000/svg">
<g style="mix-blend-mode:hue" opacity="0.5" clip-path="url(#clip0_211_11706)">
<path fill-rule="evenodd" clip-rule="evenodd" d="M27 54C12.0876 54 0 41.9124 0 27C0 12.0876 12.0876 0 27 0C41.9124 0 54 12.0876 54 27C54 41.9124 41.9124 54 27 54ZM40.4899 27.3696L27.8404 6.75L15.1875 27.3712L27.8404 34.7169L40.4899 27.3696ZM40.5 29.727L27.8404 37.0693L15.1875 29.7287L27.8404 47.2416L40.5 29.727Z" fill="black"/>
<path d="M27.8403 6.75V21.7181L40.4915 27.3712L27.8403 6.75ZM27.8403 37.071V47.2416L40.5 29.727L27.8403 37.071Z" fill="black" fill-opacity="0.298"/>
<path d="M27.8403 34.7169L40.4915 27.3712L27.8403 21.7214V34.7169Z" fill="black" fill-opacity="0.801"/>
<path d="M15.1875 27.3712L27.8404 34.7169V21.7214L15.1875 27.3712Z" fill="black" fill-opacity="0.298"/>
</g>
<defs>
<clipPath id="clip0_211_11706">
<rect width="54" height="54" fill="white"/>
</clipPath>
</defs>
</svg>
