<svg width="56" height="56" viewBox="0 0 56 56" fill="none" xmlns="http://www.w3.org/2000/svg">
<path d="M1.7216 34.6761L1.76013 34.6858C2.25442 34.8227 2.7399 35.2042 3.18914 35.4571C6.22273 37.1656 9.37332 37.6835 12.7929 37.8504L14.9698 37.8655C15.4785 37.8639 16.2321 37.9473 16.7164 37.7556C16.8696 40.7572 17.3294 43.1819 18.5792 45.891L19.7198 48.1503L19.3201 48.2697C18.4003 48.4648 17.3708 48.4194 16.4335 48.4113C13.26 48.3838 10.2344 47.9807 7.26693 46.8531C5.49024 46.1779 3.60381 45.3854 2.21435 44.0404C2.0245 43.8568 1.82495 43.5194 1.61481 43.3913L1.5639 43.2915C0.889072 42.377 0.265281 41.456 0.0997966 40.3041C-0.182944 38.3356 0.555932 36.2576 1.7216 34.6761Z" fill="url(#paint0_linear_320_3111)"/>
<path d="M1.5637 43.2914L1.61461 43.3912C1.82475 43.5194 2.0243 43.8567 2.21416 44.0404C3.60362 45.3854 5.49004 46.1779 7.26674 46.8531C10.2342 47.9807 13.2598 48.3838 16.4333 48.4113C17.3706 48.4194 18.4002 48.4648 19.32 48.2697L19.7196 48.1503L19.7818 48.2886C20.3263 49.5433 22.8866 51.968 23.9311 52.8311L26.0391 54.4324C19.7563 56.7458 10.5082 56.5445 4.55544 53.523C2.59565 52.5282 0.416917 50.9856 0.112104 48.6111C-0.127001 46.7488 0.191976 44.6506 1.5637 43.2914Z" fill="url(#paint1_linear_320_3111)"/>
<path d="M1.70879 4.39325C5.24368 0.789355 13.3716 -0.285374 18.4239 0.0616427C21.8285 0.295483 28.9579 1.82261 30.9941 4.64372C32.767 6.69826 33.2971 10.0842 31.0948 12.0001L29.6473 12.9252C27.4602 14.1722 25.0693 14.7273 22.6174 15.1551C16.0895 16.2939 9.85556 16.1004 3.75802 13.0235L2.51056 12.3285C2.23012 12.1625 1.94419 11.9469 1.62611 11.8625L1.59051 11.8538C1.15249 11.5701 0.718047 10.9647 0.478177 10.4983C-0.568957 8.46224 0.221592 5.96867 1.70879 4.39325Z" fill="#B1E3F8"/>
<path d="M1.70879 4.39322C1.83025 4.78434 1.94394 5.1792 2.13532 5.54309C3.7339 8.58257 10.6877 9.92807 14.0555 10.1311C18.7205 10.4126 28.3632 9.6871 30.5944 5.3386C30.7059 5.12114 30.8072 4.80271 30.9941 4.64369C32.767 6.69823 33.2971 10.0841 31.0948 12.0001L29.6473 12.9252C27.4602 14.1721 25.0693 14.7273 22.6174 15.155C16.0895 16.2938 9.85556 16.1004 3.75802 13.0234L2.51056 12.3285C2.23012 12.1624 1.94419 11.9469 1.62611 11.8625L1.59051 11.8538C1.15249 11.57 0.718047 10.9646 0.478177 10.4983C-0.568957 8.46221 0.221592 5.96864 1.70879 4.39322Z" fill="#99BCF7"/>
<path d="M1.59063 11.8538L1.62622 11.8625C1.94431 11.9469 2.23024 12.1624 2.51068 12.3285L3.75813 13.0234C9.85568 16.1004 16.0896 16.2938 22.6175 15.155C25.0694 14.7273 27.4604 14.1721 29.6474 12.9251L31.0949 12.0001C31.3391 12.2306 31.501 12.4534 31.6049 12.7814C32.122 13.9394 33.1172 16.6484 31.4754 17.3295L29.6443 18.0631C28.7618 18.4463 27.9129 18.8769 27.0828 19.3648L23.1324 22.0873C22.8025 22.3082 22.3815 22.6418 21.9951 22.7384C21.1397 23.3702 20.7212 24.2963 20.0713 24.9863L19.3164 25.0091L19.9261 25.0273L19.8954 25.1644C19.866 25.3059 19.9296 25.4101 19.8265 25.5215C19.4612 25.5785 19.0829 25.5685 18.7148 25.5578L19.5936 25.5741L19.9912 25.5176L17.7329 30.4518C17.4204 31.2757 17.2392 32.2581 17.1006 33.1268C16.835 34.6043 16.6569 36.2423 16.7163 37.7519C16.232 37.9473 15.4785 37.8638 14.9698 37.8655L12.7928 37.8503C9.37326 37.6835 6.22267 37.1656 3.18908 35.4571C2.73983 35.2042 2.25435 34.8227 1.76007 34.6857L1.72153 34.6761C0.852898 33.7837 0.564416 33.3468 0.172331 32.2156L0.158551 32.1771C-0.263391 30.9044 0.337178 28.8178 0.928177 27.6888L1.42221 26.7657C0.141455 25.3346 -0.0699633 23.5354 0.829932 21.8236L1.54278 20.5648L1.82361 19.8055L1.75611 19.7645C0.237784 18.8157 -0.115641 16.8007 0.112746 15.1235C0.25973 14.0443 0.735516 13.2454 1.30891 12.3494L1.59063 11.8538Z" fill="#88ABF7"/>
<path d="M1.82343 19.8055L1.86617 19.8217C2.24945 19.9714 2.60441 20.199 2.97327 20.3829L4.69485 21.1365C9.79183 23.1252 15.1747 23.5802 20.5665 22.9116C21.0323 22.8538 21.5262 22.7412 21.995 22.7383C21.1395 23.3702 20.721 24.2963 20.0712 24.9863L19.3162 25.0091L19.926 25.0273L19.8952 25.1644C19.8659 25.3059 19.9294 25.4101 19.8263 25.5214C19.461 25.5785 19.0827 25.5685 18.7146 25.5578L19.5935 25.5741C18.8371 25.6616 17.9862 25.5917 17.2179 25.5905C12.7767 25.5834 7.93922 25.0665 3.94271 22.9776C3.0386 22.5051 1.95115 21.6709 1.63906 20.6466C1.6226 20.5927 1.58994 20.5916 1.5426 20.5647L1.82343 19.8055Z" fill="#B1E3F8"/>
<path d="M1.59056 11.8538L1.62616 11.8625C1.94424 11.9469 2.23017 12.1624 2.51061 12.3285L3.75806 13.0234C9.85561 16.1004 16.0895 16.2938 22.6175 15.155C25.0694 14.7273 27.4603 14.1721 29.6473 12.9251L31.0948 12.0001C31.339 12.2306 31.5009 12.4534 31.6048 12.7814C31.4245 12.9102 31.2655 13.3065 31.1281 13.4978C28.9387 16.5471 24.7236 17.2124 21.2593 17.6217L18.0356 17.9221L13.8206 17.9188C10.2104 17.7191 4.33452 16.9072 2.07055 13.7037C1.76344 13.2691 1.55139 12.8189 1.30884 12.3494L1.59056 11.8538Z" fill="#B1E3F8"/>
<path d="M1.54283 20.5648C1.59017 20.5916 1.62283 20.5928 1.63929 20.6466C1.95137 21.671 3.03883 22.5051 3.94293 22.9777C7.93945 25.0665 12.7769 25.5834 17.2181 25.5906C17.9864 25.5917 18.8373 25.6616 19.5937 25.5707L19.9913 25.5176L17.7329 30.4518C16.2833 30.4612 14.8016 30.5258 13.3563 30.4439C9.49733 30.2252 4.39971 29.1847 1.42226 26.7657C0.141504 25.3346 -0.0699137 23.5354 0.829982 21.8236L1.54283 20.5648Z" fill="#7294F7"/>
<path d="M1.42221 26.7657C4.39966 29.1847 9.49728 30.2252 13.3562 30.4439C14.8016 30.5258 16.2833 30.4612 17.7329 30.4599C17.4204 31.2757 17.2392 32.2581 17.1006 33.1268C16.835 34.6043 16.6569 36.2423 16.7163 37.752C16.232 37.9473 15.4785 37.8638 14.9698 37.8655L12.7928 37.8503C9.37326 37.6835 6.22267 37.1656 3.18908 35.4571C2.73983 35.2042 2.25435 34.8227 1.76007 34.6858L1.72153 34.6761C0.852898 33.7837 0.564416 33.3468 0.172331 32.2156L0.158551 32.1772C-0.26339 30.9044 0.337178 28.8178 0.928177 27.6888L1.42221 26.7657Z" fill="#7294F7"/>
<path d="M1.42213 26.7657C4.39958 29.1847 9.4972 30.2253 13.3562 30.4439C14.8015 30.5258 16.2832 30.4612 17.7328 30.4599C17.4203 31.2757 17.2391 32.2581 17.1006 33.1268L17.0868 33.071C16.8058 32.9865 16.4319 33.0289 16.1369 33.0276L14.321 32.9949C11.1779 32.8055 8.14423 32.4931 5.23326 31.2134C3.1312 30.2893 2.47322 29.5474 1.18622 27.7222L0.928101 27.6888L1.42213 26.7657Z" fill="#99BCF7"/>
<path d="M37.6724 18.7598L37.8617 18.7391C40.3983 18.7134 43.0378 19.4321 45.3411 20.47C52.3367 23.6218 56.5725 31.173 55.9371 38.8578C55.1152 48.801 47.0156 55.7109 37.2431 55.8055C26.8214 55.568 18.1681 46.6796 18.8733 36.0401C19.4252 27.7123 25.7754 20.6764 33.8529 19.1068C35.1212 18.8603 36.3839 18.7733 37.6724 18.7598Z" fill="url(#paint2_linear_320_3111)"/>
<path d="M36.5636 24.6489C37.3663 24.5978 38.2528 24.5647 39.0498 24.6568C43.9266 25.2206 48.1795 28.9795 49.511 33.7044C49.7072 34.4007 49.8038 35.0891 49.939 35.7955L49.981 36.0898C50.6861 43.2359 45.3535 49.1406 38.3368 49.7855C37.4847 49.8203 36.6224 49.8412 35.7732 49.7472C31.0232 49.2211 26.8015 45.5157 25.3885 40.9554C23.1995 33.8914 27.6709 26.1093 34.9243 24.813C35.4662 24.7163 36.0153 24.6854 36.5636 24.6489Z" fill="#B1E3F8"/>
<path d="M38.8671 26.757C39.0826 26.7312 39.3218 26.7265 39.5261 26.808L39.583 26.8321C40.4815 27.2076 40.4266 28.3122 40.4142 29.1324L40.7466 29.2539C43.7599 30.2428 45.2767 34.5044 42.5944 36.7374L42.5533 36.7707C42.7402 36.9552 42.9512 37.139 43.0935 37.3617L43.1268 37.4158C44.8392 40.125 43.5054 43.6892 40.5682 44.8491C40.6025 45.1384 40.5867 45.4976 40.5011 45.7775L40.4809 45.8401C40.1945 46.7562 39.0382 47.6273 38.2157 46.723C37.749 46.2098 37.8082 45.5536 37.8206 44.9123L36.6516 45.0103C36.6597 45.8471 36.4259 46.7162 35.6039 47.0881C34.1169 47.5624 33.9819 45.8893 33.9877 44.8921L33.4459 45.022C31.0149 45.4166 30.3591 42.5369 33.0674 42.3947L33.0669 31.8078C31.8332 31.8835 30.7135 31.1488 31.4535 29.8769C32.0949 28.7749 33.2762 29.3252 34.0367 29.1333L34.035 28.34C34.1077 27.6247 34.6223 26.7205 35.4624 26.8569L35.516 26.8666C36.6966 27.0663 36.7128 28.0954 36.6389 29.0723L37.8075 29.1702C37.6359 28.1622 37.7991 27.1157 38.8671 26.757Z" fill="white"/>
<path d="M35.5617 31.6574L38.5009 31.6496C38.9531 31.6498 39.5622 31.5771 39.9973 31.6892C41.5581 32.0912 41.8554 34.2104 40.8511 35.2987C40.6819 35.438 40.5262 35.5613 40.3284 35.6581L40.2733 35.6846C39.9797 35.8367 39.5787 35.8502 39.2537 35.8585L35.5467 35.8595C35.3667 35.5586 35.5144 32.0486 35.5617 31.6574Z" fill="#88ABF7"/>
<path d="M36.0409 38.2908L38.6551 38.293C39.8444 38.2982 40.9589 38.2538 41.3478 39.6956L41.3642 39.7588C41.616 40.6994 41.2526 41.5132 40.5099 42.1165C39.648 42.6639 36.5647 42.5559 35.4901 42.4591L35.4924 38.3257L36.0409 38.2908Z" fill="#7294F7"/>
<ellipse cx="37.5731" cy="36.926" rx="13.138" ry="13.2264" fill="url(#paint3_linear_320_3111)"/>
<path d="M37.7752 23.6996C35.1368 23.6996 32.5576 24.4872 30.3638 25.9629C28.17 27.4386 26.4602 29.5361 25.4505 31.9901C24.4408 34.4441 24.1767 37.1444 24.6914 39.7495C25.2061 42.3546 26.4766 44.7476 28.3423 46.6258C30.208 48.504 32.5849 49.7831 35.1727 50.3013C37.7604 50.8195 40.4427 50.5535 42.8803 49.537C45.3179 48.5206 47.4013 46.7992 48.8671 44.5907C50.333 42.3822 51.1154 39.7856 51.1154 37.1295C51.1116 33.5688 49.7049 30.155 47.204 27.6373C44.703 25.1195 41.3121 23.7033 37.7752 23.6996ZM37.7752 48.4932C35.5427 48.4932 33.3603 47.8267 31.504 46.5781C29.6478 45.3294 28.201 43.5546 27.3466 41.4782C26.4923 39.4017 26.2687 37.1168 26.7043 34.9125C27.1398 32.7081 28.2149 30.6833 29.7935 29.0941C31.3721 27.5048 33.3834 26.4225 35.5731 25.9841C37.7627 25.5456 40.0323 25.7706 42.0949 26.6307C44.1574 27.4908 45.9204 28.9473 47.1607 30.8161C48.401 32.6849 49.063 34.8819 49.063 37.1295C49.0596 40.1423 47.8693 43.0307 45.7532 45.161C43.637 47.2914 40.7679 48.4898 37.7752 48.4932ZM42.906 39.7121C42.906 40.6711 42.5276 41.5907 41.8541 42.2688C41.1805 42.9469 40.267 43.3279 39.3145 43.3279H38.8014V44.3609C38.8014 44.6349 38.6933 44.8977 38.5008 45.0914C38.3084 45.2851 38.0474 45.394 37.7752 45.394C37.5031 45.394 37.242 45.2851 37.0496 45.0914C36.8572 44.8977 36.749 44.6349 36.749 44.3609V43.3279H34.6967C34.4246 43.3279 34.1635 43.219 33.9711 43.0253C33.7787 42.8315 33.6705 42.5688 33.6705 42.2948C33.6705 42.0208 33.7787 41.758 33.9711 41.5643C34.1635 41.3706 34.4246 41.2617 34.6967 41.2617H39.3145C39.7227 41.2617 40.1142 41.0985 40.4029 40.8078C40.6915 40.5172 40.8537 40.1231 40.8537 39.7121C40.8537 39.3011 40.6915 38.907 40.4029 38.6164C40.1142 38.3258 39.7227 38.1625 39.3145 38.1625H36.236C35.2834 38.1625 34.3699 37.7816 33.6963 37.1035C33.0228 36.4254 32.6444 35.5057 32.6444 34.5468C32.6444 33.5878 33.0228 32.6682 33.6963 31.9901C34.3699 31.312 35.2834 30.9311 36.236 30.9311H36.749V29.898C36.749 29.624 36.8572 29.3612 37.0496 29.1675C37.242 28.9738 37.5031 28.8649 37.7752 28.8649C38.0474 28.8649 38.3084 28.9738 38.5008 29.1675C38.6933 29.3612 38.8014 29.624 38.8014 29.898V30.9311H40.8537C41.1259 30.9311 41.3869 31.0399 41.5793 31.2336C41.7718 31.4274 41.8799 31.6901 41.8799 31.9641C41.8799 32.2381 41.7718 32.5009 41.5793 32.6946C41.3869 32.8883 41.1259 32.9972 40.8537 32.9972H36.236C35.8277 32.9972 35.4362 33.1604 35.1475 33.4511C34.8589 33.7417 34.6967 34.1358 34.6967 34.5468C34.6967 34.9578 34.8589 35.3519 35.1475 35.6425C35.4362 35.9331 35.8277 36.0964 36.236 36.0964H39.3145C40.267 36.0964 41.1805 36.4773 41.8541 37.1554C42.5276 37.8335 42.906 38.7532 42.906 39.7121Z" fill="#030404"/>
<defs>
<linearGradient id="paint0_linear_320_3111" x1="8.41095" y1="47.231" x2="12.3205" y2="36.2898" gradientUnits="userSpaceOnUse">
<stop stop-color="#6181F7"/>
<stop offset="1" stop-color="#A3CEFB"/>
</linearGradient>
<linearGradient id="paint1_linear_320_3111" x1="11.6405" y1="55.713" x2="13.9568" y2="46.5258" gradientUnits="userSpaceOnUse">
<stop stop-color="#6282FA"/>
<stop offset="1" stop-color="#83ABFB"/>
</linearGradient>
<linearGradient id="paint2_linear_320_3111" x1="36.4753" y1="55.6815" x2="38.3421" y2="18.8042" gradientUnits="userSpaceOnUse">
<stop stop-color="#688CFB"/>
<stop offset="1" stop-color="#8EB3F9"/>
</linearGradient>
<linearGradient id="paint3_linear_320_3111" x1="37.5731" y1="23.6996" x2="37.5731" y2="50.1524" gradientUnits="userSpaceOnUse">
<stop stop-color="#B4EBF8"/>
<stop offset="1" stop-color="#789DFA"/>
</linearGradient>
</defs>
</svg>
