<svg width="1280" height="439" viewBox="0 0 1280 439" fill="none" xmlns="http://www.w3.org/2000/svg">
<g opacity="0.5" clip-path="url(#clip0_418_4629)">
<path fill-rule="evenodd" clip-rule="evenodd" d="M11.1007 -170.953H12.2696V-172.123H11.1007V-170.953ZM40.3246 -170.953H41.4936V-172.123H40.3246V-170.953ZM69.5486 -170.953H70.7175V-172.123H69.5486V-170.953ZM98.7725 -170.953H99.9415V-172.123H98.7725V-170.953ZM11.1007 -141.718H12.2696V-142.887H11.1007V-141.718ZM40.3246 -141.718H41.4936V-142.887H40.3246V-141.718ZM69.5486 -141.718H70.7175V-142.887H69.5486V-141.718ZM98.7725 -141.718H99.9415V-142.887H98.7725V-141.718ZM11.1007 -112.482H12.2696V-113.651H11.1007V-112.482ZM40.3246 -112.482H41.4936V-113.651H40.3246V-112.482ZM69.5486 -112.482H70.7175V-113.651H69.5486V-112.482ZM98.7725 -112.482H99.9415V-113.651H98.7725V-112.482ZM11.1007 -83.2459H12.2696V-84.4153H11.1007V-83.2459ZM40.3246 -83.2459H41.4936V-84.4153H40.3246V-83.2459ZM69.5486 -83.2459H70.7175V-84.4153H69.5486V-83.2459ZM98.7725 -83.2459H99.9415V-84.4153H98.7725V-83.2459ZM11.1007 -54.01H12.2696V-55.1794H11.1007V-54.01ZM40.3246 -54.01H41.4936V-55.1794H40.3246V-54.01ZM69.5486 -54.01H70.7175V-55.1794H69.5486V-54.01ZM98.7725 -54.01H99.9415V-55.1794H98.7725V-54.01ZM11.1007 -24.7741H12.2696V-25.9435H11.1007V-24.7741ZM40.3246 -24.7741H41.4936V-25.9435H40.3246V-24.7741ZM69.5486 -24.7741H70.7175V-25.9435H69.5486V-24.7741ZM98.7725 -24.7741H99.9415V-25.9435H98.7725V-24.7741ZM129.165 -142.887H127.996V-141.718H129.165V-142.887ZM127.996 -112.482H129.165V-113.651H127.996V-112.482ZM127.996 -83.2459H129.165V-84.4153H127.996V-83.2459ZM127.996 -54.01H129.165V-55.1794H127.996V-54.01ZM-16.9543 -142.887H-18.1233V-141.718H-16.9543V-142.887ZM-18.1233 -112.482H-16.9543V-113.651H-18.1233V-112.482ZM-18.1233 -83.2459H-16.9543V-84.4153H-18.1233V-83.2459ZM-18.1233 -54.01H-16.9543V-55.1794H-18.1233V-54.01ZM157.22 -170.953H158.389V-172.123H157.22V-170.953ZM186.444 -170.953H187.613V-172.123H186.444V-170.953ZM215.668 -170.953H216.837V-172.123H215.668V-170.953ZM244.892 -170.953H246.061V-172.123H244.892V-170.953ZM157.22 -141.718H158.389V-142.887H157.22V-141.718ZM186.444 -141.718H187.613V-142.887H186.444V-141.718ZM215.668 -141.718H216.837V-142.887H215.668V-141.718ZM244.892 -141.718H246.061V-142.887H244.892V-141.718ZM157.22 -112.482H158.389V-113.651H157.22V-112.482ZM186.444 -112.482H187.613V-113.651H186.444V-112.482ZM215.668 -112.482H216.837V-113.651H215.668V-112.482ZM244.892 -112.482H246.061V-113.651H244.892V-112.482ZM157.22 -83.2459H158.389V-84.4153H157.22V-83.2459ZM186.444 -83.2459H187.613V-84.4153H186.444V-83.2459ZM215.668 -83.2459H216.837V-84.4153H215.668V-83.2459ZM244.892 -83.2459H246.061V-84.4153H244.892V-83.2459ZM157.22 -54.01H158.389V-55.1794H157.22V-54.01ZM186.444 -54.01H187.613V-55.1794H186.444V-54.01ZM215.668 -54.01H216.837V-55.1794H215.668V-54.01ZM244.892 -54.01H246.061V-55.1794H244.892V-54.01ZM157.22 -24.7741H158.389V-25.9435H157.22V-24.7741ZM186.444 -24.7741H187.613V-25.9435H186.444V-24.7741ZM215.668 -24.7741H216.837V-25.9435H215.668V-24.7741ZM244.892 -24.7741H246.061V-25.9435H244.892V-24.7741ZM275.285 -142.887H274.116V-141.718H275.285V-142.887ZM274.116 -112.482H275.285V-113.651H274.116V-112.482ZM274.116 -83.2459H275.285V-84.4153H274.116V-83.2459ZM274.116 -54.01H275.285V-55.1794H274.116V-54.01ZM11.1007 4.46178H12.2696V3.29234H11.1007V4.46178ZM40.3246 4.46178H41.4936V3.29234H40.3246V4.46178ZM69.5486 4.46178H70.7175V3.29234H69.5486V4.46178ZM98.7725 4.46178H99.9415V3.29234H98.7725V4.46178ZM11.1007 33.6976H12.2696V32.5282H11.1007V33.6976ZM40.3246 33.6976H41.4936V32.5282H40.3246V33.6976ZM69.5486 33.6976H70.7175V32.5282H69.5486V33.6976ZM98.7725 33.6976H99.9415V32.5282H98.7725V33.6976ZM11.1007 62.9335H12.2696V61.7641H11.1007V62.9335ZM40.3246 62.9335H41.4936V61.7641H40.3246V62.9335ZM69.5486 62.9335H70.7175V61.7641H69.5486V62.9335ZM98.7725 62.9335H99.9415V61.7641H98.7725V62.9335ZM11.1007 92.1694H12.2696V91H11.1007V92.1694ZM40.3246 92.1694H41.4936V91H40.3246V92.1694ZM69.5486 92.1694H70.7175V91H69.5486V92.1694ZM98.7725 92.1694H99.9415V91H98.7725V92.1694ZM11.1007 121.405H12.2696V120.236H11.1007V121.405ZM40.3246 121.405H41.4936V120.236H40.3246V121.405ZM69.5486 121.405H70.7175V120.236H69.5486V121.405ZM98.7725 121.405H99.9415V120.236H98.7725V121.405ZM129.165 3.29234H127.996V4.46178H129.165V3.29234ZM127.996 33.6976H129.165V32.5282H127.996V33.6976ZM127.996 62.9335H129.165V61.7641H127.996V62.9335ZM127.996 92.1694H129.165V91H127.996V92.1694ZM-16.9543 3.29234H-18.1233V4.46178H-16.9543V3.29234ZM-18.1233 33.6976H-16.9543V32.5282H-18.1233V33.6976ZM-18.1233 62.9335H-16.9543V61.7641H-18.1233V62.9335ZM-18.1233 92.1694H-16.9543V91H-18.1233V92.1694ZM157.22 4.46178H158.389V3.29234H157.22V4.46178ZM186.444 4.46178H187.613V3.29234H186.444V4.46178ZM215.668 4.46178H216.837V3.29234H215.668V4.46178ZM244.892 4.46178H246.061V3.29234H244.892V4.46178ZM157.22 33.6976H158.389V32.5282H157.22V33.6976ZM186.444 33.6976H187.613V32.5282H186.444V33.6976ZM215.668 33.6976H216.837V32.5282H215.668V33.6976ZM244.892 33.6976H246.061V32.5282H244.892V33.6976ZM157.22 62.9335H158.389V61.7641H157.22V62.9335ZM186.444 62.9335H187.613V61.7641H186.444V62.9335ZM215.668 62.9335H216.837V61.7641H215.668V62.9335ZM244.892 62.9335H246.061V61.7641H244.892V62.9335ZM157.22 92.1694H158.389V91H157.22V92.1694ZM186.444 92.1694H187.613V91H186.444V92.1694ZM215.668 92.1694H216.837V91H215.668V92.1694ZM244.892 92.1694H246.061V91H244.892V92.1694ZM157.22 121.405H158.389V120.236H157.22V121.405ZM186.444 121.405H187.613V120.236H186.444V121.405ZM215.668 121.405H216.837V120.236H215.668V121.405ZM244.892 121.405H246.061V120.236H244.892V121.405ZM275.285 3.29234H274.116V4.46178H275.285V3.29234ZM274.116 33.6976H275.285V32.5282H274.116V33.6976ZM274.116 62.9335H275.285V61.7641H274.116V62.9335ZM274.116 92.1694H275.285V91H274.116V92.1694ZM303.34 -170.953H304.509V-172.123H303.34V-170.953ZM332.564 -170.953H333.733V-172.123H332.564V-170.953ZM361.788 -170.953H362.957V-172.123H361.788V-170.953ZM391.012 -170.953H392.181V-172.123H391.012V-170.953ZM303.34 -141.718H304.509V-142.887H303.34V-141.718ZM332.564 -141.718H333.733V-142.887H332.564V-141.718ZM361.788 -141.718H362.957V-142.887H361.788V-141.718ZM391.012 -141.718H392.181V-142.887H391.012V-141.718ZM303.34 -112.482H304.509V-113.651H303.34V-112.482ZM332.564 -112.482H333.733V-113.651H332.564V-112.482ZM361.788 -112.482H362.957V-113.651H361.788V-112.482ZM391.012 -112.482H392.181V-113.651H391.012V-112.482ZM303.34 -83.2459H304.509V-84.4153H303.34V-83.2459ZM332.564 -83.2459H333.733V-84.4153H332.564V-83.2459ZM361.788 -83.2459H362.957V-84.4153H361.788V-83.2459ZM391.012 -83.2459H392.181V-84.4153H391.012V-83.2459ZM303.34 -54.01H304.509V-55.1794H303.34V-54.01ZM332.564 -54.01H333.733V-55.1794H332.564V-54.01ZM361.788 -54.01H362.957V-55.1794H361.788V-54.01ZM391.012 -54.01H392.181V-55.1794H391.012V-54.01ZM303.34 -24.7741H304.509V-25.9435H303.34V-24.7741ZM332.564 -24.7741H333.733V-25.9435H332.564V-24.7741ZM361.788 -24.7741H362.957V-25.9435H361.788V-24.7741ZM391.012 -24.7741H392.181V-25.9435H391.012V-24.7741ZM421.405 -142.887H420.236V-141.718H421.405V-142.887ZM420.236 -112.482H421.405V-113.651H420.236V-112.482ZM420.236 -83.2459H421.405V-84.4153H420.236V-83.2459ZM420.236 -54.01H421.405V-55.1794H420.236V-54.01ZM449.46 -170.953H450.629V-172.123H449.46V-170.953ZM478.684 -170.953H479.853V-172.123H478.684V-170.953ZM507.908 -170.953H509.077V-172.123H507.908V-170.953ZM537.132 -170.953H538.301V-172.123H537.132V-170.953ZM449.46 -141.718H450.629V-142.887H449.46V-141.718ZM478.684 -141.718H479.853V-142.887H478.684V-141.718ZM507.908 -141.718H509.077V-142.887H507.908V-141.718ZM537.132 -141.718H538.301V-142.887H537.132V-141.718ZM449.46 -112.482H450.629V-113.651H449.46V-112.482ZM478.684 -112.482H479.853V-113.651H478.684V-112.482ZM507.908 -112.482H509.077V-113.651H507.908V-112.482ZM537.132 -112.482H538.301V-113.651H537.132V-112.482ZM449.46 -83.2459H450.629V-84.4153H449.46V-83.2459ZM478.684 -83.2459H479.853V-84.4153H478.684V-83.2459ZM507.908 -83.2459H509.077V-84.4153H507.908V-83.2459ZM537.132 -83.2459H538.301V-84.4153H537.132V-83.2459ZM449.46 -54.01H450.629V-55.1794H449.46V-54.01ZM478.684 -54.01H479.853V-55.1794H478.684V-54.01ZM507.908 -54.01H509.077V-55.1794H507.908V-54.01ZM537.132 -54.01H538.301V-55.1794H537.132V-54.01ZM449.46 -24.7741H450.629V-25.9435H449.46V-24.7741ZM478.684 -24.7741H479.853V-25.9435H478.684V-24.7741ZM507.908 -24.7741H509.077V-25.9435H507.908V-24.7741ZM537.132 -24.7741H538.301V-25.9435H537.132V-24.7741ZM567.525 -142.887H566.356V-141.718H567.525V-142.887ZM566.356 -112.482H567.525V-113.651H566.356V-112.482ZM566.356 -83.2459H567.525V-84.4153H566.356V-83.2459ZM566.356 -54.01H567.525V-55.1794H566.356V-54.01ZM303.34 4.46178H304.509V3.29234H303.34V4.46178ZM332.564 4.46178H333.733V3.29234H332.564V4.46178ZM361.788 4.46178H362.957V3.29234H361.788V4.46178ZM391.012 4.46178H392.181V3.29234H391.012V4.46178ZM303.34 33.6976H304.509V32.5282H303.34V33.6976ZM332.564 33.6976H333.733V32.5282H332.564V33.6976ZM361.788 33.6976H362.957V32.5282H361.788V33.6976ZM391.012 33.6976H392.181V32.5282H391.012V33.6976ZM303.34 62.9335H304.509V61.7641H303.34V62.9335ZM332.564 62.9335H333.733V61.7641H332.564V62.9335ZM361.788 62.9335H362.957V61.7641H361.788V62.9335ZM391.012 62.9335H392.181V61.7641H391.012V62.9335ZM303.34 92.1694H304.509V91H303.34V92.1694ZM332.564 92.1694H333.733V91H332.564V92.1694ZM361.788 92.1694H362.957V91H361.788V92.1694ZM391.012 92.1694H392.181V91H391.012V92.1694ZM303.34 121.405H304.509V120.236H303.34V121.405ZM332.564 121.405H333.733V120.236H332.564V121.405ZM361.788 121.405H362.957V120.236H361.788V121.405ZM391.012 121.405H392.181V120.236H391.012V121.405ZM421.405 3.29234H420.236V4.46178H421.405V3.29234ZM420.236 33.6976H421.405V32.5282H420.236V33.6976ZM420.236 62.9335H421.405V61.7641H420.236V62.9335ZM420.236 92.1694H421.405V91H420.236V92.1694ZM449.46 4.46178H450.629V3.29234H449.46V4.46178ZM478.684 4.46178H479.853V3.29234H478.684V4.46178ZM507.908 4.46178H509.077V3.29234H507.908V4.46178ZM537.132 4.46178H538.301V3.29234H537.132V4.46178ZM449.46 33.6976H450.629V32.5282H449.46V33.6976ZM478.684 33.6976H479.853V32.5282H478.684V33.6976ZM507.908 33.6976H509.077V32.5282H507.908V33.6976ZM537.132 33.6976H538.301V32.5282H537.132V33.6976ZM449.46 62.9335H450.629V61.7641H449.46V62.9335ZM478.684 62.9335H479.853V61.7641H478.684V62.9335ZM507.908 62.9335H509.077V61.7641H507.908V62.9335ZM537.132 62.9335H538.301V61.7641H537.132V62.9335ZM449.46 92.1694H450.629V91H449.46V92.1694ZM478.684 92.1694H479.853V91H478.684V92.1694ZM507.908 92.1694H509.077V91H507.908V92.1694ZM537.132 92.1694H538.301V91H537.132V92.1694ZM449.46 121.405H450.629V120.236H449.46V121.405ZM478.684 121.405H479.853V120.236H478.684V121.405ZM507.908 121.405H509.077V120.236H507.908V121.405ZM537.132 121.405H538.301V120.236H537.132V121.405ZM567.525 3.29234H566.356V4.46178H567.525V3.29234ZM566.356 33.6976H567.525V32.5282H566.356V33.6976ZM566.356 62.9335H567.525V61.7641H566.356V62.9335ZM566.356 92.1694H567.525V91H566.356V92.1694ZM11.1007 150.641H12.2696V149.472H11.1007V150.641ZM40.3246 150.641H41.4936V149.472H40.3246V150.641ZM69.5486 150.641H70.7175V149.472H69.5486V150.641ZM98.7725 150.641H99.9415V149.472H98.7725V150.641ZM11.1007 179.877H12.2696V178.708H11.1007V179.877ZM40.3246 179.877H41.4936V178.708H40.3246V179.877ZM69.5486 179.877H70.7175V178.708H69.5486V179.877ZM98.7725 179.877H99.9415V178.708H98.7725V179.877ZM11.1007 209.113H12.2696V207.943H11.1007V209.113ZM40.3246 209.113H41.4936V207.943H40.3246V209.113ZM69.5486 209.113H70.7175V207.943H69.5486V209.113ZM98.7725 209.113H99.9415V207.943H98.7725V209.113ZM11.1007 238.349H12.2696V237.179H11.1007V238.349ZM40.3246 238.349H41.4936V237.179H40.3246V238.349ZM69.5486 238.349H70.7175V237.179H69.5486V238.349ZM98.7725 238.349H99.9415V237.179H98.7725V238.349ZM11.1007 267.585H12.2696V266.415H11.1007V267.585ZM40.3246 267.585H41.4936V266.415H40.3246V267.585ZM69.5486 267.585H70.7175V266.415H69.5486V267.585ZM98.7725 267.585H99.9415V266.415H98.7725V267.585ZM129.165 149.472H127.996V150.641H129.165V149.472ZM127.996 179.877H129.165V178.708H127.996V179.877ZM127.996 209.113H129.165V207.943H127.996V209.113ZM127.996 238.349H129.165V237.179H127.996V238.349ZM-16.9543 149.472H-18.1233V150.641H-16.9543V149.472ZM-18.1233 179.877H-16.9543V178.708H-18.1233V179.877ZM-18.1233 209.113H-16.9543V207.943H-18.1233V209.113ZM-18.1233 238.349H-16.9543V237.179H-18.1233V238.349ZM157.22 150.641H158.389V149.472H157.22V150.641ZM186.444 150.641H187.613V149.472H186.444V150.641ZM215.668 150.641H216.837V149.472H215.668V150.641ZM244.892 150.641H246.061V149.472H244.892V150.641ZM157.22 179.877H158.389V178.708H157.22V179.877ZM186.444 179.877H187.613V178.708H186.444V179.877ZM215.668 179.877H216.837V178.708H215.668V179.877ZM244.892 179.877H246.061V178.708H244.892V179.877ZM157.22 209.113H158.389V207.943H157.22V209.113ZM186.444 209.113H187.613V207.943H186.444V209.113ZM215.668 209.113H216.837V207.943H215.668V209.113ZM244.892 209.113H246.061V207.943H244.892V209.113ZM157.22 238.349H158.389V237.179H157.22V238.349ZM186.444 238.349H187.613V237.179H186.444V238.349ZM215.668 238.349H216.837V237.179H215.668V238.349ZM244.892 238.349H246.061V237.179H244.892V238.349ZM157.22 267.585H158.389V266.415H157.22V267.585ZM186.444 267.585H187.613V266.415H186.444V267.585ZM215.668 267.585H216.837V266.415H215.668V267.585ZM244.892 267.585H246.061V266.415H244.892V267.585ZM275.285 149.472H274.116V150.641H275.285V149.472ZM274.116 179.877H275.285V178.708H274.116V179.877ZM274.116 209.113H275.285V207.943H274.116V209.113ZM274.116 238.349H275.285V237.179H274.116V238.349ZM11.1007 296.821H12.2696V295.651H11.1007V296.821ZM40.3246 296.821H41.4936V295.651H40.3246V296.821ZM69.5486 296.821H70.7175V295.651H69.5486V296.821ZM98.7725 296.821H99.9415V295.651H98.7725V296.821ZM11.1007 326.056H12.2696V324.887H11.1007V326.056ZM40.3246 326.056H41.4936V324.887H40.3246V326.056ZM69.5486 326.056H70.7175V324.887H69.5486V326.056ZM98.7725 326.056H99.9415V324.887H98.7725V326.056ZM11.1007 355.292H12.2696V354.123H11.1007V355.292ZM40.3246 355.292H41.4936V354.123H40.3246V355.292ZM69.5486 355.292H70.7175V354.123H69.5486V355.292ZM98.7725 355.292H99.9415V354.123H98.7725V355.292ZM11.1007 384.528H12.2696V383.359H11.1007V384.528ZM40.3246 384.528H41.4936V383.359H40.3246V384.528ZM69.5486 384.528H70.7175V383.359H69.5486V384.528ZM98.7725 384.528H99.9415V383.359H98.7725V384.528ZM11.1007 413.764H12.2696V412.595H11.1007V413.764ZM40.3246 413.764H41.4936V412.595H40.3246V413.764ZM69.5486 413.764H70.7175V412.595H69.5486V413.764ZM98.7725 413.764H99.9415V412.595H98.7725V413.764ZM129.165 295.651H127.996V296.821H129.165V295.651ZM127.996 326.056H129.165V324.887H127.996V326.056ZM127.996 355.292H129.165V354.123H127.996V355.292ZM127.996 384.528H129.165V383.359H127.996V384.528ZM-16.9543 295.651H-18.1233V296.821H-16.9543V295.651ZM-18.1233 326.056H-16.9543V324.887H-18.1233V326.056ZM-18.1233 355.292H-16.9543V354.123H-18.1233V355.292ZM-18.1233 384.528H-16.9543V383.359H-18.1233V384.528ZM157.22 296.821H158.389V295.651H157.22V296.821ZM186.444 296.821H187.613V295.651H186.444V296.821ZM215.668 296.821H216.837V295.651H215.668V296.821ZM244.892 296.821H246.061V295.651H244.892V296.821ZM157.22 326.056H158.389V324.887H157.22V326.056ZM186.444 326.056H187.613V324.887H186.444V326.056ZM215.668 326.056H216.837V324.887H215.668V326.056ZM244.892 326.056H246.061V324.887H244.892V326.056ZM157.22 355.292H158.389V354.123H157.22V355.292ZM186.444 355.292H187.613V354.123H186.444V355.292ZM215.668 355.292H216.837V354.123H215.668V355.292ZM244.892 355.292H246.061V354.123H244.892V355.292ZM157.22 384.528H158.389V383.359H157.22V384.528ZM186.444 384.528H187.613V383.359H186.444V384.528ZM215.668 384.528H216.837V383.359H215.668V384.528ZM244.892 384.528H246.061V383.359H244.892V384.528ZM157.22 413.764H158.389V412.595H157.22V413.764ZM186.444 413.764H187.613V412.595H186.444V413.764ZM215.668 413.764H216.837V412.595H215.668V413.764ZM244.892 413.764H246.061V412.595H244.892V413.764ZM275.285 295.651H274.116V296.821H275.285V295.651ZM274.116 326.056H275.285V324.887H274.116V326.056ZM274.116 355.292H275.285V354.123H274.116V355.292ZM274.116 384.528H275.285V383.359H274.116V384.528ZM303.34 150.641H304.509V149.472H303.34V150.641ZM332.564 150.641H333.733V149.472H332.564V150.641ZM361.788 150.641H362.957V149.472H361.788V150.641ZM391.012 150.641H392.181V149.472H391.012V150.641ZM303.34 179.877H304.509V178.708H303.34V179.877ZM332.564 179.877H333.733V178.708H332.564V179.877ZM361.788 179.877H362.957V178.708H361.788V179.877ZM391.012 179.877H392.181V178.708H391.012V179.877ZM303.34 209.113H304.509V207.943H303.34V209.113ZM332.564 209.113H333.733V207.943H332.564V209.113ZM361.788 209.113H362.957V207.943H361.788V209.113ZM391.012 209.113H392.181V207.943H391.012V209.113ZM303.34 238.349H304.509V237.179H303.34V238.349ZM332.564 238.349H333.733V237.179H332.564V238.349ZM361.788 238.349H362.957V237.179H361.788V238.349ZM391.012 238.349H392.181V237.179H391.012V238.349ZM303.34 267.585H304.509V266.415H303.34V267.585ZM332.564 267.585H333.733V266.415H332.564V267.585ZM361.788 267.585H362.957V266.415H361.788V267.585ZM391.012 267.585H392.181V266.415H391.012V267.585ZM421.405 149.472H420.236V150.641H421.405V149.472ZM420.236 179.877H421.405V178.708H420.236V179.877ZM420.236 209.113H421.405V207.943H420.236V209.113ZM420.236 238.349H421.405V237.179H420.236V238.349ZM449.46 150.641H450.629V149.472H449.46V150.641ZM478.684 150.641H479.853V149.472H478.684V150.641ZM507.908 150.641H509.077V149.472H507.908V150.641ZM537.132 150.641H538.301V149.472H537.132V150.641ZM449.46 179.877H450.629V178.708H449.46V179.877ZM478.684 179.877H479.853V178.708H478.684V179.877ZM507.908 179.877H509.077V178.708H507.908V179.877ZM537.132 179.877H538.301V178.708H537.132V179.877ZM449.46 209.113H450.629V207.943H449.46V209.113ZM478.684 209.113H479.853V207.943H478.684V209.113ZM507.908 209.113H509.077V207.943H507.908V209.113ZM537.132 209.113H538.301V207.943H537.132V209.113ZM449.46 238.349H450.629V237.179H449.46V238.349ZM478.684 238.349H479.853V237.179H478.684V238.349ZM507.908 238.349H509.077V237.179H507.908V238.349ZM537.132 238.349H538.301V237.179H537.132V238.349ZM449.46 267.585H450.629V266.415H449.46V267.585ZM478.684 267.585H479.853V266.415H478.684V267.585ZM507.908 267.585H509.077V266.415H507.908V267.585ZM537.132 267.585H538.301V266.415H537.132V267.585ZM567.525 149.472H566.356V150.641H567.525V149.472ZM566.356 179.877H567.525V178.708H566.356V179.877ZM566.356 209.113H567.525V207.943H566.356V209.113ZM566.356 238.349H567.525V237.179H566.356V238.349ZM303.34 296.821H304.509V295.651H303.34V296.821ZM332.564 296.821H333.733V295.651H332.564V296.821ZM361.788 296.821H362.957V295.651H361.788V296.821ZM391.012 296.821H392.181V295.651H391.012V296.821ZM303.34 326.056H304.509V324.887H303.34V326.056ZM332.564 326.056H333.733V324.887H332.564V326.056ZM361.788 326.056H362.957V324.887H361.788V326.056ZM391.012 326.056H392.181V324.887H391.012V326.056ZM303.34 355.292H304.509V354.123H303.34V355.292ZM332.564 355.292H333.733V354.123H332.564V355.292ZM361.788 355.292H362.957V354.123H361.788V355.292ZM391.012 355.292H392.181V354.123H391.012V355.292ZM303.34 384.528H304.509V383.359H303.34V384.528ZM332.564 384.528H333.733V383.359H332.564V384.528ZM361.788 384.528H362.957V383.359H361.788V384.528ZM391.012 384.528H392.181V383.359H391.012V384.528ZM303.34 413.764H304.509V412.595H303.34V413.764ZM332.564 413.764H333.733V412.595H332.564V413.764ZM361.788 413.764H362.957V412.595H361.788V413.764ZM391.012 413.764H392.181V412.595H391.012V413.764ZM421.405 295.651H420.236V296.821H421.405V295.651ZM420.236 326.056H421.405V324.887H420.236V326.056ZM420.236 355.292H421.405V354.123H420.236V355.292ZM420.236 384.528H421.405V383.359H420.236V384.528ZM449.46 296.821H450.629V295.651H449.46V296.821ZM478.684 296.821H479.853V295.651H478.684V296.821ZM507.908 296.821H509.077V295.651H507.908V296.821ZM537.132 296.821H538.301V295.651H537.132V296.821ZM449.46 326.056H450.629V324.887H449.46V326.056ZM478.684 326.056H479.853V324.887H478.684V326.056ZM507.908 326.056H509.077V324.887H507.908V326.056ZM537.132 326.056H538.301V324.887H537.132V326.056ZM449.46 355.292H450.629V354.123H449.46V355.292ZM478.684 355.292H479.853V354.123H478.684V355.292ZM507.908 355.292H509.077V354.123H507.908V355.292ZM537.132 355.292H538.301V354.123H537.132V355.292ZM449.46 384.528H450.629V383.359H449.46V384.528ZM478.684 384.528H479.853V383.359H478.684V384.528ZM507.908 384.528H509.077V383.359H507.908V384.528ZM537.132 384.528H538.301V383.359H537.132V384.528ZM449.46 413.764H450.629V412.595H449.46V413.764ZM478.684 413.764H479.853V412.595H478.684V413.764ZM507.908 413.764H509.077V412.595H507.908V413.764ZM537.132 413.764H538.301V412.595H537.132V413.764ZM567.525 295.651H566.356V296.821H567.525V295.651ZM566.356 326.056H567.525V324.887H566.356V326.056ZM566.356 355.292H567.525V354.123H566.356V355.292ZM566.356 384.528H567.525V383.359H566.356V384.528ZM11.1007 443H12.2696V441.831H11.1007V443ZM40.3246 443H41.4936V441.831H40.3246V443ZM69.5486 443H70.7175V441.831H69.5486V443ZM98.7725 443H99.9415V441.831H98.7725V443ZM11.1007 472.236H12.2696V471.066H11.1007V472.236ZM40.3246 472.236H41.4936V471.066H40.3246V472.236ZM69.5486 472.236H70.7175V471.066H69.5486V472.236ZM98.7725 472.236H99.9415V471.066H98.7725V472.236ZM11.1007 501.472H12.2696V500.302H11.1007V501.472ZM40.3246 501.472H41.4936V500.302H40.3246V501.472ZM69.5486 501.472H70.7175V500.302H69.5486V501.472ZM98.7725 501.472H99.9415V500.302H98.7725V501.472ZM11.1007 530.708H12.2696V529.538H11.1007V530.708ZM40.3246 530.708H41.4936V529.538H40.3246V530.708ZM69.5486 530.708H70.7175V529.538H69.5486V530.708ZM98.7725 530.708H99.9415V529.538H98.7725V530.708ZM11.1007 559.943H12.2696V558.774H11.1007V559.943ZM40.3246 559.943H41.4936V558.774H40.3246V559.943ZM69.5486 559.943H70.7175V558.774H69.5486V559.943ZM98.7725 559.943H99.9415V558.774H98.7725V559.943ZM129.165 441.831H127.996V443H129.165V441.831ZM127.996 472.236H129.165V471.066H127.996V472.236ZM127.996 501.472H129.165V500.302H127.996V501.472ZM127.996 530.708H129.165V529.538H127.996V530.708ZM-16.9543 441.831H-18.1233V443H-16.9543V441.831ZM-18.1233 472.236H-16.9543V471.066H-18.1233V472.236ZM-18.1233 501.472H-16.9543V500.302H-18.1233V501.472ZM-18.1233 530.708H-16.9543V529.538H-18.1233V530.708ZM157.22 443H158.389V441.831H157.22V443ZM186.444 443H187.613V441.831H186.444V443ZM215.668 443H216.837V441.831H215.668V443ZM244.892 443H246.061V441.831H244.892V443ZM157.22 472.236H158.389V471.066H157.22V472.236ZM186.444 472.236H187.613V471.066H186.444V472.236ZM215.668 472.236H216.837V471.066H215.668V472.236ZM244.892 472.236H246.061V471.066H244.892V472.236ZM157.22 501.472H158.389V500.302H157.22V501.472ZM186.444 501.472H187.613V500.302H186.444V501.472ZM215.668 501.472H216.837V500.302H215.668V501.472ZM244.892 501.472H246.061V500.302H244.892V501.472ZM157.22 530.708H158.389V529.538H157.22V530.708ZM186.444 530.708H187.613V529.538H186.444V530.708ZM215.668 530.708H216.837V529.538H215.668V530.708ZM244.892 530.708H246.061V529.538H244.892V530.708ZM157.22 559.943H158.389V558.774H157.22V559.943ZM186.444 559.943H187.613V558.774H186.444V559.943ZM215.668 559.943H216.837V558.774H215.668V559.943ZM244.892 559.943H246.061V558.774H244.892V559.943ZM275.285 441.831H274.116V443H275.285V441.831ZM274.116 472.236H275.285V471.066H274.116V472.236ZM274.116 501.472H275.285V500.302H274.116V501.472ZM274.116 530.708H275.285V529.538H274.116V530.708ZM11.1007 589.179H12.2696V588.01H11.1007V589.179ZM40.3246 589.179H41.4936V588.01H40.3246V589.179ZM69.5486 589.179H70.7175V588.01H69.5486V589.179ZM98.7725 589.179H99.9415V588.01H98.7725V589.179ZM11.1007 618.415H12.2696V617.246H11.1007V618.415ZM40.3246 618.415H41.4936V617.246H40.3246V618.415ZM69.5486 618.415H70.7175V617.246H69.5486V618.415ZM98.7725 618.415H99.9415V617.246H98.7725V618.415ZM11.1007 647.651H12.2696V646.482H11.1007V647.651ZM40.3246 647.651H41.4936V646.482H40.3246V647.651ZM69.5486 647.651H70.7175V646.482H69.5486V647.651ZM98.7725 647.651H99.9415V646.482H98.7725V647.651ZM129.165 588.01H127.996V589.179H129.165V588.01ZM127.996 618.415H129.165V617.246H127.996V618.415ZM127.996 647.651H129.165V646.482H127.996V647.651ZM-16.9543 588.01H-18.1233V589.179H-16.9543V588.01ZM-18.1233 618.415H-16.9543V617.246H-18.1233V618.415ZM-18.1233 647.651H-16.9543V646.482H-18.1233V647.651ZM157.22 589.179H158.389V588.01H157.22V589.179ZM186.444 589.179H187.613V588.01H186.444V589.179ZM215.668 589.179H216.837V588.01H215.668V589.179ZM244.892 589.179H246.061V588.01H244.892V589.179ZM157.22 618.415H158.389V617.246H157.22V618.415ZM186.444 618.415H187.613V617.246H186.444V618.415ZM215.668 618.415H216.837V617.246H215.668V618.415ZM244.892 618.415H246.061V617.246H244.892V618.415ZM157.22 647.651H158.389V646.482H157.22V647.651ZM186.444 647.651H187.613V646.482H186.444V647.651ZM215.668 647.651H216.837V646.482H215.668V647.651ZM244.892 647.651H246.061V646.482H244.892V647.651ZM275.285 588.01H274.116V589.179H275.285V588.01ZM274.116 618.415H275.285V617.246H274.116V618.415ZM274.116 647.651H275.285V646.482H274.116V647.651ZM303.34 443H304.509V441.831H303.34V443ZM332.564 443H333.733V441.831H332.564V443ZM361.788 443H362.957V441.831H361.788V443ZM391.012 443H392.181V441.831H391.012V443ZM303.34 472.236H304.509V471.066H303.34V472.236ZM332.564 472.236H333.733V471.066H332.564V472.236ZM361.788 472.236H362.957V471.066H361.788V472.236ZM391.012 472.236H392.181V471.066H391.012V472.236ZM303.34 501.472H304.509V500.302H303.34V501.472ZM332.564 501.472H333.733V500.302H332.564V501.472ZM361.788 501.472H362.957V500.302H361.788V501.472ZM391.012 501.472H392.181V500.302H391.012V501.472ZM303.34 530.708H304.509V529.538H303.34V530.708ZM332.564 530.708H333.733V529.538H332.564V530.708ZM361.788 530.708H362.957V529.538H361.788V530.708ZM391.012 530.708H392.181V529.538H391.012V530.708ZM303.34 559.943H304.509V558.774H303.34V559.943ZM332.564 559.943H333.733V558.774H332.564V559.943ZM361.788 559.943H362.957V558.774H361.788V559.943ZM391.012 559.943H392.181V558.774H391.012V559.943ZM421.405 441.831H420.236V443H421.405V441.831ZM420.236 472.236H421.405V471.066H420.236V472.236ZM420.236 501.472H421.405V500.302H420.236V501.472ZM420.236 530.708H421.405V529.538H420.236V530.708ZM449.46 443H450.629V441.831H449.46V443ZM478.684 443H479.853V441.831H478.684V443ZM507.908 443H509.077V441.831H507.908V443ZM537.132 443H538.301V441.831H537.132V443ZM449.46 472.236H450.629V471.066H449.46V472.236ZM478.684 472.236H479.853V471.066H478.684V472.236ZM507.908 472.236H509.077V471.066H507.908V472.236ZM537.132 472.236H538.301V471.066H537.132V472.236ZM449.46 501.472H450.629V500.302H449.46V501.472ZM478.684 501.472H479.853V500.302H478.684V501.472ZM507.908 501.472H509.077V500.302H507.908V501.472ZM537.132 501.472H538.301V500.302H537.132V501.472ZM449.46 530.708H450.629V529.538H449.46V530.708ZM478.684 530.708H479.853V529.538H478.684V530.708ZM507.908 530.708H509.077V529.538H507.908V530.708ZM537.132 530.708H538.301V529.538H537.132V530.708ZM449.46 559.943H450.629V558.774H449.46V559.943ZM478.684 559.943H479.853V558.774H478.684V559.943ZM507.908 559.943H509.077V558.774H507.908V559.943ZM537.132 559.943H538.301V558.774H537.132V559.943ZM567.525 441.831H566.356V443H567.525V441.831ZM566.356 472.236H567.525V471.066H566.356V472.236ZM566.356 501.472H567.525V500.302H566.356V501.472ZM566.356 530.708H567.525V529.538H566.356V530.708ZM303.34 589.179H304.509V588.01H303.34V589.179ZM332.564 589.179H333.733V588.01H332.564V589.179ZM361.788 589.179H362.957V588.01H361.788V589.179ZM391.012 589.179H392.181V588.01H391.012V589.179ZM303.34 618.415H304.509V617.246H303.34V618.415ZM332.564 618.415H333.733V617.246H332.564V618.415ZM361.788 618.415H362.957V617.246H361.788V618.415ZM391.012 618.415H392.181V617.246H391.012V618.415ZM303.34 647.651H304.509V646.482H303.34V647.651ZM332.564 647.651H333.733V646.482H332.564V647.651ZM361.788 647.651H362.957V646.482H361.788V647.651ZM391.012 647.651H392.181V646.482H391.012V647.651ZM421.405 588.01H420.236V589.179H421.405V588.01ZM420.236 618.415H421.405V617.246H420.236V618.415ZM420.236 647.651H421.405V646.482H420.236V647.651ZM449.46 589.179H450.629V588.01H449.46V589.179ZM478.684 589.179H479.853V588.01H478.684V589.179ZM507.908 589.179H509.077V588.01H507.908V589.179ZM537.132 589.179H538.301V588.01H537.132V589.179ZM449.46 618.415H450.629V617.246H449.46V618.415ZM478.684 618.415H479.853V617.246H478.684V618.415ZM507.908 618.415H509.077V617.246H507.908V618.415ZM537.132 618.415H538.301V617.246H537.132V618.415ZM449.46 647.651H450.629V646.482H449.46V647.651ZM478.684 647.651H479.853V646.482H478.684V647.651ZM507.908 647.651H509.077V646.482H507.908V647.651ZM537.132 647.651H538.301V646.482H537.132V647.651ZM567.525 588.01H566.356V589.179H567.525V588.01ZM566.356 618.415H567.525V617.246H566.356V618.415ZM566.356 647.651H567.525V646.482H566.356V647.651ZM595.58 -170.953H596.749V-172.123H595.58V-170.953ZM624.804 -170.953H625.973V-172.123H624.804V-170.953ZM654.027 -170.953H655.196V-172.123H654.027V-170.953ZM683.251 -170.953H684.42V-172.123H683.251V-170.953ZM595.58 -141.718H596.749V-142.887H595.58V-141.718ZM624.804 -141.718H625.973V-142.887H624.804V-141.718ZM654.027 -141.718H655.196V-142.887H654.027V-141.718ZM683.251 -141.718H684.42V-142.887H683.251V-141.718ZM595.58 -112.482H596.749V-113.651H595.58V-112.482ZM624.804 -112.482H625.973V-113.651H624.804V-112.482ZM654.027 -112.482H655.196V-113.651H654.027V-112.482ZM683.251 -112.482H684.42V-113.651H683.251V-112.482ZM595.58 -83.2459H596.749V-84.4153H595.58V-83.2459ZM624.804 -83.2459H625.973V-84.4153H624.804V-83.2459ZM654.027 -83.2459H655.196V-84.4153H654.027V-83.2459ZM683.251 -83.2459H684.42V-84.4153H683.251V-83.2459ZM595.58 -54.01H596.749V-55.1794H595.58V-54.01ZM624.804 -54.01H625.973V-55.1794H624.804V-54.01ZM654.027 -54.01H655.196V-55.1794H654.027V-54.01ZM683.251 -54.01H684.42V-55.1794H683.251V-54.01ZM595.58 -24.7741H596.749V-25.9435H595.58V-24.7741ZM624.804 -24.7741H625.973V-25.9435H624.804V-24.7741ZM654.027 -24.7741H655.196V-25.9435H654.027V-24.7741ZM683.251 -24.7741H684.42V-25.9435H683.251V-24.7741ZM713.644 -142.887H712.475V-141.718H713.644V-142.887ZM712.475 -112.482H713.644V-113.651H712.475V-112.482ZM712.475 -83.2459H713.644V-84.4153H712.475V-83.2459ZM712.475 -54.01H713.644V-55.1794H712.475V-54.01ZM741.699 -170.953H742.868V-172.123H741.699V-170.953ZM770.923 -170.953H772.092V-172.123H770.923V-170.953ZM800.147 -170.953H801.316V-172.123H800.147V-170.953ZM829.371 -170.953H830.54V-172.123H829.371V-170.953ZM741.699 -141.718H742.868V-142.887H741.699V-141.718ZM770.923 -141.718H772.092V-142.887H770.923V-141.718ZM800.147 -141.718H801.316V-142.887H800.147V-141.718ZM829.371 -141.718H830.54V-142.887H829.371V-141.718ZM741.699 -112.482H742.868V-113.651H741.699V-112.482ZM770.923 -112.482H772.092V-113.651H770.923V-112.482ZM800.147 -112.482H801.316V-113.651H800.147V-112.482ZM829.371 -112.482H830.54V-113.651H829.371V-112.482ZM741.699 -83.2459H742.868V-84.4153H741.699V-83.2459ZM770.923 -83.2459H772.092V-84.4153H770.923V-83.2459ZM800.147 -83.2459H801.316V-84.4153H800.147V-83.2459ZM829.371 -83.2459H830.54V-84.4153H829.371V-83.2459ZM741.699 -54.01H742.868V-55.1794H741.699V-54.01ZM770.923 -54.01H772.092V-55.1794H770.923V-54.01ZM800.147 -54.01H801.316V-55.1794H800.147V-54.01ZM829.371 -54.01H830.54V-55.1794H829.371V-54.01ZM741.699 -24.7741H742.868V-25.9435H741.699V-24.7741ZM770.923 -24.7741H772.092V-25.9435H770.923V-24.7741ZM800.147 -24.7741H801.316V-25.9435H800.147V-24.7741ZM829.371 -24.7741H830.54V-25.9435H829.371V-24.7741ZM859.764 -142.887H858.595V-141.718H859.764V-142.887ZM858.595 -112.482H859.764V-113.651H858.595V-112.482ZM858.595 -83.2459H859.764V-84.4153H858.595V-83.2459ZM858.595 -54.01H859.764V-55.1794H858.595V-54.01ZM595.58 4.46178H596.749V3.29234H595.58V4.46178ZM624.804 4.46178H625.973V3.29234H624.804V4.46178ZM654.027 4.46178H655.196V3.29234H654.027V4.46178ZM683.251 4.46178H684.42V3.29234H683.251V4.46178ZM595.58 33.6976H596.749V32.5282H595.58V33.6976ZM624.804 33.6976H625.973V32.5282H624.804V33.6976ZM654.027 33.6976H655.196V32.5282H654.027V33.6976ZM683.251 33.6976H684.42V32.5282H683.251V33.6976ZM595.58 62.9335H596.749V61.7641H595.58V62.9335ZM624.804 62.9335H625.973V61.7641H624.804V62.9335ZM654.027 62.9335H655.196V61.7641H654.027V62.9335ZM683.251 62.9335H684.42V61.7641H683.251V62.9335ZM595.58 92.1694H596.749V91H595.58V92.1694ZM624.804 92.1694H625.973V91H624.804V92.1694ZM654.027 92.1694H655.196V91H654.027V92.1694ZM683.251 92.1694H684.42V91H683.251V92.1694ZM595.58 121.405H596.749V120.236H595.58V121.405ZM624.804 121.405H625.973V120.236H624.804V121.405ZM654.027 121.405H655.196V120.236H654.027V121.405ZM683.251 121.405H684.42V120.236H683.251V121.405ZM713.644 3.29234H712.475V4.46178H713.644V3.29234ZM712.475 33.6976H713.644V32.5282H712.475V33.6976ZM712.475 62.9335H713.644V61.7641H712.475V62.9335ZM712.475 92.1694H713.644V91H712.475V92.1694ZM741.699 4.46178H742.868V3.29234H741.699V4.46178ZM770.923 4.46178H772.092V3.29234H770.923V4.46178ZM800.147 4.46178H801.316V3.29234H800.147V4.46178ZM829.371 4.46178H830.54V3.29234H829.371V4.46178ZM741.699 33.6976H742.868V32.5282H741.699V33.6976ZM770.923 33.6976H772.092V32.5282H770.923V33.6976ZM800.147 33.6976H801.316V32.5282H800.147V33.6976ZM829.371 33.6976H830.54V32.5282H829.371V33.6976ZM741.699 62.9335H742.868V61.7641H741.699V62.9335ZM770.923 62.9335H772.092V61.7641H770.923V62.9335ZM800.147 62.9335H801.316V61.7641H800.147V62.9335ZM829.371 62.9335H830.54V61.7641H829.371V62.9335ZM741.699 92.1694H742.868V91H741.699V92.1694ZM770.923 92.1694H772.092V91H770.923V92.1694ZM800.147 92.1694H801.316V91H800.147V92.1694ZM829.371 92.1694H830.54V91H829.371V92.1694ZM741.699 121.405H742.868V120.236H741.699V121.405ZM770.923 121.405H772.092V120.236H770.923V121.405ZM800.147 121.405H801.316V120.236H800.147V121.405ZM829.371 121.405H830.54V120.236H829.371V121.405ZM859.764 3.29234H858.595V4.46178H859.764V3.29234ZM858.595 33.6976H859.764V32.5282H858.595V33.6976ZM858.595 62.9335H859.764V61.7641H858.595V62.9335ZM858.595 92.1694H859.764V91H858.595V92.1694ZM887.819 -170.953H888.988V-172.123H887.819V-170.953ZM917.043 -170.953H918.212V-172.123H917.043V-170.953ZM946.267 -170.953H947.436V-172.123H946.267V-170.953ZM975.491 -170.953H976.66V-172.123H975.491V-170.953ZM887.819 -141.718H888.988V-142.887H887.819V-141.718ZM917.043 -141.718H918.212V-142.887H917.043V-141.718ZM946.267 -141.718H947.436V-142.887H946.267V-141.718ZM975.491 -141.718H976.66V-142.887H975.491V-141.718ZM887.819 -112.482H888.988V-113.651H887.819V-112.482ZM917.043 -112.482H918.212V-113.651H917.043V-112.482ZM946.267 -112.482H947.436V-113.651H946.267V-112.482ZM975.491 -112.482H976.66V-113.651H975.491V-112.482ZM887.819 -83.2459H888.988V-84.4153H887.819V-83.2459ZM917.043 -83.2459H918.212V-84.4153H917.043V-83.2459ZM946.267 -83.2459H947.436V-84.4153H946.267V-83.2459ZM975.491 -83.2459H976.66V-84.4153H975.491V-83.2459ZM887.819 -54.01H888.988V-55.1794H887.819V-54.01ZM917.043 -54.01H918.212V-55.1794H917.043V-54.01ZM946.267 -54.01H947.436V-55.1794H946.267V-54.01ZM975.491 -54.01H976.66V-55.1794H975.491V-54.01ZM887.819 -24.7741H888.988V-25.9435H887.819V-24.7741ZM917.043 -24.7741H918.212V-25.9435H917.043V-24.7741ZM946.267 -24.7741H947.436V-25.9435H946.267V-24.7741ZM975.491 -24.7741H976.66V-25.9435H975.491V-24.7741ZM1005.88 -142.887H1004.71V-141.718H1005.88V-142.887ZM1004.71 -112.482H1005.88V-113.651H1004.71V-112.482ZM1004.71 -83.2459H1005.88V-84.4153H1004.71V-83.2459ZM1004.71 -54.01H1005.88V-55.1794H1004.71V-54.01ZM1033.94 -170.953H1035.11V-172.123H1033.94V-170.953ZM1063.16 -170.953H1064.33V-172.123H1063.16V-170.953ZM1092.39 -170.953H1093.56V-172.123H1092.39V-170.953ZM1121.61 -170.953H1122.78V-172.123H1121.61V-170.953ZM1033.94 -141.718H1035.11V-142.887H1033.94V-141.718ZM1063.16 -141.718H1064.33V-142.887H1063.16V-141.718ZM1092.39 -141.718H1093.56V-142.887H1092.39V-141.718ZM1121.61 -141.718H1122.78V-142.887H1121.61V-141.718ZM1033.94 -112.482H1035.11V-113.651H1033.94V-112.482ZM1063.16 -112.482H1064.33V-113.651H1063.16V-112.482ZM1092.39 -112.482H1093.56V-113.651H1092.39V-112.482ZM1121.61 -112.482H1122.78V-113.651H1121.61V-112.482ZM1033.94 -83.2459H1035.11V-84.4153H1033.94V-83.2459ZM1063.16 -83.2459H1064.33V-84.4153H1063.16V-83.2459ZM1092.39 -83.2459H1093.56V-84.4153H1092.39V-83.2459ZM1121.61 -83.2459H1122.78V-84.4153H1121.61V-83.2459ZM1033.94 -54.01H1035.11V-55.1794H1033.94V-54.01ZM1063.16 -54.01H1064.33V-55.1794H1063.16V-54.01ZM1092.39 -54.01H1093.56V-55.1794H1092.39V-54.01ZM1121.61 -54.01H1122.78V-55.1794H1121.61V-54.01ZM1033.94 -24.7741H1035.11V-25.9435H1033.94V-24.7741ZM1063.16 -24.7741H1064.33V-25.9435H1063.16V-24.7741ZM1092.39 -24.7741H1093.56V-25.9435H1092.39V-24.7741ZM1121.61 -24.7741H1122.78V-25.9435H1121.61V-24.7741ZM1152 -142.887H1150.83V-141.718H1152V-142.887ZM1150.83 -112.482H1152V-113.651H1150.83V-112.482ZM1150.83 -83.2459H1152V-84.4153H1150.83V-83.2459ZM1150.83 -54.01H1152V-55.1794H1150.83V-54.01ZM887.819 4.46178H888.988V3.29234H887.819V4.46178ZM917.043 4.46178H918.212V3.29234H917.043V4.46178ZM946.267 4.46178H947.436V3.29234H946.267V4.46178ZM975.491 4.46178H976.66V3.29234H975.491V4.46178ZM887.819 33.6976H888.988V32.5282H887.819V33.6976ZM917.043 33.6976H918.212V32.5282H917.043V33.6976ZM946.267 33.6976H947.436V32.5282H946.267V33.6976ZM975.491 33.6976H976.66V32.5282H975.491V33.6976ZM887.819 62.9335H888.988V61.7641H887.819V62.9335ZM917.043 62.9335H918.212V61.7641H917.043V62.9335ZM946.267 62.9335H947.436V61.7641H946.267V62.9335ZM975.491 62.9335H976.66V61.7641H975.491V62.9335ZM887.819 92.1694H888.988V91H887.819V92.1694ZM917.043 92.1694H918.212V91H917.043V92.1694ZM946.267 92.1694H947.436V91H946.267V92.1694ZM975.491 92.1694H976.66V91H975.491V92.1694ZM887.819 121.405H888.988V120.236H887.819V121.405ZM917.043 121.405H918.212V120.236H917.043V121.405ZM946.267 121.405H947.436V120.236H946.267V121.405ZM975.491 121.405H976.66V120.236H975.491V121.405ZM1005.88 3.29234H1004.71V4.46178H1005.88V3.29234ZM1004.71 33.6976H1005.88V32.5282H1004.71V33.6976ZM1004.71 62.9335H1005.88V61.7641H1004.71V62.9335ZM1004.71 92.1694H1005.88V91H1004.71V92.1694ZM1033.94 4.46178H1035.11V3.29234H1033.94V4.46178ZM1063.16 4.46178H1064.33V3.29234H1063.16V4.46178ZM1092.39 4.46178H1093.56V3.29234H1092.39V4.46178ZM1121.61 4.46178H1122.78V3.29234H1121.61V4.46178ZM1033.94 33.6976H1035.11V32.5282H1033.94V33.6976ZM1063.16 33.6976H1064.33V32.5282H1063.16V33.6976ZM1092.39 33.6976H1093.56V32.5282H1092.39V33.6976ZM1121.61 33.6976H1122.78V32.5282H1121.61V33.6976ZM1033.94 62.9335H1035.11V61.7641H1033.94V62.9335ZM1063.16 62.9335H1064.33V61.7641H1063.16V62.9335ZM1092.39 62.9335H1093.56V61.7641H1092.39V62.9335ZM1121.61 62.9335H1122.78V61.7641H1121.61V62.9335ZM1033.94 92.1694H1035.11V91H1033.94V92.1694ZM1063.16 92.1694H1064.33V91H1063.16V92.1694ZM1092.39 92.1694H1093.56V91H1092.39V92.1694ZM1121.61 92.1694H1122.78V91H1121.61V92.1694ZM1033.94 121.405H1035.11V120.236H1033.94V121.405ZM1063.16 121.405H1064.33V120.236H1063.16V121.405ZM1092.39 121.405H1093.56V120.236H1092.39V121.405ZM1121.61 121.405H1122.78V120.236H1121.61V121.405ZM1152 3.29234H1150.83V4.46178H1152V3.29234ZM1150.83 33.6976H1152V32.5282H1150.83V33.6976ZM1150.83 62.9335H1152V61.7641H1150.83V62.9335ZM1150.83 92.1694H1152V91H1150.83V92.1694ZM595.58 150.641H596.749V149.472H595.58V150.641ZM624.804 150.641H625.973V149.472H624.804V150.641ZM654.027 150.641H655.196V149.472H654.027V150.641ZM683.251 150.641H684.42V149.472H683.251V150.641ZM595.58 179.877H596.749V178.708H595.58V179.877ZM624.804 179.877H625.973V178.708H624.804V179.877ZM654.027 179.877H655.196V178.708H654.027V179.877ZM683.251 179.877H684.42V178.708H683.251V179.877ZM595.58 209.113H596.749V207.943H595.58V209.113ZM624.804 209.113H625.973V207.943H624.804V209.113ZM654.027 209.113H655.196V207.943H654.027V209.113ZM683.251 209.113H684.42V207.943H683.251V209.113ZM595.58 238.349H596.749V237.179H595.58V238.349ZM624.804 238.349H625.973V237.179H624.804V238.349ZM654.027 238.349H655.196V237.179H654.027V238.349ZM683.251 238.349H684.42V237.179H683.251V238.349ZM595.58 267.585H596.749V266.415H595.58V267.585ZM624.804 267.585H625.973V266.415H624.804V267.585ZM654.027 267.585H655.196V266.415H654.027V267.585ZM683.251 267.585H684.42V266.415H683.251V267.585ZM713.644 149.472H712.475V150.641H713.644V149.472ZM712.475 179.877H713.644V178.708H712.475V179.877ZM712.475 209.113H713.644V207.943H712.475V209.113ZM712.475 238.349H713.644V237.179H712.475V238.349ZM741.699 150.641H742.868V149.472H741.699V150.641ZM770.923 150.641H772.092V149.472H770.923V150.641ZM800.147 150.641H801.316V149.472H800.147V150.641ZM829.371 150.641H830.54V149.472H829.371V150.641ZM741.699 179.877H742.868V178.708H741.699V179.877ZM770.923 179.877H772.092V178.708H770.923V179.877ZM800.147 179.877H801.316V178.708H800.147V179.877ZM829.371 179.877H830.54V178.708H829.371V179.877ZM741.699 209.113H742.868V207.943H741.699V209.113ZM770.923 209.113H772.092V207.943H770.923V209.113ZM800.147 209.113H801.316V207.943H800.147V209.113ZM829.371 209.113H830.54V207.943H829.371V209.113ZM741.699 238.349H742.868V237.179H741.699V238.349ZM770.923 238.349H772.092V237.179H770.923V238.349ZM800.147 238.349H801.316V237.179H800.147V238.349ZM829.371 238.349H830.54V237.179H829.371V238.349ZM741.699 267.585H742.868V266.415H741.699V267.585ZM770.923 267.585H772.092V266.415H770.923V267.585ZM800.147 267.585H801.316V266.415H800.147V267.585ZM829.371 267.585H830.54V266.415H829.371V267.585ZM859.764 149.472H858.595V150.641H859.764V149.472ZM858.595 179.877H859.764V178.708H858.595V179.877ZM858.595 209.113H859.764V207.943H858.595V209.113ZM858.595 238.349H859.764V237.179H858.595V238.349ZM595.58 296.821H596.749V295.651H595.58V296.821ZM624.804 296.821H625.973V295.651H624.804V296.821ZM654.027 296.821H655.196V295.651H654.027V296.821ZM683.251 296.821H684.42V295.651H683.251V296.821ZM595.58 326.056H596.749V324.887H595.58V326.056ZM624.804 326.056H625.973V324.887H624.804V326.056ZM654.027 326.056H655.196V324.887H654.027V326.056ZM683.251 326.056H684.42V324.887H683.251V326.056ZM595.58 355.292H596.749V354.123H595.58V355.292ZM624.804 355.292H625.973V354.123H624.804V355.292ZM654.027 355.292H655.196V354.123H654.027V355.292ZM683.251 355.292H684.42V354.123H683.251V355.292ZM595.58 384.528H596.749V383.359H595.58V384.528ZM624.804 384.528H625.973V383.359H624.804V384.528ZM654.027 384.528H655.196V383.359H654.027V384.528ZM683.251 384.528H684.42V383.359H683.251V384.528ZM595.58 413.764H596.749V412.595H595.58V413.764ZM624.804 413.764H625.973V412.595H624.804V413.764ZM654.027 413.764H655.196V412.595H654.027V413.764ZM683.251 413.764H684.42V412.595H683.251V413.764ZM713.644 295.651H712.475V296.821H713.644V295.651ZM712.475 326.056H713.644V324.887H712.475V326.056ZM712.475 355.292H713.644V354.123H712.475V355.292ZM712.475 384.528H713.644V383.359H712.475V384.528ZM741.699 296.821H742.868V295.651H741.699V296.821ZM770.923 296.821H772.092V295.651H770.923V296.821ZM800.147 296.821H801.316V295.651H800.147V296.821ZM829.371 296.821H830.54V295.651H829.371V296.821ZM741.699 326.056H742.868V324.887H741.699V326.056ZM770.923 326.056H772.092V324.887H770.923V326.056ZM800.147 326.056H801.316V324.887H800.147V326.056ZM829.371 326.056H830.54V324.887H829.371V326.056ZM741.699 355.292H742.868V354.123H741.699V355.292ZM770.923 355.292H772.092V354.123H770.923V355.292ZM800.147 355.292H801.316V354.123H800.147V355.292ZM829.371 355.292H830.54V354.123H829.371V355.292ZM741.699 384.528H742.868V383.359H741.699V384.528ZM770.923 384.528H772.092V383.359H770.923V384.528ZM800.147 384.528H801.316V383.359H800.147V384.528ZM829.371 384.528H830.54V383.359H829.371V384.528ZM741.699 413.764H742.868V412.595H741.699V413.764ZM770.923 413.764H772.092V412.595H770.923V413.764ZM800.147 413.764H801.316V412.595H800.147V413.764ZM829.371 413.764H830.54V412.595H829.371V413.764ZM859.764 295.651H858.595V296.821H859.764V295.651ZM858.595 326.056H859.764V324.887H858.595V326.056ZM858.595 355.292H859.764V354.123H858.595V355.292ZM858.595 384.528H859.764V383.359H858.595V384.528ZM887.819 150.641H888.988V149.472H887.819V150.641ZM917.043 150.641H918.212V149.472H917.043V150.641ZM946.267 150.641H947.436V149.472H946.267V150.641ZM975.491 150.641H976.66V149.472H975.491V150.641ZM887.819 179.877H888.988V178.708H887.819V179.877ZM917.043 179.877H918.212V178.708H917.043V179.877ZM946.267 179.877H947.436V178.708H946.267V179.877ZM975.491 179.877H976.66V178.708H975.491V179.877ZM887.819 209.113H888.988V207.943H887.819V209.113ZM917.043 209.113H918.212V207.943H917.043V209.113ZM946.267 209.113H947.436V207.943H946.267V209.113ZM975.491 209.113H976.66V207.943H975.491V209.113ZM887.819 238.349H888.988V237.179H887.819V238.349ZM917.043 238.349H918.212V237.179H917.043V238.349ZM946.267 238.349H947.436V237.179H946.267V238.349ZM975.491 238.349H976.66V237.179H975.491V238.349ZM887.819 267.585H888.988V266.415H887.819V267.585ZM917.043 267.585H918.212V266.415H917.043V267.585ZM946.267 267.585H947.436V266.415H946.267V267.585ZM975.491 267.585H976.66V266.415H975.491V267.585ZM1005.88 149.472H1004.71V150.641H1005.88V149.472ZM1004.71 179.877H1005.88V178.708H1004.71V179.877ZM1004.71 209.113H1005.88V207.943H1004.71V209.113ZM1004.71 238.349H1005.88V237.179H1004.71V238.349ZM1033.94 150.641H1035.11V149.472H1033.94V150.641ZM1063.16 150.641H1064.33V149.472H1063.16V150.641ZM1092.39 150.641H1093.56V149.472H1092.39V150.641ZM1121.61 150.641H1122.78V149.472H1121.61V150.641ZM1033.94 179.877H1035.11V178.708H1033.94V179.877ZM1063.16 179.877H1064.33V178.708H1063.16V179.877ZM1092.39 179.877H1093.56V178.708H1092.39V179.877ZM1121.61 179.877H1122.78V178.708H1121.61V179.877ZM1033.94 209.113H1035.11V207.943H1033.94V209.113ZM1063.16 209.113H1064.33V207.943H1063.16V209.113ZM1092.39 209.113H1093.56V207.943H1092.39V209.113ZM1121.61 209.113H1122.78V207.943H1121.61V209.113ZM1033.94 238.349H1035.11V237.179H1033.94V238.349ZM1063.16 238.349H1064.33V237.179H1063.16V238.349ZM1092.39 238.349H1093.56V237.179H1092.39V238.349ZM1121.61 238.349H1122.78V237.179H1121.61V238.349ZM1033.94 267.585H1035.11V266.415H1033.94V267.585ZM1063.16 267.585H1064.33V266.415H1063.16V267.585ZM1092.39 267.585H1093.56V266.415H1092.39V267.585ZM1121.61 267.585H1122.78V266.415H1121.61V267.585ZM1152 149.472H1150.83V150.641H1152V149.472ZM1150.83 179.877H1152V178.708H1150.83V179.877ZM1150.83 209.113H1152V207.943H1150.83V209.113ZM1150.83 238.349H1152V237.179H1150.83V238.349ZM887.819 296.821H888.988V295.651H887.819V296.821ZM917.043 296.821H918.212V295.651H917.043V296.821ZM946.267 296.821H947.436V295.651H946.267V296.821ZM975.491 296.821H976.66V295.651H975.491V296.821ZM887.819 326.056H888.988V324.887H887.819V326.056ZM917.043 326.056H918.212V324.887H917.043V326.056ZM946.267 326.056H947.436V324.887H946.267V326.056ZM975.491 326.056H976.66V324.887H975.491V326.056ZM887.819 355.292H888.988V354.123H887.819V355.292ZM917.043 355.292H918.212V354.123H917.043V355.292ZM946.267 355.292H947.436V354.123H946.267V355.292ZM975.491 355.292H976.66V354.123H975.491V355.292ZM887.819 384.528H888.988V383.359H887.819V384.528ZM917.043 384.528H918.212V383.359H917.043V384.528ZM946.267 384.528H947.436V383.359H946.267V384.528ZM975.491 384.528H976.66V383.359H975.491V384.528ZM887.819 413.764H888.988V412.595H887.819V413.764ZM917.043 413.764H918.212V412.595H917.043V413.764ZM946.267 413.764H947.436V412.595H946.267V413.764ZM975.491 413.764H976.66V412.595H975.491V413.764ZM1005.88 295.651H1004.71V296.821H1005.88V295.651ZM1004.71 326.056H1005.88V324.887H1004.71V326.056ZM1004.71 355.292H1005.88V354.123H1004.71V355.292ZM1004.71 384.528H1005.88V383.359H1004.71V384.528ZM1033.94 296.821H1035.11V295.651H1033.94V296.821ZM1063.16 296.821H1064.33V295.651H1063.16V296.821ZM1092.39 296.821H1093.56V295.651H1092.39V296.821ZM1121.61 296.821H1122.78V295.651H1121.61V296.821ZM1033.94 326.056H1035.11V324.887H1033.94V326.056ZM1063.16 326.056H1064.33V324.887H1063.16V326.056ZM1092.39 326.056H1093.56V324.887H1092.39V326.056ZM1121.61 326.056H1122.78V324.887H1121.61V326.056ZM1033.94 355.292H1035.11V354.123H1033.94V355.292ZM1063.16 355.292H1064.33V354.123H1063.16V355.292ZM1092.39 355.292H1093.56V354.123H1092.39V355.292ZM1121.61 355.292H1122.78V354.123H1121.61V355.292ZM1033.94 384.528H1035.11V383.359H1033.94V384.528ZM1063.16 384.528H1064.33V383.359H1063.16V384.528ZM1092.39 384.528H1093.56V383.359H1092.39V384.528ZM1121.61 384.528H1122.78V383.359H1121.61V384.528ZM1033.94 413.764H1035.11V412.595H1033.94V413.764ZM1063.16 413.764H1064.33V412.595H1063.16V413.764ZM1092.39 413.764H1093.56V412.595H1092.39V413.764ZM1121.61 413.764H1122.78V412.595H1121.61V413.764ZM1152 295.651H1150.83V296.821H1152V295.651ZM1150.83 326.056H1152V324.887H1150.83V326.056ZM1150.83 355.292H1152V354.123H1150.83V355.292ZM1150.83 384.528H1152V383.359H1150.83V384.528ZM595.58 443H596.749V441.831H595.58V443ZM624.804 443H625.973V441.831H624.804V443ZM654.027 443H655.196V441.831H654.027V443ZM683.251 443H684.42V441.831H683.251V443ZM595.58 472.236H596.749V471.066H595.58V472.236ZM624.804 472.236H625.973V471.066H624.804V472.236ZM654.027 472.236H655.196V471.066H654.027V472.236ZM683.251 472.236H684.42V471.066H683.251V472.236ZM595.58 501.472H596.749V500.302H595.58V501.472ZM624.804 501.472H625.973V500.302H624.804V501.472ZM654.027 501.472H655.196V500.302H654.027V501.472ZM683.251 501.472H684.42V500.302H683.251V501.472ZM595.58 530.708H596.749V529.538H595.58V530.708ZM624.804 530.708H625.973V529.538H624.804V530.708ZM654.027 530.708H655.196V529.538H654.027V530.708ZM683.251 530.708H684.42V529.538H683.251V530.708ZM595.58 559.943H596.749V558.774H595.58V559.943ZM624.804 559.943H625.973V558.774H624.804V559.943ZM654.027 559.943H655.196V558.774H654.027V559.943ZM683.251 559.943H684.42V558.774H683.251V559.943ZM713.644 441.831H712.475V443H713.644V441.831ZM712.475 472.236H713.644V471.066H712.475V472.236ZM712.475 501.472H713.644V500.302H712.475V501.472ZM712.475 530.708H713.644V529.538H712.475V530.708ZM741.699 443H742.868V441.831H741.699V443ZM770.923 443H772.092V441.831H770.923V443ZM800.147 443H801.316V441.831H800.147V443ZM829.371 443H830.54V441.831H829.371V443ZM741.699 472.236H742.868V471.066H741.699V472.236ZM770.923 472.236H772.092V471.066H770.923V472.236ZM800.147 472.236H801.316V471.066H800.147V472.236ZM829.371 472.236H830.54V471.066H829.371V472.236ZM741.699 501.472H742.868V500.302H741.699V501.472ZM770.923 501.472H772.092V500.302H770.923V501.472ZM800.147 501.472H801.316V500.302H800.147V501.472ZM829.371 501.472H830.54V500.302H829.371V501.472ZM741.699 530.708H742.868V529.538H741.699V530.708ZM770.923 530.708H772.092V529.538H770.923V530.708ZM800.147 530.708H801.316V529.538H800.147V530.708ZM829.371 530.708H830.54V529.538H829.371V530.708ZM741.699 559.943H742.868V558.774H741.699V559.943ZM770.923 559.943H772.092V558.774H770.923V559.943ZM800.147 559.943H801.316V558.774H800.147V559.943ZM829.371 559.943H830.54V558.774H829.371V559.943ZM859.764 441.831H858.595V443H859.764V441.831ZM858.595 472.236H859.764V471.066H858.595V472.236ZM858.595 501.472H859.764V500.302H858.595V501.472ZM858.595 530.708H859.764V529.538H858.595V530.708ZM595.58 589.179H596.749V588.01H595.58V589.179ZM624.804 589.179H625.973V588.01H624.804V589.179ZM654.027 589.179H655.196V588.01H654.027V589.179ZM683.251 589.179H684.42V588.01H683.251V589.179ZM595.58 618.415H596.749V617.246H595.58V618.415ZM624.804 618.415H625.973V617.246H624.804V618.415ZM654.027 618.415H655.196V617.246H654.027V618.415ZM683.251 618.415H684.42V617.246H683.251V618.415ZM595.58 647.651H596.749V646.482H595.58V647.651ZM624.804 647.651H625.973V646.482H624.804V647.651ZM654.027 647.651H655.196V646.482H654.027V647.651ZM683.251 647.651H684.42V646.482H683.251V647.651ZM713.644 588.01H712.475V589.179H713.644V588.01ZM712.475 618.415H713.644V617.246H712.475V618.415ZM712.475 647.651H713.644V646.482H712.475V647.651ZM741.699 589.179H742.868V588.01H741.699V589.179ZM770.923 589.179H772.092V588.01H770.923V589.179ZM800.147 589.179H801.316V588.01H800.147V589.179ZM829.371 589.179H830.54V588.01H829.371V589.179ZM741.699 618.415H742.868V617.246H741.699V618.415ZM770.923 618.415H772.092V617.246H770.923V618.415ZM800.147 618.415H801.316V617.246H800.147V618.415ZM829.371 618.415H830.54V617.246H829.371V618.415ZM741.699 647.651H742.868V646.482H741.699V647.651ZM770.923 647.651H772.092V646.482H770.923V647.651ZM800.147 647.651H801.316V646.482H800.147V647.651ZM829.371 647.651H830.54V646.482H829.371V647.651ZM859.764 588.01H858.595V589.179H859.764V588.01ZM858.595 618.415H859.764V617.246H858.595V618.415ZM858.595 647.651H859.764V646.482H858.595V647.651ZM887.819 443H888.988V441.831H887.819V443ZM917.043 443H918.212V441.831H917.043V443ZM946.267 443H947.436V441.831H946.267V443ZM975.491 443H976.66V441.831H975.491V443ZM887.819 472.236H888.988V471.066H887.819V472.236ZM917.043 472.236H918.212V471.066H917.043V472.236ZM946.267 472.236H947.436V471.066H946.267V472.236ZM975.491 472.236H976.66V471.066H975.491V472.236ZM887.819 501.472H888.988V500.302H887.819V501.472ZM917.043 501.472H918.212V500.302H917.043V501.472ZM946.267 501.472H947.436V500.302H946.267V501.472ZM975.491 501.472H976.66V500.302H975.491V501.472ZM887.819 530.708H888.988V529.538H887.819V530.708ZM917.043 530.708H918.212V529.538H917.043V530.708ZM946.267 530.708H947.436V529.538H946.267V530.708ZM975.491 530.708H976.66V529.538H975.491V530.708ZM887.819 559.943H888.988V558.774H887.819V559.943ZM917.043 559.943H918.212V558.774H917.043V559.943ZM946.267 559.943H947.436V558.774H946.267V559.943ZM975.491 559.943H976.66V558.774H975.491V559.943ZM1005.88 441.831H1004.71V443H1005.88V441.831ZM1004.71 472.236H1005.88V471.066H1004.71V472.236ZM1004.71 501.472H1005.88V500.302H1004.71V501.472ZM1004.71 530.708H1005.88V529.538H1004.71V530.708ZM1033.94 443H1035.11V441.831H1033.94V443ZM1063.16 443H1064.33V441.831H1063.16V443ZM1092.39 443H1093.56V441.831H1092.39V443ZM1121.61 443H1122.78V441.831H1121.61V443ZM1033.94 472.236H1035.11V471.066H1033.94V472.236ZM1063.16 472.236H1064.33V471.066H1063.16V472.236ZM1092.39 472.236H1093.56V471.066H1092.39V472.236ZM1121.61 472.236H1122.78V471.066H1121.61V472.236ZM1033.94 501.472H1035.11V500.302H1033.94V501.472ZM1063.16 501.472H1064.33V500.302H1063.16V501.472ZM1092.39 501.472H1093.56V500.302H1092.39V501.472ZM1121.61 501.472H1122.78V500.302H1121.61V501.472ZM1033.94 530.708H1035.11V529.538H1033.94V530.708ZM1063.16 530.708H1064.33V529.538H1063.16V530.708ZM1092.39 530.708H1093.56V529.538H1092.39V530.708ZM1121.61 530.708H1122.78V529.538H1121.61V530.708ZM1033.94 559.943H1035.11V558.774H1033.94V559.943ZM1063.16 559.943H1064.33V558.774H1063.16V559.943ZM1092.39 559.943H1093.56V558.774H1092.39V559.943ZM1121.61 559.943H1122.78V558.774H1121.61V559.943ZM1152 441.831H1150.83V443H1152V441.831ZM1150.83 472.236H1152V471.066H1150.83V472.236ZM1150.83 501.472H1152V500.302H1150.83V501.472ZM1150.83 530.708H1152V529.538H1150.83V530.708ZM887.819 589.179H888.988V588.01H887.819V589.179ZM917.043 589.179H918.212V588.01H917.043V589.179ZM946.267 589.179H947.436V588.01H946.267V589.179ZM975.491 589.179H976.66V588.01H975.491V589.179ZM887.819 618.415H888.988V617.246H887.819V618.415ZM917.043 618.415H918.212V617.246H917.043V618.415ZM946.267 618.415H947.436V617.246H946.267V618.415ZM975.491 618.415H976.66V617.246H975.491V618.415ZM887.819 647.651H888.988V646.482H887.819V647.651ZM917.043 647.651H918.212V646.482H917.043V647.651ZM946.267 647.651H947.436V646.482H946.267V647.651ZM975.491 647.651H976.66V646.482H975.491V647.651ZM1005.88 588.01H1004.71V589.179H1005.88V588.01ZM1004.71 618.415H1005.88V617.246H1004.71V618.415ZM1004.71 647.651H1005.88V646.482H1004.71V647.651ZM1033.94 589.179H1035.11V588.01H1033.94V589.179ZM1063.16 589.179H1064.33V588.01H1063.16V589.179ZM1092.39 589.179H1093.56V588.01H1092.39V589.179ZM1121.61 589.179H1122.78V588.01H1121.61V589.179ZM1033.94 618.415H1035.11V617.246H1033.94V618.415ZM1063.16 618.415H1064.33V617.246H1063.16V618.415ZM1092.39 618.415H1093.56V617.246H1092.39V618.415ZM1121.61 618.415H1122.78V617.246H1121.61V618.415ZM1033.94 647.651H1035.11V646.482H1033.94V647.651ZM1063.16 647.651H1064.33V646.482H1063.16V647.651ZM1092.39 647.651H1093.56V646.482H1092.39V647.651ZM1121.61 647.651H1122.78V646.482H1121.61V647.651ZM1152 588.01H1150.83V589.179H1152V588.01ZM1150.83 618.415H1152V617.246H1150.83V618.415ZM1150.83 647.651H1152V646.482H1150.83V647.651ZM1180.06 -170.953H1181.23V-172.123H1180.06V-170.953ZM1209.28 -170.953H1210.45V-172.123H1209.28V-170.953ZM1238.51 -170.953H1239.68V-172.123H1238.51V-170.953ZM1267.73 -170.953H1268.9V-172.123H1267.73V-170.953ZM1180.06 -141.718H1181.23V-142.887H1180.06V-141.718ZM1209.28 -141.718H1210.45V-142.887H1209.28V-141.718ZM1238.51 -141.718H1239.68V-142.887H1238.51V-141.718ZM1267.73 -141.718H1268.9V-142.887H1267.73V-141.718ZM1180.06 -112.482H1181.23V-113.651H1180.06V-112.482ZM1209.28 -112.482H1210.45V-113.651H1209.28V-112.482ZM1238.51 -112.482H1239.68V-113.651H1238.51V-112.482ZM1267.73 -112.482H1268.9V-113.651H1267.73V-112.482ZM1180.06 -83.2459H1181.23V-84.4153H1180.06V-83.2459ZM1209.28 -83.2459H1210.45V-84.4153H1209.28V-83.2459ZM1238.51 -83.2459H1239.68V-84.4153H1238.51V-83.2459ZM1267.73 -83.2459H1268.9V-84.4153H1267.73V-83.2459ZM1180.06 -54.01H1181.23V-55.1794H1180.06V-54.01ZM1209.28 -54.01H1210.45V-55.1794H1209.28V-54.01ZM1238.51 -54.01H1239.68V-55.1794H1238.51V-54.01ZM1267.73 -54.01H1268.9V-55.1794H1267.73V-54.01ZM1180.06 -24.7741H1181.23V-25.9435H1180.06V-24.7741ZM1209.28 -24.7741H1210.45V-25.9435H1209.28V-24.7741ZM1238.51 -24.7741H1239.68V-25.9435H1238.51V-24.7741ZM1267.73 -24.7741H1268.9V-25.9435H1267.73V-24.7741ZM1298.12 -142.887H1296.95V-141.718H1298.12V-142.887ZM1296.95 -112.482H1298.12V-113.651H1296.95V-112.482ZM1296.95 -83.2459H1298.12V-84.4153H1296.95V-83.2459ZM1296.95 -54.01H1298.12V-55.1794H1296.95V-54.01ZM1180.06 4.46178H1181.23V3.29234H1180.06V4.46178ZM1209.28 4.46178H1210.45V3.29234H1209.28V4.46178ZM1238.51 4.46178H1239.68V3.29234H1238.51V4.46178ZM1267.73 4.46178H1268.9V3.29234H1267.73V4.46178ZM1180.06 33.6976H1181.23V32.5282H1180.06V33.6976ZM1209.28 33.6976H1210.45V32.5282H1209.28V33.6976ZM1238.51 33.6976H1239.68V32.5282H1238.51V33.6976ZM1267.73 33.6976H1268.9V32.5282H1267.73V33.6976ZM1180.06 62.9335H1181.23V61.7641H1180.06V62.9335ZM1209.28 62.9335H1210.45V61.7641H1209.28V62.9335ZM1238.51 62.9335H1239.68V61.7641H1238.51V62.9335ZM1267.73 62.9335H1268.9V61.7641H1267.73V62.9335ZM1180.06 92.1694H1181.23V91H1180.06V92.1694ZM1209.28 92.1694H1210.45V91H1209.28V92.1694ZM1238.51 92.1694H1239.68V91H1238.51V92.1694ZM1267.73 92.1694H1268.9V91H1267.73V92.1694ZM1180.06 121.405H1181.23V120.236H1180.06V121.405ZM1209.28 121.405H1210.45V120.236H1209.28V121.405ZM1238.51 121.405H1239.68V120.236H1238.51V121.405ZM1267.73 121.405H1268.9V120.236H1267.73V121.405ZM1298.12 3.29234H1296.95V4.46178H1298.12V3.29234ZM1296.95 33.6976H1298.12V32.5282H1296.95V33.6976ZM1296.95 62.9335H1298.12V61.7641H1296.95V62.9335ZM1296.95 92.1694H1298.12V91H1296.95V92.1694ZM1180.06 150.641H1181.23V149.472H1180.06V150.641ZM1209.28 150.641H1210.45V149.472H1209.28V150.641ZM1238.51 150.641H1239.68V149.472H1238.51V150.641ZM1267.73 150.641H1268.9V149.472H1267.73V150.641ZM1180.06 179.877H1181.23V178.708H1180.06V179.877ZM1209.28 179.877H1210.45V178.708H1209.28V179.877ZM1238.51 179.877H1239.68V178.708H1238.51V179.877ZM1267.73 179.877H1268.9V178.708H1267.73V179.877ZM1180.06 209.113H1181.23V207.943H1180.06V209.113ZM1209.28 209.113H1210.45V207.943H1209.28V209.113ZM1238.51 209.113H1239.68V207.943H1238.51V209.113ZM1267.73 209.113H1268.9V207.943H1267.73V209.113ZM1180.06 238.349H1181.23V237.179H1180.06V238.349ZM1209.28 238.349H1210.45V237.179H1209.28V238.349ZM1238.51 238.349H1239.68V237.179H1238.51V238.349ZM1267.73 238.349H1268.9V237.179H1267.73V238.349ZM1180.06 267.585H1181.23V266.415H1180.06V267.585ZM1209.28 267.585H1210.45V266.415H1209.28V267.585ZM1238.51 267.585H1239.68V266.415H1238.51V267.585ZM1267.73 267.585H1268.9V266.415H1267.73V267.585ZM1298.12 149.472H1296.95V150.641H1298.12V149.472ZM1296.95 179.877H1298.12V178.708H1296.95V179.877ZM1296.95 209.113H1298.12V207.943H1296.95V209.113ZM1296.95 238.349H1298.12V237.179H1296.95V238.349ZM1180.06 296.821H1181.23V295.651H1180.06V296.821ZM1209.28 296.821H1210.45V295.651H1209.28V296.821ZM1238.51 296.821H1239.68V295.651H1238.51V296.821ZM1267.73 296.821H1268.9V295.651H1267.73V296.821ZM1180.06 326.056H1181.23V324.887H1180.06V326.056ZM1209.28 326.056H1210.45V324.887H1209.28V326.056ZM1238.51 326.056H1239.68V324.887H1238.51V326.056ZM1267.73 326.056H1268.9V324.887H1267.73V326.056ZM1180.06 355.292H1181.23V354.123H1180.06V355.292ZM1209.28 355.292H1210.45V354.123H1209.28V355.292ZM1238.51 355.292H1239.68V354.123H1238.51V355.292ZM1267.73 355.292H1268.9V354.123H1267.73V355.292ZM1180.06 384.528H1181.23V383.359H1180.06V384.528ZM1209.28 384.528H1210.45V383.359H1209.28V384.528ZM1238.51 384.528H1239.68V383.359H1238.51V384.528ZM1267.73 384.528H1268.9V383.359H1267.73V384.528ZM1180.06 413.764H1181.23V412.595H1180.06V413.764ZM1209.28 413.764H1210.45V412.595H1209.28V413.764ZM1238.51 413.764H1239.68V412.595H1238.51V413.764ZM1267.73 413.764H1268.9V412.595H1267.73V413.764ZM1298.12 295.651H1296.95V296.821H1298.12V295.651ZM1296.95 326.056H1298.12V324.887H1296.95V326.056ZM1296.95 355.292H1298.12V354.123H1296.95V355.292ZM1296.95 384.528H1298.12V383.359H1296.95V384.528ZM1180.06 443H1181.23V441.831H1180.06V443ZM1209.28 443H1210.45V441.831H1209.28V443ZM1238.51 443H1239.68V441.831H1238.51V443ZM1267.73 443H1268.9V441.831H1267.73V443ZM1180.06 472.236H1181.23V471.066H1180.06V472.236ZM1209.28 472.236H1210.45V471.066H1209.28V472.236ZM1238.51 472.236H1239.68V471.066H1238.51V472.236ZM1267.73 472.236H1268.9V471.066H1267.73V472.236ZM1180.06 501.472H1181.23V500.302H1180.06V501.472ZM1209.28 501.472H1210.45V500.302H1209.28V501.472ZM1238.51 501.472H1239.68V500.302H1238.51V501.472ZM1267.73 501.472H1268.9V500.302H1267.73V501.472ZM1180.06 530.708H1181.23V529.538H1180.06V530.708ZM1209.28 530.708H1210.45V529.538H1209.28V530.708ZM1238.51 530.708H1239.68V529.538H1238.51V530.708ZM1267.73 530.708H1268.9V529.538H1267.73V530.708ZM1180.06 559.943H1181.23V558.774H1180.06V559.943ZM1209.28 559.943H1210.45V558.774H1209.28V559.943ZM1238.51 559.943H1239.68V558.774H1238.51V559.943ZM1267.73 559.943H1268.9V558.774H1267.73V559.943ZM1298.12 441.831H1296.95V443H1298.12V441.831ZM1296.95 472.236H1298.12V471.066H1296.95V472.236ZM1296.95 501.472H1298.12V500.302H1296.95V501.472ZM1296.95 530.708H1298.12V529.538H1296.95V530.708ZM1180.06 589.179H1181.23V588.01H1180.06V589.179ZM1209.28 589.179H1210.45V588.01H1209.28V589.179ZM1238.51 589.179H1239.68V588.01H1238.51V589.179ZM1267.73 589.179H1268.9V588.01H1267.73V589.179ZM1180.06 618.415H1181.23V617.246H1180.06V618.415ZM1209.28 618.415H1210.45V617.246H1209.28V618.415ZM1238.51 618.415H1239.68V617.246H1238.51V618.415ZM1267.73 618.415H1268.9V617.246H1267.73V618.415ZM1180.06 647.651H1181.23V646.482H1180.06V647.651ZM1209.28 647.651H1210.45V646.482H1209.28V647.651ZM1238.51 647.651H1239.68V646.482H1238.51V647.651ZM1267.73 647.651H1268.9V646.482H1267.73V647.651ZM1298.12 588.01H1296.95V589.179H1298.12V588.01ZM1296.95 618.415H1298.12V617.246H1296.95V618.415ZM1296.95 647.651H1298.12V646.482H1296.95V647.651ZM11.1007 676.887H12.2696V675.718H11.1007V676.887ZM40.3246 676.887H41.4936V675.718H40.3246V676.887ZM69.5486 676.887H70.7175V675.718H69.5486V676.887ZM98.7725 676.887H99.9415V675.718H98.7725V676.887ZM11.1007 706.123H12.2696V704.953H11.1007V706.123ZM40.3246 706.123H41.4936V704.953H40.3246V706.123ZM69.5486 706.123H70.7175V704.953H69.5486V706.123ZM98.7725 706.123H99.9415V704.953H98.7725V706.123ZM127.996 676.887H129.165V675.718H127.996V676.887ZM-18.1233 676.887H-16.9543V675.718H-18.1233V676.887ZM157.22 676.887H158.389V675.718H157.22V676.887ZM186.444 676.887H187.613V675.718H186.444V676.887ZM215.668 676.887H216.837V675.718H215.668V676.887ZM244.892 676.887H246.061V675.718H244.892V676.887ZM157.22 706.123H158.389V704.953H157.22V706.123ZM186.444 706.123H187.613V704.953H186.444V706.123ZM215.668 706.123H216.837V704.953H215.668V706.123ZM244.892 706.123H246.061V704.953H244.892V706.123ZM274.116 676.887H275.285V675.718H274.116V676.887ZM303.34 676.887H304.509V675.718H303.34V676.887ZM332.564 676.887H333.733V675.718H332.564V676.887ZM361.788 676.887H362.957V675.718H361.788V676.887ZM391.012 676.887H392.181V675.718H391.012V676.887ZM303.34 706.123H304.509V704.953H303.34V706.123ZM332.564 706.123H333.733V704.953H332.564V706.123ZM361.788 706.123H362.957V704.953H361.788V706.123ZM391.012 706.123H392.181V704.953H391.012V706.123ZM420.236 676.887H421.405V675.718H420.236V676.887ZM449.46 676.887H450.629V675.718H449.46V676.887ZM478.684 676.887H479.853V675.718H478.684V676.887ZM507.908 676.887H509.077V675.718H507.908V676.887ZM537.132 676.887H538.301V675.718H537.132V676.887ZM449.46 706.123H450.629V704.953H449.46V706.123ZM478.684 706.123H479.853V704.953H478.684V706.123ZM507.908 706.123H509.077V704.953H507.908V706.123ZM537.132 706.123H538.301V704.953H537.132V706.123ZM566.356 676.887H567.525V675.718H566.356V676.887ZM595.58 676.887H596.749V675.718H595.58V676.887ZM624.804 676.887H625.973V675.718H624.804V676.887ZM654.027 676.887H655.196V675.718H654.027V676.887ZM683.251 676.887H684.42V675.718H683.251V676.887ZM595.58 706.123H596.749V704.953H595.58V706.123ZM624.804 706.123H625.973V704.953H624.804V706.123ZM654.027 706.123H655.196V704.953H654.027V706.123ZM683.251 706.123H684.42V704.953H683.251V706.123ZM712.475 676.887H713.644V675.718H712.475V676.887ZM741.699 676.887H742.868V675.718H741.699V676.887ZM770.923 676.887H772.092V675.718H770.923V676.887ZM800.147 676.887H801.316V675.718H800.147V676.887ZM829.371 676.887H830.54V675.718H829.371V676.887ZM741.699 706.123H742.868V704.953H741.699V706.123ZM770.923 706.123H772.092V704.953H770.923V706.123ZM800.147 706.123H801.316V704.953H800.147V706.123ZM829.371 706.123H830.54V704.953H829.371V706.123ZM858.595 676.887H859.764V675.718H858.595V676.887ZM887.819 676.887H888.988V675.718H887.819V676.887ZM917.043 676.887H918.212V675.718H917.043V676.887ZM946.267 676.887H947.436V675.718H946.267V676.887ZM975.491 676.887H976.66V675.718H975.491V676.887ZM887.819 706.123H888.988V704.953H887.819V706.123ZM917.043 706.123H918.212V704.953H917.043V706.123ZM946.267 706.123H947.436V704.953H946.267V706.123ZM975.491 706.123H976.66V704.953H975.491V706.123ZM1004.71 676.887H1005.88V675.718H1004.71V676.887ZM1033.94 676.887H1035.11V675.718H1033.94V676.887ZM1063.16 676.887H1064.33V675.718H1063.16V676.887ZM1092.39 676.887H1093.56V675.718H1092.39V676.887ZM1121.61 676.887H1122.78V675.718H1121.61V676.887ZM1033.94 706.123H1035.11V704.953H1033.94V706.123ZM1063.16 706.123H1064.33V704.953H1063.16V706.123ZM1092.39 706.123H1093.56V704.953H1092.39V706.123ZM1121.61 706.123H1122.78V704.953H1121.61V706.123ZM1150.83 676.887H1152V675.718H1150.83V676.887ZM1180.06 676.887H1181.23V675.718H1180.06V676.887ZM1209.28 676.887H1210.45V675.718H1209.28V676.887ZM1238.51 676.887H1239.68V675.718H1238.51V676.887ZM1267.73 676.887H1268.9V675.718H1267.73V676.887ZM1180.06 706.123H1181.23V704.953H1180.06V706.123ZM1209.28 706.123H1210.45V704.953H1209.28V706.123ZM1238.51 706.123H1239.68V704.953H1238.51V706.123ZM1267.73 706.123H1268.9V704.953H1267.73V706.123ZM1296.95 676.887H1298.12V675.718H1296.95V676.887ZM-19 -170.076H-16.0776V-173H-19V-170.076ZM-19 -23.897H-16.0776V-26.8206H-19V-23.897ZM127.12 -170.076H130.042V-173H127.12V-170.076ZM127.12 -23.897H130.042V-26.8206H127.12V-23.897ZM273.239 -170.076H276.162V-173H273.239V-170.076ZM273.239 -23.897H276.162V-26.8206H273.239V-23.897ZM-19 122.282H-16.0776V119.359H-19V122.282ZM127.12 122.282H130.042V119.359H127.12V122.282ZM273.239 122.282H276.162V119.359H273.239V122.282ZM419.359 -170.076H422.282V-173H419.359V-170.076ZM419.359 -23.897H422.282V-26.8206H419.359V-23.897ZM565.479 -170.076H568.401V-173H565.479V-170.076ZM565.479 -23.897H568.401V-26.8206H565.479V-23.897ZM419.359 122.282H422.282V119.359H419.359V122.282ZM565.479 122.282H568.401V119.359H565.479V122.282ZM-19 268.462H-16.0776V265.538H-19V268.462ZM127.12 268.462H130.042V265.538H127.12V268.462ZM273.239 268.462H276.162V265.538H273.239V268.462ZM-19 414.641H-16.0776V411.718H-19V414.641ZM127.12 414.641H130.042V411.718H127.12V414.641ZM273.239 414.641H276.162V411.718H273.239V414.641ZM419.359 268.462H422.282V265.538H419.359V268.462ZM565.479 268.462H568.401V265.538H565.479V268.462ZM419.359 414.641H422.282V411.718H419.359V414.641ZM565.479 414.641H568.401V411.718H565.479V414.641ZM-19 560.821H-16.0776V557.897H-19V560.821ZM127.12 560.821H130.042V557.897H127.12V560.821ZM273.239 560.821H276.162V557.897H273.239V560.821ZM419.359 560.821H422.282V557.897H419.359V560.821ZM565.479 560.821H568.401V557.897H565.479V560.821ZM711.599 -170.076H714.521V-173H711.599V-170.076ZM711.599 -23.897H714.521V-26.8206H711.599V-23.897ZM857.718 -170.076H860.641V-173H857.718V-170.076ZM857.718 -23.897H860.641V-26.8206H857.718V-23.897ZM711.599 122.282H714.521V119.359H711.599V122.282ZM857.718 122.282H860.641V119.359H857.718V122.282ZM1003.84 -170.076H1006.76V-173H1003.84V-170.076ZM1003.84 -23.897H1006.76V-26.8206H1003.84V-23.897ZM1149.96 -170.076H1152.88V-173H1149.96V-170.076ZM1149.96 -23.897H1152.88V-26.8206H1149.96V-23.897ZM1003.84 122.282H1006.76V119.359H1003.84V122.282ZM1149.96 122.282H1152.88V119.359H1149.96V122.282ZM711.599 268.462H714.521V265.538H711.599V268.462ZM857.718 268.462H860.641V265.538H857.718V268.462ZM711.599 414.641H714.521V411.718H711.599V414.641ZM857.718 414.641H860.641V411.718H857.718V414.641ZM1003.84 268.462H1006.76V265.538H1003.84V268.462ZM1149.96 268.462H1152.88V265.538H1149.96V268.462ZM1003.84 414.641H1006.76V411.718H1003.84V414.641ZM1149.96 414.641H1152.88V411.718H1149.96V414.641ZM711.599 560.821H714.521V557.897H711.599V560.821ZM857.718 560.821H860.641V557.897H857.718V560.821ZM1003.84 560.821H1006.76V557.897H1003.84V560.821ZM1149.96 560.821H1152.88V557.897H1149.96V560.821ZM1296.08 -173V-170.076H1299V-173H1296.08ZM1296.08 -23.897H1299V-26.8206H1296.08V-23.897ZM1296.08 122.282H1299V119.359H1296.08V122.282ZM1296.08 268.462H1299V265.538H1296.08V268.462ZM1296.08 414.641H1299V411.718H1296.08V414.641ZM1296.08 560.821H1299V557.897H1296.08V560.821ZM-19 707H-16.0776V704.076H-19V707ZM127.12 707H130.042V704.076H127.12V707ZM273.239 707H276.162V704.076H273.239V707ZM419.359 707H422.282V704.076H419.359V707ZM565.479 707H568.401V704.076H565.479V707ZM711.599 707H714.521V704.076H711.599V707ZM857.718 707H860.641V704.076H857.718V707ZM1003.84 707H1006.76V704.076H1003.84V707ZM1149.96 707H1152.88V704.076H1149.96V707ZM1296.08 707H1299V704.076H1296.08V707Z" fill="#FEFFFF"/>
</g>
<defs>
<clipPath id="clip0_418_4629">
<rect width="1318" height="880" fill="white" transform="translate(-19 -173)"/>
</clipPath>
</defs>
</svg>
