<svg width="56" height="56" viewBox="0 0 56 56" fill="none" xmlns="http://www.w3.org/2000/svg">
<path d="M28.2032 0.019768L28.3157 0.00814483C30.4135 -0.125785 31.5759 1.40952 31.6984 3.32154C31.8682 3.49803 32.1158 3.63235 32.3063 3.79466L43.0181 13.2311C43.4841 13.668 44.7809 13.4549 45.4135 13.4551L49.3632 13.4545C50.7297 13.4545 51.5181 13.4083 52.7657 14.0639C54.5395 14.9959 55.9178 16.9127 56 18.9431L55.9971 49.3664C55.9246 51.6708 54.4354 53.7627 52.2768 54.5943C51.7282 54.8055 51.0552 54.9556 50.4693 54.983L28.9314 54.9933L9.01294 54.994C7.83355 54.9937 6.66303 55.0449 5.49838 54.8537C2.45454 54.354 1.00665 51.2607 1 48.4421L1.00835 19.4188C1.06027 16.5839 3.25545 13.7644 6.16909 13.4775C6.88808 13.4065 7.65885 13.4549 8.38319 13.4547L13.2413 13.449C13.6193 13.443 13.703 13.4767 13.9858 13.2177L25.0511 3.48085C25.4636 3.17356 25.4267 3.23421 25.5233 2.72699C25.8085 1.2311 26.6538 0.268495 28.2032 0.019768ZM10.8269 19.7515L9.79911 19.8599C7.20863 20.4702 7.67608 23.6272 7.67555 25.6102L7.67699 44.4943C7.67777 45.1957 7.57549 46.1124 7.78815 46.7762L7.84255 46.9038C8.90674 49.5113 10.9279 48.8979 13.2238 48.8953L46.2755 48.8778L46.9109 48.8476C47.0091 48.8392 47.101 48.8154 47.1963 48.7921L47.2651 48.7764C49.7996 48.1802 49.3131 45.7292 49.3111 43.8435L49.305 24.3016C49.3067 22.2538 49.3224 20.6674 47.1631 19.8857C46.7025 19.7189 46.0226 19.7877 45.5342 19.7869L10.8269 19.7515ZM27.8091 6.51426L20.745 13.0106C20.5839 13.1722 20.5378 13.3344 20.3249 13.4535L29.329 13.4577L35.9894 13.4556C36.1949 13.4522 36.4671 13.4726 36.6606 13.4175L36.6314 13.3983C36.5409 13.336 36.4987 13.2886 36.4427 13.1951C36.2411 12.8586 35.7431 12.5402 35.4431 12.2803L31.0922 8.2616C30.5158 7.70401 29.9702 7.08109 29.3505 6.57426C28.8292 6.61565 28.326 6.59457 27.8091 6.51426Z" fill="url(#paint0_linear_320_3147)"/>
<path d="M42.4553 21.031C43.3041 20.9651 44.2073 21.025 45.0616 21.0235C46.0852 21.022 47.6041 20.7956 47.9049 22.2385C48.0679 23.0202 47.972 23.9513 47.9716 24.7545L47.9508 45.0327C47.9392 45.3747 47.936 46.0396 47.7366 46.3233L47.7028 46.37C47.1859 47.1079 46.4405 46.9801 45.6236 46.9783L14.3797 46.9761L10.4892 46.9989C9.35953 47.0282 9.05029 46.4567 9.00893 45.3222L9 23.4121C9.0067 21.216 9.5628 21.0379 11.4994 21.0354L42.4553 21.031Z" fill="url(#paint1_linear_320_3147)"/>
<path d="M33.057 24.9147C31.1363 24.9147 29.4547 25.7407 28.4064 27.1368C27.3582 25.7407 25.6766 24.9147 23.7559 24.9147C22.227 24.9165 20.7613 25.5246 19.6802 26.6057C18.5991 27.6867 17.991 29.1525 17.9893 30.6814C17.9893 37.1921 27.6428 42.4621 28.0539 42.6798C28.1623 42.7381 28.2834 42.7686 28.4064 42.7686C28.5295 42.7686 28.6506 42.7381 28.759 42.6798C29.1701 42.4621 38.8236 37.1921 38.8236 30.6814C38.8219 29.1525 38.2138 27.6867 37.1327 26.6057C36.0516 25.5246 34.5859 24.9165 33.057 24.9147ZM28.4064 41.173C26.7081 40.1834 19.4774 35.6751 19.4774 30.6814C19.4789 29.5471 19.9301 28.4597 20.7322 27.6577C21.5343 26.8556 22.6216 26.4044 23.7559 26.4029C25.565 26.4029 27.0838 27.3665 27.7182 28.9142C27.7742 29.0507 27.8696 29.1674 27.9921 29.2495C28.1147 29.3317 28.2589 29.3755 28.4064 29.3755C28.554 29.3755 28.6982 29.3317 28.8207 29.2495C28.9433 29.1674 29.0387 29.0507 29.0947 28.9142C29.7291 27.3637 31.2479 26.4029 33.057 26.4029C34.1912 26.4044 35.2786 26.8556 36.0807 27.6577C36.8827 28.4597 37.334 29.5471 37.3355 30.6814C37.3355 35.6677 30.103 40.1824 28.4064 41.173Z" fill="#030404"/>
<defs>
<linearGradient id="paint0_linear_320_3147" x1="28.2909" y1="55.0997" x2="28.8581" y2="0.0870258" gradientUnits="userSpaceOnUse">
<stop stop-color="#6A8DFB"/>
<stop offset="1" stop-color="#9EC7F8"/>
</linearGradient>
<linearGradient id="paint1_linear_320_3147" x1="28.4184" y1="47.0033" x2="28.5168" y2="20.9901" gradientUnits="userSpaceOnUse">
<stop stop-color="#88ADF7"/>
<stop offset="1" stop-color="#B7F3F7"/>
</linearGradient>
</defs>
</svg>
