<svg width="56" height="57" viewBox="0 0 56 57" fill="none" xmlns="http://www.w3.org/2000/svg">
<path d="M53.1357 50.6101C51.1794 53.6557 46.6413 55.7453 43.1012 55.9692C42.2593 56.0223 41.3437 56.501 40.5 56.5L38.9029 55.9859C33.4076 55.964 28.765 52.1677 27 47C26.7492 46.2656 26.7029 45.7441 26.5 45C26.2715 44.9481 25.5069 45.0304 25.2585 45.0603C16.2408 46.1456 6.82775 41.0606 2.59973 33.148C-2.46884 23.6625 0.0607967 11.6115 8.56065 4.93998C14.3866 0.367259 22.4276 -1.22424 29.5498 0.982802C40.0324 4.2312 46.243 14.098 45.099 24.7936C44.9842 25.868 44.8321 26.998 44.4991 28.0279L44.5496 28.0548C44.7064 28.1334 44.9541 28.1287 45.1284 28.1561L45.9548 28.3232C51.3759 29.6093 54.1165 33.9539 55.5 39.5C55.9177 43.4324 55.642 47.4158 53.151 50.6058L53.1357 50.6101Z" fill="url(#paint0_linear_320_3096)"/>
<path d="M34.8141 28.8434L34.6473 28.9074C34.0661 29.06 33.2025 29.5092 32.7004 29.8829L32.5486 29.9671C32.2082 30.1764 31.7998 30.3821 31.5161 30.6567L31.4506 30.7188C31.3425 30.7825 31.4631 30.6816 31.3552 30.7801L30.7977 31.2403C30.7504 31.2869 30.7741 31.268 30.7241 31.3053L30.1851 31.7739C29.182 32.6153 28.3736 33.599 27.642 34.675C26.7376 36.0052 26.5156 37.19 26.2093 38.7733C25.3235 39.02 21.353 38.7838 20.4552 38.6347C16.0093 37.8964 11.851 35.4277 9.22278 31.775C4.67398 25.4529 5.40448 17.132 10.6186 11.5019C17.6355 3.92507 29.9071 4.30962 36.0275 12.9538C38.8827 16.9864 39.5262 21.8345 38.4038 26.5529C38.2865 27.0459 38.1247 27.5278 38.0368 28.0273C37.8258 28.0899 37.5999 28.0494 37.4074 28.1176L37.3295 28.1368C37.1861 28.1431 37.0252 28.1875 36.8826 28.2139L36.7168 28.2278C36.6455 28.2717 36.5969 28.245 36.523 28.2621L36.455 28.291C36.3194 28.332 36.1648 28.3256 36.0275 28.368L35.7256 28.4349C35.6412 28.4517 35.7112 28.4367 35.6096 28.474L35.4517 28.5126C35.3653 28.5297 35.4454 28.5122 35.3375 28.5511L34.7034 28.7534C34.6551 28.7695 34.6145 28.7874 34.5698 28.8113L34.6088 28.8469C34.6764 28.8438 34.7468 28.8357 34.8141 28.8434Z" fill="url(#paint1_linear_320_3096)"/>
<path d="M22.9127 9.8428L23.36 9.84218C23.917 9.89139 24.4611 10.1434 24.8225 10.5728L24.8664 10.6258C25.2296 11.0597 25.4314 11.5192 25.4391 12.0847L25.4489 22.0848C25.4502 24.4408 25.0252 25.5905 22.5374 25.5937L15.379 25.5939L14.9019 25.5653C12.9077 25.4161 12.022 22.9672 13.6275 21.6532L13.6775 21.6131C14.4533 20.9847 15.2848 21.0655 16.2289 21.0661L19.2486 21.0701C19.7338 21.0708 20.248 21.1111 20.728 21.0618L20.7288 14.9652C20.7298 12.9956 20.1677 10.2019 22.9127 9.8428Z" fill="#030404"/>
<path d="M40.1993 36.0153L40.3395 36.0043C41.7729 35.9445 43.2078 36.5157 44.2554 37.4835C46.3466 39.4158 46.6536 43.0306 44.6531 45.1425C43.6307 46.2217 42.3139 46.9461 40.8024 46.9971C40.558 47 40.3024 47.0057 40.0592 46.9838C35.6034 46.5822 33.4399 41.246 36.2785 37.9952C37.2613 36.8697 38.6979 36.1231 40.1993 36.0153Z" fill="#030404"/>
<circle cx="41" cy="42" r="14.5" stroke="#030404"/>
<defs>
<linearGradient id="paint0_linear_320_3096" x1="9.62798" y1="43.182" x2="46.4022" y2="16.6019" gradientUnits="userSpaceOnUse">
<stop stop-color="#6586FE"/>
<stop offset="1" stop-color="#A5CFF4"/>
</linearGradient>
<linearGradient id="paint1_linear_320_3096" x1="13.7827" y1="35.9778" x2="31.0446" y2="8.41138" gradientUnits="userSpaceOnUse">
<stop stop-color="#88ACFA"/>
<stop offset="1" stop-color="#C0F9F4"/>
</linearGradient>
</defs>
</svg>
