<svg width="56" height="56" viewBox="0 0 56 56" fill="none" xmlns="http://www.w3.org/2000/svg">
<path d="M42.0502 27.7129C45.6311 27.6494 49.1163 28.9713 51.7334 31.4299C57.258 36.6201 57.4225 45.6042 52.1973 51.0717C49.5695 53.8214 46.2113 55.2439 42.4541 55.3302C36.2455 55.487 30.8549 51.2627 29.0561 45.3728C28.7781 44.4626 28.577 43.4141 28.5247 42.4585C28.0786 34.3118 34.1104 28.0993 42.0502 27.7129Z" fill="url(#paint0_linear_320_3090)"/>
<path d="M42.1993 36.0153L42.3395 36.0043C43.7729 35.9445 45.2078 36.5157 46.2554 37.4835C48.3466 39.4158 48.6536 43.0306 46.6531 45.1425C45.6307 46.2217 44.3139 46.9461 42.8024 46.9971C42.558 47 42.3024 47.0057 42.0592 46.9838C37.6034 46.5822 35.4399 41.246 38.2785 37.9952C39.2613 36.8697 40.6979 36.1231 42.1993 36.0153Z" fill="#030404"/>
<path d="M15.4828 1.46616C16.5886 0.937273 17.9318 0.667345 19.1271 0.462213C24.3651 -0.436623 28.993 -0.103948 33.7798 2.16546C41.6155 5.88034 45.7745 11.6848 47.1136 20.0846C47.2719 21.0776 47.4252 22.1134 47.3916 23.1206L47.2946 25.2921C47.2501 25.8786 47.213 26.4499 46.9691 26.9933C46.4632 26.9057 45.9691 26.7376 45.4647 26.6327C35.3916 24.536 26.08 32.9125 27.3384 43.3503C27.4743 44.4777 27.7487 45.5699 28.092 46.6501L28.0539 46.6842C27.1541 47.1914 24.5043 47.2291 23.4629 47.228C17.8847 47.2222 12.1888 45.1749 7.87851 41.6098C1.96863 36.7218 -0.750605 28.6592 0.178371 21.1455C1.29859 12.0848 6.88328 4.81804 15.4828 1.46616Z" fill="url(#paint1_linear_320_3090)"/>
<path d="M23.3886 10.3994C25.4896 10.2535 25.7955 11.8478 25.798 13.4292L25.7922 23.5204C25.7826 24.7638 26.2143 24.7517 27.1782 24.0347L28.6515 22.8974C29.0382 22.5948 29.4279 22.2779 29.8771 22.0717C31.9378 21.1258 33.9461 23.5637 32.3502 25.3349C31.9304 25.801 31.4559 26.2346 31.0017 26.6679L26.5162 31.0226C25.267 32.2542 23.6673 34.2842 21.6989 33.3422C21.0863 32.9686 20.5883 32.4183 20.0805 31.9173L15.269 27.075C14.7629 26.5576 14.2055 26.0497 13.7519 25.4869C12.7845 24.2867 13.3959 22.2173 14.9645 21.896L15.026 21.884C16.4505 21.6005 17.4135 22.8464 18.3051 23.7427L20.0648 25.4342C21.509 26.6961 21.4058 25.6953 21.4082 24.4923L21.4148 13.7668C21.4201 12.2989 21.498 10.6341 23.3886 10.3994Z" fill="#030404"/>
<defs>
<linearGradient id="paint0_linear_320_3090" x1="38.1506" y1="54.6492" x2="46.3035" y2="28.3579" gradientUnits="userSpaceOnUse">
<stop stop-color="#688BFB"/>
<stop offset="1" stop-color="#99BDF8"/>
</linearGradient>
<linearGradient id="paint1_linear_320_3090" x1="8.96199" y1="42.4229" x2="36.1798" y2="3.35827" gradientUnits="userSpaceOnUse">
<stop stop-color="#6987FA"/>
<stop offset="1" stop-color="#AEDAF6"/>
</linearGradient>
</defs>
</svg>
