<svg width="176" height="32" viewBox="0 0 176 32" fill="none" xmlns="http://www.w3.org/2000/svg">
<g clip-path="url(#clip0_222_12775)">
<path fill-rule="evenodd" clip-rule="evenodd" d="M31.9332 17.8475C31.9332 17.9991 31.8981 18.1432 31.8316 18.2683L24.9834 30.1297C24.6929 30.6328 24.1562 30.9427 23.5753 30.9427H8.35776C7.77689 30.9427 7.24015 30.6328 6.94972 30.1297L0.100857 18.2671C0.0344964 18.1423 -0.000152588 17.9989 -0.000152588 17.8475C-0.000152588 17.3565 0.397838 16.9585 0.888785 16.9585H8.40257L10.3068 20.1929L10.3185 20.2123C10.5726 20.6203 11.1072 20.7532 11.5238 20.508L11.5453 20.4949C11.7374 20.3744 11.8765 20.1847 11.9334 19.9646L14.3598 10.5848L16.4431 25.6857L16.4463 25.7068C16.5233 26.1818 16.9659 26.5109 17.4452 26.4448L17.467 26.4415C17.814 26.3849 18.0959 26.1286 18.1843 25.7868L21.109 14.4809L22.3098 16.5206L22.3217 16.5403C22.4838 16.8 22.7686 16.9585 23.0759 16.9585H31.0443C31.5353 16.9585 31.9332 17.3565 31.9332 17.8475ZM23.5753 1.33331C24.1562 1.33331 24.6929 1.6432 24.9834 2.14625L31.832 14.0082C31.8983 14.1332 31.9332 14.2772 31.9332 14.4285C31.9332 14.9194 31.5353 15.3174 31.0443 15.3174H23.5059L21.6017 12.083L21.5886 12.0615C21.4681 11.8694 21.2784 11.7304 21.0583 11.6734L21.0376 11.6683C20.569 11.5588 20.0962 11.843 19.9751 12.3114L17.5487 21.6911L15.4653 6.59028L15.4621 6.5685C15.4054 6.22149 15.1491 5.93956 14.8074 5.85116C14.3321 5.7282 13.8471 6.01384 13.7241 6.48914L10.7994 17.795L9.59866 15.7554L9.58674 15.7357C9.42468 15.476 9.13983 15.3174 8.83262 15.3174H0.888785C0.397838 15.3174 -0.000152588 14.9194 -0.000152588 14.4285C-0.000152588 14.2784 0.0335664 14.1364 0.0987046 14.0123L6.94972 2.14625C7.24015 1.6432 7.77689 1.33331 8.35776 1.33331H23.5753Z" fill="#FEFFFF"/>
</g>
<g clip-path="url(#clip1_222_12775)">
<path fill-rule="evenodd" clip-rule="evenodd" d="M64 32C55.163 32 48 24.837 48 16C48 7.163 55.163 0 64 0C72.837 0 80 7.163 80 16C80 24.837 72.837 32 64 32ZM71.994 16.219L64.498 4L57 16.22L64.498 20.573L71.994 16.219ZM72 17.616L64.498 21.967L57 17.617L64.498 27.995L72 17.616Z" fill="#FEFFFF"/>
<path d="M64.498 4V12.87L71.995 16.22L64.498 4ZM64.498 21.968V27.995L72 17.616L64.498 21.968Z" fill="#FEFFFF" fill-opacity="0.298"/>
<path d="M64.498 20.573L71.995 16.22L64.498 12.872V20.573Z" fill="#FEFFFF" fill-opacity="0.801"/>
<path d="M57 16.22L64.498 20.573V12.872L57 16.22Z" fill="#FEFFFF" fill-opacity="0.298"/>
</g>
<g clip-path="url(#clip2_222_12775)">
<path fill-rule="evenodd" clip-rule="evenodd" d="M112 32C103.163 32 96 24.837 96 16C96 7.163 103.163 0 112 0C120.837 0 128 7.163 128 16C128 24.837 120.837 32 112 32ZM113.922 13.793V11.427H119.336V7.819H104.595V11.427H110.009V13.792C105.609 13.994 102.3 14.866 102.3 15.91C102.3 16.954 105.609 17.825 110.009 18.028V25.61H113.922V18.026C118.315 17.824 121.616 16.953 121.616 15.91C121.616 14.867 118.315 13.996 113.922 13.793ZM113.922 17.383V17.381C113.812 17.389 113.245 17.423 111.98 17.423C110.97 17.423 110.259 17.393 110.009 17.381V17.384C106.121 17.213 103.219 16.536 103.219 15.726C103.219 14.917 106.121 14.24 110.009 14.066V16.71C110.263 16.728 110.991 16.771 111.997 16.771C113.204 16.771 113.809 16.721 113.922 16.711V14.068C117.802 14.241 120.697 14.918 120.697 15.726C120.697 16.536 117.802 17.211 113.922 17.383Z" fill="#FEFFFF"/>
</g>
<g clip-path="url(#clip3_222_12775)">
<path d="M160 0C168.837 0 176 7.163 176 16C176 24.837 168.837 32 160 32C151.163 32 144 24.837 144 16C144 7.163 151.163 0 160 0ZM163.352 5.56C163.108 5.44 162.864 5.56 162.804 5.803C162.743 5.864 162.743 5.925 162.743 6.046V6.896L162.753 7C162.805 7.20573 162.932 7.38489 163.108 7.503C167.862 9.203 170.3 14.483 168.532 19.156C167.618 21.706 165.607 23.647 163.108 24.558C162.864 24.679 162.743 24.861 162.743 25.165V26.015L162.748 26.103C162.758 26.199 162.798 26.2895 162.862 26.3609C162.927 26.4324 163.013 26.4812 163.108 26.5C163.169 26.5 163.291 26.5 163.352 26.44C164.724 26.0117 165.997 25.3163 167.099 24.3938C168.2 23.4714 169.109 22.3401 169.771 21.0652C170.434 19.7902 170.838 18.3968 170.96 16.9651C171.082 15.5334 170.92 14.0917 170.482 12.723C169.386 9.263 166.704 6.652 163.352 5.56ZM156.892 5.5C156.831 5.5 156.709 5.5 156.648 5.56C155.276 5.98832 154.003 6.68373 152.901 7.60617C151.8 8.52862 150.891 9.65988 150.229 10.9348C149.566 12.2098 149.162 13.6032 149.04 15.0349C148.918 16.4666 149.08 17.9083 149.518 19.277C150.614 22.677 153.235 25.287 156.648 26.379C156.892 26.5 157.136 26.379 157.196 26.136C157.257 26.076 157.257 26.014 157.257 25.893V25.043L157.247 24.963C157.205 24.794 157.048 24.601 156.892 24.497C152.138 22.797 149.7 17.517 151.468 12.844C152.382 10.294 154.393 8.353 156.892 7.442C157.136 7.321 157.257 7.139 157.257 6.835V5.985L157.252 5.897C157.242 5.80097 157.202 5.71055 157.138 5.63907C157.073 5.56758 156.987 5.51883 156.892 5.5ZM160.427 8.656H159.512L159.424 8.664C159.224 8.704 159.078 8.876 159.024 9.142V10.538L158.817 10.57C157.109 10.874 156.039 12.053 156.039 13.512C156.039 15.514 157.257 16.303 159.817 16.607C161.524 16.91 162.072 17.275 162.072 18.246C162.072 19.216 161.219 19.884 160.061 19.884C158.476 19.884 157.928 19.217 157.745 18.306C157.685 18.064 157.501 17.942 157.318 17.942H156.282L156.203 17.949C156.104 17.9649 156.015 18.0161 155.951 18.0929C155.887 18.1698 155.854 18.2671 155.856 18.367V18.427L155.889 18.607C156.179 20.031 157.155 21.05 159.086 21.341V22.798L159.094 22.886C159.134 23.084 159.307 23.23 159.574 23.283H160.488L160.576 23.275C160.776 23.235 160.922 23.063 160.976 22.798V21.34L161.183 21.3C162.896 20.938 164.023 19.699 164.023 18.123C164.023 15.999 162.743 15.271 160.183 14.967C158.354 14.724 157.989 14.239 157.989 13.389C157.989 12.539 158.599 11.993 159.817 11.993C160.914 11.993 161.524 12.357 161.828 13.268C161.86 13.3561 161.918 13.4324 161.994 13.4865C162.07 13.5407 162.161 13.5702 162.255 13.571H163.23L163.309 13.565C163.408 13.5493 163.498 13.4981 163.562 13.421C163.626 13.3439 163.66 13.2462 163.657 13.146V13.086L163.62 12.913C163.47 12.2914 163.128 11.733 162.642 11.3172C162.156 10.9014 161.551 10.6494 160.914 10.597V9.142L160.906 9.054C160.866 8.855 160.694 8.709 160.427 8.656Z" fill="#FEFFFF"/>
</g>
<defs>
<clipPath id="clip0_222_12775">
<rect width="32" height="32" fill="white"/>
</clipPath>
<clipPath id="clip1_222_12775">
<rect width="32" height="32" fill="white" transform="translate(48)"/>
</clipPath>
<clipPath id="clip2_222_12775">
<rect width="32" height="32" fill="white" transform="translate(96)"/>
</clipPath>
<clipPath id="clip3_222_12775">
<rect width="32" height="32" fill="white" transform="translate(144)"/>
</clipPath>
</defs>
</svg>
