<svg width="24" height="24" viewBox="0 0 24 24" fill="none" xmlns="http://www.w3.org/2000/svg">
<path opacity="0.2" d="M11.25 5.25L5.655 7.34812C5.53187 7.39432 5.42306 7.47208 5.33947 7.57361C5.25588 7.67514 5.20045 7.79686 5.17875 7.92656L3 21L16.0734 18.8212C16.2031 18.7995 16.3249 18.7441 16.4264 18.6605C16.5279 18.5769 16.6057 18.4681 16.6519 18.345L18.75 12.75L11.25 5.25ZM10.875 15C10.5042 15 10.1416 14.89 9.83331 14.684C9.52496 14.478 9.28464 14.1851 9.14273 13.8425C9.00081 13.4999 8.96368 13.1229 9.03603 12.7592C9.10837 12.3955 9.28695 12.0614 9.54917 11.7992C9.8114 11.537 10.1455 11.3584 10.5092 11.286C10.8729 11.2137 11.2499 11.2508 11.5925 11.3927C11.9351 11.5346 12.228 11.775 12.434 12.0833C12.64 12.3916 12.75 12.7542 12.75 13.125C12.75 13.6223 12.5525 14.0992 12.2008 14.4508C11.8492 14.8025 11.3723 15 10.875 15Z" fill="#FEFFFF"/>
<path d="M22.5 9.43876C22.5006 9.2417 22.462 9.04649 22.3866 8.86446C22.3111 8.68244 22.2002 8.51723 22.0603 8.37845L15.6215 1.93876C15.4822 1.79943 15.3169 1.68892 15.1349 1.61351C14.9528 1.53811 14.7578 1.4993 14.5607 1.4993C14.3637 1.4993 14.1687 1.53811 13.9866 1.61351C13.8046 1.68892 13.6393 1.79943 13.5 1.93876L10.8347 4.60407L5.39715 6.64501C5.15003 6.73717 4.93146 6.89263 4.76331 7.09582C4.59516 7.29902 4.48333 7.54282 4.43903 7.80282L2.26028 20.8763C2.2423 20.9837 2.24795 21.0938 2.27685 21.1989C2.30574 21.3039 2.35717 21.4014 2.42758 21.4846C2.49798 21.5678 2.58566 21.6346 2.68451 21.6804C2.78336 21.7263 2.89101 21.75 2.99997 21.75C3.04142 21.7498 3.0828 21.7464 3.12372 21.7397L16.1962 19.5609C16.4559 19.5176 16.6996 19.4067 16.9028 19.2393C17.1061 19.072 17.2617 18.8541 17.354 18.6075L19.395 13.17L22.0603 10.5C22.2002 10.3611 22.3112 10.1957 22.3867 10.0135C22.4622 9.83134 22.5007 9.63596 22.5 9.43876ZM15.9497 18.0816L5.18622 19.875L9.62715 15.4341C10.1818 15.7338 10.8259 15.824 11.4415 15.6879C12.0572 15.5519 12.6033 15.1989 12.98 14.6933C13.3568 14.1878 13.539 13.5635 13.4933 12.9347C13.4477 12.3058 13.1772 11.7144 12.7314 11.2686C12.2856 10.8228 11.6942 10.5523 11.0653 10.5066C10.4365 10.461 9.81221 10.6432 9.30666 11.0199C8.80111 11.3967 8.44805 11.9428 8.31203 12.5585C8.17602 13.1741 8.26613 13.8182 8.5659 14.3728L4.12497 18.8156L5.91841 8.04938L11.0625 6.12095L17.8781 12.9375L15.9497 18.0816ZM9.74997 13.125C9.74997 12.9025 9.81595 12.685 9.93956 12.5C10.0632 12.315 10.2389 12.1708 10.4444 12.0856C10.65 12.0005 10.8762 11.9782 11.0944 12.0216C11.3127 12.065 11.5131 12.1722 11.6705 12.3295C11.8278 12.4868 11.9349 12.6873 11.9784 12.9055C12.0218 13.1238 11.9995 13.35 11.9143 13.5555C11.8292 13.7611 11.685 13.9368 11.5 14.0604C11.315 14.184 11.0975 14.25 10.875 14.25C10.5766 14.25 10.2905 14.1315 10.0795 13.9205C9.86849 13.7095 9.74997 13.4234 9.74997 13.125ZM18.75 11.6888L12.3103 5.25001L14.5603 3.00001L21 9.43876L18.75 11.6888Z" fill="#FEFFFF"/>
</svg>
