<svg width="32" height="32" viewBox="0 0 32 32" fill="none" xmlns="http://www.w3.org/2000/svg">
<g clip-path="url(#clip0_222_12761)">
<path fill-rule="evenodd" clip-rule="evenodd" d="M31.9332 17.8475C31.9332 17.9991 31.8981 18.1432 31.8316 18.2683L24.9834 30.1297C24.6929 30.6328 24.1562 30.9427 23.5753 30.9427H8.35776C7.77689 30.9427 7.24015 30.6328 6.94972 30.1297L0.100857 18.2671C0.0344964 18.1423 -0.000152588 17.9989 -0.000152588 17.8475C-0.000152588 17.3565 0.397838 16.9585 0.888785 16.9585H8.40257L10.3068 20.1929L10.3185 20.2123C10.5726 20.6203 11.1072 20.7532 11.5238 20.508L11.5453 20.4949C11.7374 20.3744 11.8765 20.1847 11.9334 19.9646L14.3598 10.5848L16.4431 25.6857L16.4463 25.7068C16.5233 26.1818 16.9659 26.5109 17.4452 26.4448L17.467 26.4415C17.814 26.3849 18.0959 26.1286 18.1843 25.7868L21.109 14.4809L22.3098 16.5206L22.3217 16.5403C22.4838 16.8 22.7686 16.9585 23.0759 16.9585H31.0443C31.5353 16.9585 31.9332 17.3565 31.9332 17.8475ZM23.5753 1.33331C24.1562 1.33331 24.6929 1.6432 24.9834 2.14625L31.832 14.0082C31.8983 14.1332 31.9332 14.2772 31.9332 14.4285C31.9332 14.9194 31.5353 15.3174 31.0443 15.3174H23.5059L21.6017 12.083L21.5886 12.0615C21.4681 11.8694 21.2784 11.7304 21.0583 11.6734L21.0376 11.6683C20.569 11.5588 20.0962 11.843 19.9751 12.3114L17.5487 21.6911L15.4653 6.59028L15.4621 6.5685C15.4054 6.22149 15.1491 5.93956 14.8074 5.85116C14.3321 5.7282 13.8471 6.01384 13.7241 6.48914L10.7994 17.795L9.59866 15.7554L9.58674 15.7357C9.42468 15.476 9.13983 15.3174 8.83262 15.3174H0.888785C0.397838 15.3174 -0.000152588 14.9194 -0.000152588 14.4285C-0.000152588 14.2784 0.0335664 14.1364 0.0987046 14.0123L6.94972 2.14625C7.24015 1.6432 7.77689 1.33331 8.35776 1.33331H23.5753Z" fill="#FEFFFF"/>
</g>
<defs>
<clipPath id="clip0_222_12761">
<rect width="32" height="32" fill="white"/>
</clipPath>
</defs>
</svg>
