<svg width="54" height="54" viewBox="0 0 54 54" fill="none" xmlns="http://www.w3.org/2000/svg">
<g style="mix-blend-mode:hue" opacity="0.5" clip-path="url(#clip0_432_11287)">
<path fill-rule="evenodd" clip-rule="evenodd" d="M53.8873 30.1177C53.8873 30.3735 53.8281 30.6167 53.7158 30.8277L42.1594 50.844C41.6693 51.6928 40.7636 52.2158 39.7834 52.2158H14.1037C13.1235 52.2158 12.2177 51.6928 11.7276 50.844L0.17018 30.8258C0.0581956 30.6151 -0.000274658 30.3731 -0.000274658 30.1177C-0.000274658 29.2892 0.671335 28.6176 1.49981 28.6176H14.1793L17.3926 34.0756L17.4124 34.1082C17.8412 34.7967 18.7434 35.0211 19.4464 34.6073L19.4828 34.5852C19.8069 34.3818 20.0415 34.0618 20.1376 33.6903L24.2321 17.8619L27.7478 43.3447L27.7531 43.3802C27.883 44.1818 28.63 44.7372 29.4388 44.6256L29.4755 44.6201C30.0611 44.5246 30.5369 44.092 30.6861 43.5153L35.6214 24.4365L37.6478 27.8785L37.6679 27.9117C37.9414 28.35 38.4221 28.6176 38.9405 28.6176H52.3872C53.2157 28.6176 53.8873 29.2892 53.8873 30.1177ZM39.7834 2.25C40.7636 2.25 41.6693 2.77294 42.1594 3.62182L53.7165 23.6389C53.8283 23.8498 53.8873 24.0928 53.8873 24.3481C53.8873 25.1766 53.2157 25.8482 52.3872 25.8482H39.6662L36.4529 20.3902L36.4308 20.3538C36.2274 20.0297 35.9074 19.795 35.5359 19.6989L35.501 19.6903C34.7102 19.5055 33.9124 19.9851 33.7079 20.7755L29.6133 36.6038L26.0977 11.1211L26.0922 11.0844C25.9967 10.4988 25.5641 10.023 24.9874 9.87386C24.1853 9.66638 23.3669 10.1484 23.1594 10.9505L18.224 30.0292L16.1977 26.5872L16.1776 26.554C15.9041 26.1158 15.4234 25.8482 14.905 25.8482H1.49981C0.671335 25.8482 -0.000274658 25.1766 -0.000274658 24.3481C-0.000274658 24.0948 0.0566261 23.8552 0.166547 23.6458L11.7276 3.62182C12.2177 2.77294 13.1235 2.25 14.1037 2.25H39.7834Z" fill="#FEFFFF"/>
</g>
<defs>
<clipPath id="clip0_432_11287">
<rect width="54" height="54" fill="white"/>
</clipPath>
</defs>
</svg>
