<svg width="32" height="32" viewBox="0 0 32 32" fill="none" xmlns="http://www.w3.org/2000/svg">
<path d="M5.76006 2.56006C3.99979 2.56006 2.56006 3.99979 2.56006 5.76006V26.2401C2.56006 28.0003 3.99979 29.4401 5.76006 29.4401H26.2401C28.0003 29.4401 29.4401 28.0003 29.4401 26.2401V5.76006C29.4401 3.99979 28.0003 2.56006 26.2401 2.56006H5.76006ZM5.76006 3.84006H26.2401C27.3099 3.84006 28.1601 4.69025 28.1601 5.76006V26.2401C28.1601 27.3099 27.3099 28.1601 26.2401 28.1601H5.76006C4.69025 28.1601 3.84006 27.3099 3.84006 26.2401V5.76006C3.84006 4.69025 4.69025 3.84006 5.76006 3.84006ZM16.6676 6.40006C16.498 6.40008 16.3355 6.46734 16.2155 6.58709C16.0955 6.70684 16.0279 6.86929 16.0276 7.03881C16.0276 7.03881 16.0205 10.1589 16.0138 13.2863C16.0104 14.85 16.0063 16.4153 16.0038 17.5938C16.0013 18.7723 16.0001 19.518 16.0001 19.5801C16.0001 20.7418 14.945 21.6913 13.7426 21.6913C12.5497 21.6913 11.5976 20.7379 11.5976 19.5451C11.5976 18.3522 12.5497 17.4001 13.7426 17.4001C13.783 17.4001 13.8644 17.4133 14.0038 17.4301C14.0937 17.4408 14.1849 17.4324 14.2713 17.4054C14.3577 17.3783 14.4374 17.3332 14.5051 17.2731C14.5728 17.2129 14.6269 17.1391 14.664 17.0565C14.7011 16.9739 14.7202 16.8844 14.7201 16.7938V14.1051C14.72 13.9422 14.658 13.7856 14.5465 13.6669C14.435 13.5482 14.2825 13.4765 14.1201 13.4663C14.0203 13.46 13.8948 13.4476 13.7426 13.4476C10.3829 13.4476 7.64506 16.1854 7.64506 19.5451C7.64506 22.9048 10.3829 25.6426 13.7426 25.6426C17.1022 25.6426 19.8401 22.9048 19.8401 19.5451V13.7538C20.771 14.4984 21.9313 14.9701 23.2126 14.9701C23.3873 14.9701 23.5535 14.9597 23.7126 14.9451C23.8715 14.9304 24.0192 14.8569 24.1267 14.7389C24.2343 14.621 24.2938 14.4672 24.2938 14.3076V11.3188C24.2939 11.157 24.2327 11.0012 24.1226 10.8827C24.0124 10.7642 23.8614 10.6918 23.7001 10.6801C21.6875 10.5357 20.0832 8.96788 19.8738 6.97381C19.8574 6.81645 19.7833 6.67074 19.6658 6.56479C19.5483 6.45883 19.3958 6.40015 19.2376 6.40006H16.6676ZM17.3063 7.68006H18.7663C19.2314 9.79123 20.8812 11.4013 23.0138 11.8051V13.6388C21.6449 13.5693 20.4426 12.8864 19.7351 11.8101C19.6594 11.6949 19.5485 11.6072 19.419 11.56C19.2895 11.5129 19.1482 11.5088 19.0162 11.5484C18.8842 11.5881 18.7685 11.6692 18.6863 11.7799C18.6041 11.8905 18.5598 12.0247 18.5601 12.1626V19.5451C18.5601 22.2129 16.4105 24.3626 13.7426 24.3626C11.0747 24.3626 8.92506 22.2129 8.92506 19.5451C8.92506 16.9847 10.9224 14.9525 13.4401 14.7888V16.1813C11.7034 16.3429 10.3176 17.7679 10.3176 19.5451C10.3176 21.4294 11.8583 22.9713 13.7426 22.9713C15.6173 22.9713 17.2801 21.4954 17.2801 19.5801C17.2801 19.6114 17.2812 18.7748 17.2838 17.5963C17.2863 16.4178 17.2904 14.8525 17.2938 13.2888C17.2998 10.4812 17.3051 8.22355 17.3063 7.68006Z" fill="#FEFFFF"/>
</svg>
