<svg width="272" height="30" viewBox="0 0 272 30" fill="none" xmlns="http://www.w3.org/2000/svg">
<path d="M8.6838 29H0.63252L10.5708 0.904392H21.0962L31.0345 29H22.7735L21.0543 23.7583H10.4031L8.6838 29ZM13.8417 13.3587L12.4998 17.4682H18.9576L17.6157 13.3587L15.7287 6.31384L13.8417 13.3587ZM39.2967 29H31.7487V0.904392H39.2967L47.5577 13.5684L49.906 17.9714L49.3608 9.71048V0.904392H56.9089V29H49.6124L41.058 16.3779L38.6258 12.0588L39.2967 21.1584V29ZM73.9786 29H66.4305V7.61379H58.3373V0.904392H82.0718V7.61379H73.9786V29ZM91.0587 29H83.5106V0.904392H91.0587V29ZM105.392 29.3355C99.186 29.3355 93.6927 25.1002 93.6927 14.9103C93.6927 6.48158 99.1021 0.485055 108.495 0.485055C114.492 0.485055 119.146 3.16881 121.201 7.32025L114.911 12.3104C114.324 9.71048 111.976 7.78152 108.495 7.78152C104.092 7.78152 101.87 10.5911 101.87 14.9103C101.87 19.6907 104.554 22.2487 108.453 22.2487C111.389 22.2487 113.276 20.9907 114.408 19.1456H107.321V13.2748H121.495V29H116.379L114.785 19.1456C114.408 26.1066 111.053 29.3355 105.392 29.3355ZM132.706 29H125.158V0.904392H138.618C145.16 0.904392 149.857 3.50428 149.857 9.71048C149.857 15.1199 146.208 17.5102 141.428 17.9295C144.321 18.6424 145.579 20.4455 147.005 22.668L151.031 29H142.434L137.78 21.4939C136.648 19.6488 135.599 18.9359 133.293 18.9359H132.706V29ZM138.702 7.61379H132.706V12.8974H138.702C140.841 12.8974 141.889 11.9749 141.889 10.2556C141.889 8.4944 140.841 7.61379 138.702 7.61379ZM158.687 29H150.636L160.574 0.904392H171.099L181.038 29H172.777L171.057 23.7583H160.406L158.687 29ZM163.845 13.3587L162.503 17.4682H168.961L167.619 13.3587L165.732 6.31384L163.845 13.3587ZM198.362 29H188.004L178.36 0.904392H187.375L191.275 14.5329L193.33 24.597L195.385 14.5329L199.243 0.904392H208.007L198.362 29ZM216.614 29H209.066V0.904392H216.614V29ZM233.687 29H226.139V7.61379H218.046V0.904392H241.78V7.61379H233.687V29ZM260.119 29H252.57V19.9423L241.752 0.904392H251.312L254.038 7.11059L256.512 13.5684L258.986 7.11059L261.754 0.904392H271.063L260.119 20.0262V29Z" fill="url(#paint0_linear_320_40)"/>
<defs>
<linearGradient id="paint0_linear_320_40" x1="135.923" y1="-9" x2="135.923" y2="43" gradientUnits="userSpaceOnUse">
<stop offset="0.13" stop-color="white"/>
<stop offset="1" stop-color="#999999"/>
</linearGradient>
</defs>
</svg>
