<svg width="56" height="56" viewBox="0 0 56 56" fill="none" xmlns="http://www.w3.org/2000/svg">
<g clip-path="url(#clip0_320_3142)">
<circle cx="28" cy="28" r="28" fill="url(#paint0_linear_320_3142)"/>
<circle cx="28.0001" cy="28" r="20.7005" transform="rotate(75 28.0001 28)" fill="url(#paint1_linear_320_3142)"/>
<path d="M28.1734 19.25H27.8267L24.9775 24.9375H31.0225L28.1734 19.25ZM32.8317 24.9375H38.4217L36.1792 20.4525C35.9998 20.0915 35.7233 19.7877 35.3807 19.5753C35.0382 19.3629 34.6431 19.2502 34.24 19.25H29.9825L32.8317 24.9375ZM38.1617 26.5625H28.8125V37.775L38.1617 26.5625ZM27.1875 37.775V26.5625H17.8384L27.1875 37.775ZM23.1684 24.9375L26.0067 19.25H21.76C21.3569 19.2502 20.9619 19.3629 20.6193 19.5753C20.2768 19.7877 20.0002 20.0915 19.8209 20.4525L17.5784 24.9375H23.1684Z" fill="#030404"/>
</g>
<defs>
<linearGradient id="paint0_linear_320_3142" x1="28" y1="0" x2="28" y2="56" gradientUnits="userSpaceOnUse">
<stop stop-color="#B4EBF8"/>
<stop offset="1" stop-color="#789DFA"/>
</linearGradient>
<linearGradient id="paint1_linear_320_3142" x1="28.0001" y1="7.29944" x2="28.0001" y2="48.7005" gradientUnits="userSpaceOnUse">
<stop stop-color="#B4EBF8"/>
<stop offset="1" stop-color="#789DFA"/>
</linearGradient>
<clipPath id="clip0_320_3142">
<rect width="56" height="56" fill="white"/>
</clipPath>
</defs>
</svg>
