<svg width="56" height="56" viewBox="0 0 56 56" fill="none" xmlns="http://www.w3.org/2000/svg">
<path d="M4.24952 19.3802L45.6013 19.387C46.0116 19.3865 46.473 19.3474 46.8723 19.4463L47.2934 19.5607C48.6691 20.0017 50.0014 21.3996 50.17 22.8908C50.2266 23.3916 50.1992 23.9185 50.1993 24.4229L50.1961 47.9559C50.1953 48.7279 50.2144 49.5014 50.117 50.2689C49.8718 52.1983 48.1567 53.5854 46.286 53.7798L45.9765 53.8016L5.16134 53.8068C4.63279 53.8068 4.08847 53.8325 3.56176 53.7931C1.81374 53.6624 0.452133 52.0487 0.067679 50.4352L0.0323294 50.2555C-0.0227758 49.7792 0.0105198 49.2699 0.0100416 48.7889L0.0121823 24.6653C0.0118889 24.1563 -0.0254162 23.6132 0.0320035 23.1079C0.243416 21.2476 1.69258 19.6066 3.59567 19.4194L4.24952 19.3802Z" fill="url(#paint0_linear_320_3130)"/>
<path d="M12.5838 24.2206L38.3595 24.2268C39.2829 24.2469 39.3279 24.086 39.5081 24.7492C40.0667 26.8045 41.3654 28.7955 43.2577 29.8722C44.7766 30.7365 45.6716 31.0314 45.6946 32.9904L45.7002 39.0249C45.6969 41.4369 45.4408 41.4278 43.3744 42.7252C41.9135 43.6426 40.7688 45.0184 40.0776 46.5832L39.6478 47.6859C39.1017 49.206 38.7523 48.9689 37.1828 48.9804C36.7116 48.9367 36.2011 48.9757 35.7262 48.976L11.3808 48.9784C10.5849 48.9459 10.3547 48.1744 10.142 47.5242C9.50301 45.5712 8.3881 43.8783 6.58309 42.7818C4.23576 41.3561 4.19455 41.3522 4.18723 38.761L4.18384 33.7817C4.18832 31.1665 4.377 31.1706 6.47694 29.8916C8.3294 28.7635 9.54662 27.0265 10.2373 25.0203C10.3428 24.7137 10.3675 24.3316 10.7446 24.2668C11.3276 24.1664 11.9907 24.222 12.5838 24.2206Z" fill="url(#paint1_linear_320_3130)"/>
<path d="M10.6882 34.195C10.866 34.172 11.0784 34.1822 11.2505 34.2318L11.2991 34.2465C13.4504 34.8749 13.4347 37.8532 11.0174 38.3569C9.65584 38.495 8.34706 37.2125 8.77044 35.7701L8.78641 35.7188C9.06173 34.8005 9.78061 34.3156 10.6882 34.195Z" fill="#7294F7"/>
<path d="M39.2521 34.1888C41.9537 34.0181 42.4324 37.8335 39.6227 38.3604C39.1352 38.4002 38.5668 38.2636 38.1852 37.9346L38.1468 37.9007C37.772 37.5789 37.534 37.1816 37.4088 36.6961L37.3498 36.4312C37.1914 35.1899 38.1453 34.3446 39.2521 34.1888Z" fill="#7294F7"/>
<path d="M24.374 25.2129C24.9341 25.1693 25.5504 25.1466 26.1075 25.2171C31.4791 25.8961 35.4106 31.4743 35.4016 36.6856C35.3921 42.1326 31.4541 47.7454 25.8271 48.3282C19.895 48.6608 15.3522 43.6475 14.8491 37.9598C14.3376 32.1765 18.253 25.7771 24.374 25.2129Z" fill="url(#paint2_linear_320_3130)"/>
<path d="M25.0653 28.3903C25.3478 28.4252 25.6936 28.6432 25.7797 28.9217L25.7897 28.9569C26.1016 29.9636 25.3478 29.7105 26.689 30.3181C27.1691 30.5356 27.5514 30.8496 27.8564 31.2814C28.466 32.1443 28.5495 33.8143 27.3026 33.4795C26.9819 33.3934 26.7633 32.7843 26.6062 32.509C25.0937 29.8578 21.7092 32.6699 23.1808 35.0779C23.9768 36.3805 25.0269 35.8959 26.0058 36.1743L26.0647 36.1922C29.1151 37.0882 29.5325 41.2787 26.9224 43.0061C26.7917 43.0927 25.8421 43.5919 25.8293 43.6147C25.6888 43.8638 26.2535 45.1539 25.0963 45.4462C23.6586 45.4984 24.2337 43.7799 24.1294 43.6521C24.1016 43.618 23.7773 43.5301 23.7072 43.4976C21.365 42.4071 21.0875 39.6566 22.7074 40.294C23.473 40.5953 23.057 41.5294 24.5366 42.0437C26.8741 42.856 28.4136 38.222 25.4491 37.5553C24.8882 37.4292 24.277 37.5339 23.7299 37.3437C20.6792 36.2827 20.3156 31.681 23.2929 30.3363C23.7809 30.1159 24.0982 30.2239 24.0878 29.7564C24.071 29.002 24.2439 28.5384 25.0653 28.3903Z" fill="#030404"/>
<rect x="28.6431" y="2" width="27.3569" height="27.3563" rx="6" fill="url(#paint3_linear_320_3130)"/>
<path d="M38.0637 14.6383C37.989 14.7131 37.9003 14.7725 37.8026 14.813C37.7049 14.8534 37.6002 14.8743 37.4945 14.8743C37.3888 14.8743 37.2841 14.8534 37.1864 14.813C37.0888 14.7725 37 14.7131 36.9253 14.6383L33.7073 11.4203C33.6325 11.3456 33.5731 11.2568 33.5326 11.1592C33.4921 11.0615 33.4713 10.9568 33.4713 10.8511C33.4713 10.7454 33.4921 10.6407 33.5326 10.543C33.5731 10.4453 33.6325 10.3566 33.7073 10.2819L36.9253 7.06383C37.0001 6.98908 37.0888 6.92979 37.1865 6.88934C37.2841 6.84888 37.3888 6.82806 37.4945 6.82806C37.6002 6.82806 37.7049 6.84888 37.8026 6.88934C37.9002 6.92979 37.989 6.98908 38.0637 7.06383C38.2147 7.21479 38.2995 7.41954 38.2995 7.63302C38.2995 7.73873 38.2787 7.84341 38.2382 7.94107C38.1977 8.03873 38.1385 8.12747 38.0637 8.20222L36.2184 10.0466L50.3667 10.0466C50.5801 10.0466 50.7847 10.1313 50.9356 10.2822C51.0865 10.4331 51.1712 10.6377 51.1712 10.8511C51.1712 11.0644 51.0865 11.2691 50.9356 11.42C50.7847 11.5708 50.5801 11.6556 50.3667 11.6556L36.2184 11.6556L38.0637 13.4999C38.1385 13.5747 38.1978 13.6634 38.2383 13.7611C38.2788 13.8587 38.2997 13.9634 38.2997 14.0691C38.2997 14.1749 38.2788 14.2795 38.2383 14.3772C38.1978 14.4749 38.1385 14.5636 38.0637 14.6383ZM47.7179 24.2925L50.9359 21.0744C51.0107 20.9997 51.0701 20.911 51.1105 20.8133C51.151 20.7157 51.1719 20.611 51.1719 20.5052C51.1719 20.3995 51.151 20.2948 51.1105 20.1972C51.0701 20.0995 51.0107 20.0108 50.9359 19.936L47.7179 16.718C47.5669 16.567 47.3622 16.4822 47.1487 16.4822C46.9352 16.4822 46.7304 16.567 46.5795 16.718C46.4285 16.869 46.3437 17.0737 46.3437 17.2872C46.3437 17.5007 46.4285 17.7054 46.5795 17.8564L48.4248 19.7007L34.2765 19.7007C34.0631 19.7007 33.8585 19.7855 33.7076 19.9364C33.5567 20.0872 33.4719 20.2919 33.4719 20.5052C33.4719 20.7186 33.5567 20.9232 33.7076 21.0741C33.8585 21.225 34.0631 21.3098 34.2765 21.3098L48.4248 21.3098L46.5795 23.1541C46.4285 23.3051 46.3437 23.5098 46.3437 23.7233C46.3437 23.9368 46.4285 24.1415 46.5795 24.2925C46.7304 24.4435 46.9352 24.5283 47.1487 24.5283C47.3622 24.5283 47.5669 24.4435 47.7179 24.2925Z" fill="black"/>
<defs>
<linearGradient id="paint0_linear_320_3130" x1="25.1442" y1="53.8064" x2="25.016" y2="19.3563" gradientUnits="userSpaceOnUse">
<stop stop-color="#6C8DF9"/>
<stop offset="1" stop-color="#A0C5F5"/>
</linearGradient>
<linearGradient id="paint1_linear_320_3130" x1="24.9938" y1="48.954" x2="24.8521" y2="24.1759" gradientUnits="userSpaceOnUse">
<stop stop-color="#90B7F6"/>
<stop offset="1" stop-color="#BCF4F8"/>
</linearGradient>
<linearGradient id="paint2_linear_320_3130" x1="25.052" y1="48.2655" x2="25.1391" y2="25.2257" gradientUnits="userSpaceOnUse">
<stop stop-color="#6B8CFC"/>
<stop offset="1" stop-color="#9EC4F5"/>
</linearGradient>
<linearGradient id="paint3_linear_320_3130" x1="42.3215" y1="2" x2="42.3215" y2="29.3563" gradientUnits="userSpaceOnUse">
<stop stop-color="#6588FB"/>
<stop offset="1" stop-color="#9CC1F6"/>
</linearGradient>
</defs>
</svg>
