<svg width="27" height="24" viewBox="0 0 27 24" fill="none" xmlns="http://www.w3.org/2000/svg">
<path opacity="0.2" d="M26 4.00013L22 8.00013C21.4675 16.3551 14.49 23.0001 6 23.0001C2 23.0001 1 21.5001 1 21.5001C1 21.5001 5 20.0001 7 17.0001C7 17.0001 0.10625 13.0001 1.0975 2.00013C1.0975 2.00013 6.055 7.00013 12 8.00013V6.00013C12 3.25013 14.25 0.966375 17 1.00013C17.9705 1.0114 18.9175 1.29976 19.7296 1.83126C20.5417 2.36276 21.185 3.11526 21.5837 4.00013H26Z" fill="#FEFFFF"/>
<path d="M26.9237 3.61753C26.8481 3.43479 26.7199 3.27858 26.5555 3.16867C26.3911 3.05876 26.1978 3.00007 26 3.00003H22.1962C21.6645 2.09517 20.9077 1.34332 19.9993 0.817622C19.0909 0.29192 18.062 0.0102566 17.0125 2.71916e-05C16.2308 -0.0103423 15.4549 0.135832 14.7306 0.42994C14.0063 0.724048 13.3482 1.16014 12.795 1.71253C12.2249 2.27132 11.7724 2.93853 11.4642 3.67487C11.1559 4.4112 10.9981 5.20177 11 6.00003V6.76128C5.96749 5.43378 1.85124 1.34003 1.80749 1.29628C1.67332 1.16093 1.50328 1.06673 1.31738 1.02479C1.13148 0.982838 0.937466 0.994884 0.758183 1.0595C0.5789 1.12413 0.421814 1.23863 0.305426 1.38953C0.189037 1.54044 0.118193 1.72146 0.101235 1.91128C-0.436265 7.88503 1.29749 11.8825 2.85124 14.1838C3.6092 15.3215 4.53126 16.3409 5.58748 17.2088C3.67873 19.4 0.681235 20.5513 0.649985 20.5638C0.508878 20.6166 0.381538 20.7007 0.27748 20.8097C0.173423 20.9186 0.0953382 21.0497 0.0490614 21.1931C0.00278451 21.3365 -0.0104881 21.4885 0.0102349 21.6378C0.0309579 21.787 0.0851406 21.9297 0.168735 22.055C0.261235 22.195 0.637485 22.6863 1.55374 23.145C2.68874 23.7125 4.18498 24 5.99998 24C14.835 24 22.215 17.1975 22.97 8.44503L26.7075 4.70753C26.8473 4.5676 26.9425 4.38935 26.981 4.19533C27.0194 4.00131 26.9995 3.80023 26.9237 3.61753ZM21.2987 7.29378C21.1273 7.46564 21.0242 7.69401 21.0087 7.93628C20.5 15.8225 13.91 22 5.99998 22C4.67999 22 3.74998 21.825 3.09748 21.615C4.53748 20.8338 6.54249 19.49 7.83249 17.555C7.90805 17.4417 7.95967 17.3142 7.98418 17.1802C8.00869 17.0462 8.00558 16.9086 7.97503 16.7759C7.94448 16.6432 7.88714 16.5181 7.80653 16.4083C7.72592 16.2986 7.62373 16.2064 7.50624 16.1375C7.48998 16.1275 5.89874 15.17 4.44623 12.9763C2.81749 10.5138 1.99999 7.54753 1.99999 4.13628C3.99999 5.76128 7.65624 8.28378 11.8362 8.98628C11.9794 9.01005 12.1261 9.00236 12.266 8.96374C12.4059 8.92513 12.5358 8.85651 12.6465 8.76266C12.7573 8.66882 12.8462 8.55199 12.9073 8.42029C12.9683 8.28859 12.9999 8.14518 13 8.00003V6.00003C12.9989 5.46659 13.1044 4.93831 13.3105 4.44629C13.5166 3.95427 13.819 3.50843 14.2 3.13503C14.565 2.76886 14.9998 2.47972 15.4786 2.28475C15.9574 2.08978 16.4705 1.99296 16.9875 2.00003C18.57 2.02003 20.0487 2.98503 20.6675 4.40128C20.7455 4.57933 20.8737 4.7308 21.0364 4.83714C21.1991 4.94348 21.3893 5.00008 21.5837 5.00003H23.5837L21.2987 7.29378Z" fill="#FEFFFF"/>
</svg>
