<svg width="56" height="56" viewBox="0 0 56 56" fill="none" xmlns="http://www.w3.org/2000/svg">
<path d="M21.4191 10.8698C21.6365 10.7863 21.908 10.8049 22.1359 10.8041L35.113 10.8291L35.1698 10.8597C35.7459 10.9912 36.1662 11.0199 36.6747 11.3763L36.7155 11.4046C38.3756 12.5896 37.829 14.9379 36.009 15.6619C35.1369 16.0088 34.3759 15.9504 33.458 15.9482L30.3246 15.8364C29.3103 15.7916 28.2458 15.7727 27.2336 15.8398C27.3256 15.8638 27.4186 15.873 27.5129 15.884L24.9859 16.0158L24.9748 15.9622C24.6982 15.9026 24.4129 15.9495 24.1322 15.9507L23.0302 15.9284C22.2997 15.9326 21.3871 16.0457 20.6936 15.8124L20.4324 15.7222C17.9814 14.7933 18.1916 11.5028 20.7459 11.0218C20.9449 10.9844 21.2016 10.9713 21.3838 10.8891L21.4191 10.8698Z" fill="#B1E3F8"/>
<path d="M21.419 10.8616C21.0966 10.5132 20.8437 10.0727 20.576 9.67252L19.3575 7.88794C18.4755 6.60334 17.42 5.60421 18.0626 3.90121L18.2859 3.39343C18.6576 2.71631 19.2759 2.18647 20.0249 1.97662L20.0819 1.96106C21.2468 1.63442 24.1501 2.88901 25.2465 3.40219C25.2449 1.81572 25.906 0.441673 27.5849 0.0770395L27.6531 0.0627129C29.0657 -0.244194 30.3667 0.61023 30.9697 1.86417C31.1804 2.30203 31.1281 2.88403 31.1543 3.3645L34.6174 2.04895C37.1806 1.24902 39.213 3.51758 38.3666 5.8382C38.1149 6.52779 37.5325 7.10471 37.1144 7.70101C36.4079 8.70877 35.6925 9.75869 35.1129 10.8462L22.1358 10.8041C21.9079 10.8049 21.6364 10.7863 21.419 10.8616Z" fill="url(#paint0_linear_320_3103)"/>
<path d="M27.5129 15.9283C29.1314 15.9283 30.7535 15.8721 32.3596 16.1082C38.0538 16.9451 42.7853 20.9906 45.5437 25.8858C46.4051 27.4145 47.0216 29.1169 47.7083 30.7311C48.978 33.7152 50.4728 36.7407 51.1422 39.9323C52.828 47.9693 47.0643 55.1571 39.0541 55.9368C37.9078 56.0483 36.7064 55.9784 35.5536 55.9781L18.2705 55.9695C10.7995 55.8772 4.87135 49.8637 5.00212 42.3831C5.04089 40.1689 5.7508 37.9774 6.54991 35.9338L8.41225 31.4487C9.30933 29.3043 10.1428 27.1112 11.3432 25.1123C14.045 20.6132 19.5266 16.1879 24.9859 16.015L27.5129 15.9283ZM28.3016 22.5775C21.2532 22.6135 15.3133 27.8075 14.6742 34.9222C13.9757 42.6975 20.1833 49.8454 28.0685 49.8106C31.7063 49.7878 35.279 48.3238 37.8431 45.7272C43.001 40.5038 42.9959 31.636 37.7283 26.4746C35.2392 24.0357 31.7932 22.5617 28.3016 22.5775Z" fill="url(#paint1_linear_320_3103)"/>
<path d="M21.2997 27.207C21.6711 26.8699 22.1586 26.6012 22.5945 26.3547C27.1439 23.7822 32.9209 24.5722 36.477 28.5198C38.8417 31.1447 39.6014 33.8114 39.4022 37.3305L39.3587 37.6761C39.2621 38.246 39.1706 38.825 39.0107 39.3813C36.8412 46.9298 27.8028 50.0202 21.4738 45.2961C21.2009 45.0925 20.86 44.8507 20.638 44.593C19.7625 43.9289 19.0295 42.87 18.4816 41.9321C15.8235 37.3837 16.5009 31.2471 20.5865 27.7573C20.8078 27.5683 21.0461 27.3508 21.2997 27.207ZM25.6161 29.2764C24.1862 29.5542 24.5704 31.1851 24.5715 32.3287L24.5919 41.5374C24.5987 41.7535 24.5861 42.0121 24.6463 42.2212C24.9666 43.332 26.8957 43.492 26.8452 41.6629C26.8341 41.2606 27.273 41.2409 27.677 41.0759L32.1293 39.2463C32.7445 39.0165 33.9859 38.7373 34.2809 38.1079C34.5849 37.4591 34.2809 36.6885 33.6008 36.4431L33.411 36.396C33.0414 36.3234 32.4978 36.6413 32.1671 36.8021L27.3923 38.8526C27.1973 38.9428 26.9396 38.9801 26.7765 39.116L26.7993 35.9668C27.1073 35.7958 27.4654 35.7126 27.7984 35.5928L30.5066 34.6054C31.014 34.4097 31.6119 34.2244 32.0498 33.8941C33.0806 33.1166 32.163 31.5343 31.0078 31.9119C30.3537 32.1258 29.7045 32.4753 29.0671 32.7421L27.2293 33.5135C27.0941 33.5678 26.9442 33.582 26.8241 33.6686L26.7811 31.0857C26.7842 30.1821 26.9484 29.2749 25.6583 29.2759L25.6161 29.2764Z" fill="url(#paint2_linear_320_3103)"/>
<circle cx="28" cy="36" r="8" fill="url(#paint3_linear_320_3103)"/>
<path d="M28.125 28C26.518 28 24.9471 28.4765 23.611 29.3693C22.2748 30.2621 21.2334 31.531 20.6185 33.0157C20.0035 34.5003 19.8426 36.134 20.1561 37.7101C20.4696 39.2862 21.2435 40.7339 22.3798 41.8702C23.5161 43.0065 24.9638 43.7804 26.5399 44.0939C28.116 44.4074 29.7497 44.2465 31.2343 43.6315C32.719 43.0166 33.9879 41.9752 34.8807 40.639C35.7735 39.3029 36.25 37.732 36.25 36.125C36.2477 33.9708 35.391 31.9055 33.8677 30.3823C32.3445 28.859 30.2792 28.0023 28.125 28ZM28.125 43C26.7653 43 25.436 42.5968 24.3055 41.8414C23.1749 41.0859 22.2937 40.0122 21.7733 38.7559C21.253 37.4997 21.1168 36.1174 21.3821 34.7838C21.6474 33.4501 22.3022 32.2251 23.2636 31.2636C24.2251 30.3022 25.4501 29.6474 26.7838 29.3821C28.1174 29.1168 29.4997 29.253 30.756 29.7733C32.0122 30.2937 33.0859 31.1749 33.8414 32.3055C34.5968 33.436 35 34.7653 35 36.125C34.9979 37.9477 34.2729 39.6952 32.9841 40.9841C31.6952 42.2729 29.9477 42.9979 28.125 43ZM31.25 37.6875C31.25 38.2677 31.0195 38.8241 30.6093 39.2343C30.1991 39.6445 29.6427 39.875 29.0625 39.875H28.75V40.5C28.75 40.6658 28.6842 40.8247 28.5669 40.9419C28.4497 41.0592 28.2908 41.125 28.125 41.125C27.9592 41.125 27.8003 41.0592 27.6831 40.9419C27.5659 40.8247 27.5 40.6658 27.5 40.5V39.875H26.25C26.0842 39.875 25.9253 39.8092 25.8081 39.6919C25.6909 39.5747 25.625 39.4158 25.625 39.25C25.625 39.0842 25.6909 38.9253 25.8081 38.8081C25.9253 38.6908 26.0842 38.625 26.25 38.625H29.0625C29.3111 38.625 29.5496 38.5262 29.7254 38.3504C29.9012 38.1746 30 37.9361 30 37.6875C30 37.4389 29.9012 37.2004 29.7254 37.0246C29.5496 36.8488 29.3111 36.75 29.0625 36.75H27.1875C26.6073 36.75 26.0509 36.5195 25.6407 36.1093C25.2305 35.6991 25 35.1427 25 34.5625C25 33.9823 25.2305 33.4259 25.6407 33.0157C26.0509 32.6055 26.6073 32.375 27.1875 32.375H27.5V31.75C27.5 31.5842 27.5659 31.4253 27.6831 31.3081C27.8003 31.1908 27.9592 31.125 28.125 31.125C28.2908 31.125 28.4497 31.1908 28.5669 31.3081C28.6842 31.4253 28.75 31.5842 28.75 31.75V32.375H30C30.1658 32.375 30.3247 32.4408 30.4419 32.5581C30.5592 32.6753 30.625 32.8342 30.625 33C30.625 33.1658 30.5592 33.3247 30.4419 33.4419C30.3247 33.5592 30.1658 33.625 30 33.625H27.1875C26.9389 33.625 26.7004 33.7238 26.5246 33.8996C26.3488 34.0754 26.25 34.3139 26.25 34.5625C26.25 34.8111 26.3488 35.0496 26.5246 35.2254C26.7004 35.4012 26.9389 35.5 27.1875 35.5H29.0625C29.6427 35.5 30.1991 35.7305 30.6093 36.1407C31.0195 36.5509 31.25 37.1073 31.25 37.6875Z" fill="#030404"/>
<defs>
<linearGradient id="paint0_linear_320_3103" x1="17.9496" y1="4.75965" x2="38.2738" y2="6.67109" gradientUnits="userSpaceOnUse">
<stop stop-color="#6788F7"/>
<stop offset="1" stop-color="#8BAEFA"/>
</linearGradient>
<linearGradient id="paint1_linear_320_3103" x1="5.08928" y1="35.8596" x2="51.3234" y2="36.0247" gradientUnits="userSpaceOnUse">
<stop stop-color="#698DFC"/>
<stop offset="1" stop-color="#A1C7F5"/>
</linearGradient>
<linearGradient id="paint2_linear_320_3103" x1="16.8643" y1="35.6137" x2="39.3936" y2="36.7985" gradientUnits="userSpaceOnUse">
<stop stop-color="#779BFB"/>
<stop offset="1" stop-color="#B8F1F7"/>
</linearGradient>
<linearGradient id="paint3_linear_320_3103" x1="28" y1="28" x2="28" y2="44" gradientUnits="userSpaceOnUse">
<stop stop-color="#B4EBF8"/>
<stop offset="1" stop-color="#789DFA"/>
</linearGradient>
</defs>
</svg>
