<svg width="28" height="22" viewBox="0 0 28 22" fill="none" xmlns="http://www.w3.org/2000/svg">
<path opacity="0.2" d="M26.3237 3.94137C26.2468 3.63302 26.0974 3.34746 25.8881 3.10834C25.6788 2.86922 25.4155 2.68343 25.12 2.56637C20.935 0.956366 14 1.00012 14 1.00012C14 1.00012 7.065 0.956366 2.875 2.57262C2.57954 2.68968 2.31623 2.87547 2.1069 3.11459C1.89756 3.35371 1.74822 3.63927 1.67125 3.94762C1.38375 5.06762 1 7.26137 1 11.0001C1 14.7389 1.38375 16.9326 1.67625 18.0589C1.7536 18.3655 1.90258 18.6495 2.11096 18.8875C2.31935 19.1254 2.58119 19.3105 2.875 19.4276C7.065 21.0439 14 21.0001 14 21.0001C14 21.0001 20.935 21.0439 25.125 19.4276C25.4197 19.3112 25.6826 19.1263 25.8919 18.8883C26.1012 18.6504 26.2509 18.3661 26.3288 18.0589C26.6213 16.9339 27.005 14.7389 27.005 11.0001C27.005 7.26137 26.6162 5.06762 26.3237 3.94137ZM12 15.0001V7.00012L18 11.0001L12 15.0001Z" fill="#FEFFFF"/>
<path d="M18.555 10.1675L12.555 6.16751C12.4044 6.067 12.2293 6.00929 12.0484 6.00053C11.8675 5.99176 11.6877 6.03228 11.528 6.11775C11.3684 6.20322 11.2349 6.33043 11.1419 6.48582C11.0489 6.6412 10.9999 6.81892 11 7.00001V15C10.9999 15.1811 11.0489 15.3588 11.1419 15.5142C11.2349 15.6696 11.3684 15.7968 11.528 15.8823C11.6877 15.9677 11.8675 16.0082 12.0484 15.9995C12.2293 15.9907 12.4044 15.933 12.555 15.8325L18.555 11.8325C18.6922 11.7412 18.8047 11.6175 18.8825 11.4722C18.9603 11.327 19.001 11.1648 19.001 11C19.001 10.8352 18.9603 10.673 18.8825 10.5278C18.8047 10.3826 18.6922 10.2588 18.555 10.1675ZM13 13.1313V8.87501L16.1975 11L13 13.1313ZM27.2913 3.69C27.1735 3.22919 26.9478 2.80298 26.6329 2.44654C26.318 2.09011 25.9228 1.81366 25.48 1.64C21.195 -0.0149953 14.375 4.75492e-06 14 4.75492e-06C13.625 4.75492e-06 6.805 -0.0149953 2.52 1.64C2.0772 1.81366 1.68204 2.09011 1.36712 2.44654C1.05219 2.80298 0.826532 3.22919 0.70875 3.69C0.385 4.9375 0 7.21751 0 11C0 14.7825 0.385 17.0625 0.70875 18.31C0.826356 18.7711 1.05194 19.1975 1.36687 19.5542C1.68181 19.9108 2.07706 20.1875 2.52 20.3613C6.625 21.945 13.05 22 13.9175 22H14.0825C14.95 22 21.3787 21.945 25.48 20.3613C25.9229 20.1875 26.3182 19.9108 26.6331 19.5542C26.9481 19.1975 27.1736 18.7711 27.2913 18.31C27.615 17.06 28 14.7825 28 11C28 7.21751 27.615 4.9375 27.2913 3.69ZM25.355 17.815C25.3169 17.9684 25.243 18.1105 25.1394 18.2298C25.0357 18.3491 24.9053 18.4421 24.7588 18.5013C20.8025 20.0288 14.0737 20.0013 13.9937 20.0013C13.9137 20.0013 7.1975 20.0238 3.24375 18.5013C3.09721 18.4421 2.96678 18.3491 2.86313 18.2298C2.75949 18.1105 2.6856 17.9684 2.6475 17.815C2.35 16.6738 2 14.5713 2 11C2 7.42876 2.35 5.32626 2.645 4.19126C2.68239 4.03698 2.75596 3.89382 2.85965 3.77362C2.96333 3.65342 3.09413 3.55963 3.24125 3.50001C7.1975 1.9775 13.925 2.00001 14.0063 2.00001C14.0875 2.00001 20.8025 1.9775 24.7563 3.50001C24.9028 3.55915 25.0332 3.65217 25.1369 3.77146C25.2405 3.89074 25.3144 4.03289 25.3525 4.18625C25.65 5.32626 26 7.42876 26 11C26 14.5713 25.65 16.6738 25.355 17.8088V17.815Z" fill="#FEFFFF"/>
</svg>
