<svg width="110" height="143" viewBox="0 0 110 143" fill="none" xmlns="http://www.w3.org/2000/svg">
<path d="M43.774 22.1705C36.8887 33.1749 26.0689 46.1212 16.7245 56.4783C15.413 57.9348 14.1835 59.4721 13.1179 61.1713C2.95388 75.5741 1.23254 95.0745 8.36378 111.015C14.5934 125.417 27.6263 136.826 43.2003 140.387C83.9384 150.177 117.463 111.257 102.217 71.7711C101.07 69.02 100.004 66.0262 98.6108 63.356C94.1845 56.3974 88.2008 50.3288 82.545 43.9365C75.4957 36.6542 67.2169 24.2743 63.5284 17.7202C59.266 10.4379 56.3971 4.20752 54.5938 -3.75777e-05C50.8233 9.7097 46.9708 17.3966 43.774 22.1705Z" fill="url(#paint0_linear_3359_1933)"/>
<path d="M54.8267 18.9928C53.8618 19.4639 53.4098 21.2176 52.8968 22.2605C51.4294 25.6454 49.9443 28.8414 48.1768 31.9711C42.1774 42.4766 33.7267 52.1889 25.6982 61.4475C6.36694 83.5664 18.0639 120.845 47.7843 126.712C82.6615 133.057 105.161 97.3855 88.5476 66.5998C83.4252 58.3922 76.0251 51.9552 70.2801 44.1804C65.4428 37.6306 61.8149 31.532 58.2967 24.7C57.4869 23.1218 56.72 21.4171 55.9906 19.9235C55.7538 19.4582 55.2841 18.8334 54.8705 18.9812L54.8267 18.9928Z" fill="white"/>
<path d="M54.8785 54.8666C65.0493 54.7348 73.5799 61.6078 78.4786 69.2775C89.6717 85.2029 85.5318 109.915 65.2501 118.017C51.7599 123.518 36.2546 116.671 29.5663 104.271C18.6868 85.4118 31.8337 55.9162 54.7873 54.8684L54.8785 54.8666Z" fill="#045F79"/>
<mask id="mask0_3359_1933" style="mask-type:luminance" maskUnits="userSpaceOnUse" x="7" y="26" width="77" height="76">
<path d="M12.9383 45.8128C7.48878 54.786 6.38715 66.6835 9.89322 76.5566C24.637 116.412 82.8116 107.031 83.9935 64.635V64.5469C83.6231 41.0529 64.8242 26.9572 45.6527 26.9581C33.2876 26.9586 20.766 32.8234 12.9383 45.8128Z" fill="white"/>
</mask>
<g mask="url(#mask0_3359_1933)">
<path d="M54.6875 54.4605C64.8354 54.3282 73.3461 61.2142 78.234 68.8977C89.4018 84.8525 85.2709 109.609 65.0352 117.727C51.5762 123.238 36.1061 116.378 29.4327 103.955C18.578 85.0618 31.6951 55.5123 54.5964 54.4623L54.6875 54.4605Z" fill="#0B7B9B"/>
</g>
<path d="M44.3367 75.4081C44.3714 79.4498 40.6672 82.9243 36.5972 82.7876C26.355 82.2077 27.1712 67.3224 37.3875 67.8509C41.2126 68.1205 44.3997 71.5341 44.3369 75.3195L44.3367 75.4081Z" fill="white"/>
<defs>
<linearGradient id="paint0_linear_3359_1933" x1="14.0196" y1="121.776" x2="94.9273" y2="39.8149" gradientUnits="userSpaceOnUse">
<stop stop-color="#F05122"/>
<stop offset="1" stop-color="#702D8E"/>
</linearGradient>
</defs>
</svg>
