<svg width="40" height="40" viewBox="0 0 40 40" fill="none" xmlns="http://www.w3.org/2000/svg">
<circle cx="20" cy="20" r="20" fill="#FF5001"/>
<path d="M25.8146 21.6585C25.8484 21.6732 25.8822 21.6878 25.917 21.7029C26.1679 21.8136 26.4137 21.9336 26.6591 22.056C26.72 22.0858 26.7809 22.1156 26.8419 22.1454C27.0469 22.2462 27.2504 22.3497 27.4539 22.4534C27.5033 22.4784 27.5527 22.5034 27.6035 22.5291C30.742 24.1211 30.742 24.1211 31.2633 25.4896C31.3523 25.7703 31.3512 26.0453 31.3475 26.3376C31.3472 26.3924 31.3468 26.4472 31.3465 26.5037C31.3407 26.8572 31.3103 27.1804 31.2173 27.5223C31.1338 27.8505 31.125 28.1741 31.1183 28.5108C31.1004 29.301 31.0286 29.9685 30.4337 30.5496C30.4002 30.5808 30.3667 30.612 30.3322 30.6441C29.9613 31.0063 29.8304 31.4468 29.7174 31.9388C29.5543 32.6474 29.2507 33.2529 28.6338 33.6683C28.267 33.8898 27.8342 34.084 27.3984 34.0847C27.3409 34.0848 27.3409 34.0848 27.2822 34.0849C27.2426 34.0847 27.2029 34.0845 27.1621 34.0843C27.1228 34.0845 27.0836 34.0847 27.0431 34.0849C26.826 34.0845 26.6249 34.0673 26.4107 34.0284C25.9115 33.9861 25.5667 34.064 25.1191 34.2768C25.0025 34.3234 24.8855 34.3689 24.7682 34.4134C24.689 34.4438 24.689 34.4438 24.6081 34.4748C24.208 34.6245 23.7254 34.6492 23.3182 34.5004C22.9214 34.3125 22.5901 34.042 22.2874 33.7273C21.8752 33.3061 21.4001 33.0891 20.8679 32.8565C20.1323 32.5303 19.4821 32.0562 19.1431 31.3023C19.0053 30.9362 18.9505 30.6008 18.9527 30.2094C18.9525 30.1762 18.9523 30.1429 18.9521 30.1087C18.9522 30.0755 18.9523 30.0422 18.9523 30.008C18.9524 29.9787 18.9525 29.9493 18.9525 29.9191C18.9589 29.8058 18.9589 29.8058 18.9838 29.6308C19.0184 29.3628 19.0157 29.0956 19.0152 28.8258C19.0153 28.7708 19.0153 28.7159 19.0154 28.6592C19.0154 28.5436 19.0153 28.4279 19.0151 28.3123C19.0148 28.1356 19.0151 27.9589 19.0154 27.7822C19.0154 27.6695 19.0153 27.5568 19.0152 27.4441C19.0153 27.3915 19.0154 27.3388 19.0155 27.2846C19.0148 27.0424 19.0067 26.8151 18.9589 26.5767C18.9189 25.7305 19.0645 25.1947 19.6385 24.5548C19.7352 24.459 19.8335 24.3709 19.9368 24.2824C20.1397 24.1054 20.33 23.9188 20.5186 23.7268C20.5872 23.6575 20.6559 23.5882 20.7246 23.5189C20.8306 23.4117 20.9365 23.3044 21.0423 23.1969C22.3454 21.8747 23.9145 20.832 25.8146 21.6585Z" fill="#0A141A"/>
<path d="M19.0303 5.0009C19.0875 5.00147 19.1446 5.00203 19.2035 5.0026C19.6744 5.0101 20.1331 5.04487 20.5983 5.11579C20.6387 5.1214 20.6791 5.12701 20.7206 5.13279C22.8309 5.43107 25.158 6.44638 26.6808 7.96919C26.7584 8.09649 26.7584 8.09649 26.7646 8.28278C26.7811 8.49625 26.8782 8.58067 27.0348 8.72057C27.1242 8.79482 27.2142 8.86834 27.3049 8.94102C27.3746 9.00065 27.4439 9.06065 27.5129 9.1211C27.5447 9.14877 27.5764 9.17643 27.6092 9.20493C27.7623 9.34275 27.9059 9.48949 28.0501 9.63651C28.0941 9.67955 28.1382 9.72258 28.1836 9.76692C28.4879 10.0794 28.4879 10.0794 28.5146 10.2344C28.5394 10.3759 28.5651 10.4601 28.6462 10.5804C28.7692 10.6608 28.9003 10.7195 29.0343 10.7791C29.3884 10.9373 29.5647 11.0708 29.7391 11.4249C29.7582 11.4619 29.7773 11.4988 29.7969 11.5368C29.9527 11.8409 30.0851 12.1496 30.208 12.4682C30.2273 12.518 30.2466 12.5678 30.2664 12.6191C31.1926 15.0323 31.6356 17.6997 31.1798 20.2677C31.1721 20.312 31.1644 20.3564 31.1564 20.4021C31.1334 20.5314 31.1089 20.6604 31.0836 20.7893C31.0763 20.827 31.0691 20.8648 31.0617 20.9036C30.9776 21.298 30.8126 21.5702 30.4843 21.8077C30.2184 21.8964 29.9786 21.9 29.7236 21.7798C29.4341 21.5172 29.3538 21.2112 29.2765 20.8421C29.1856 20.4365 29.0822 20.0365 28.966 19.6374C28.9521 19.5888 28.9381 19.5402 28.9237 19.4901C28.832 19.1781 28.7231 18.8781 28.5965 18.5786C28.5814 18.5426 28.5663 18.5067 28.5507 18.4696C28.2293 17.7139 27.8701 16.9717 27.4043 16.2934C27.3796 16.2574 27.355 16.2214 27.3296 16.1843C27.2445 16.0607 27.1584 15.9379 27.072 15.8153C27.0443 15.7751 27.0165 15.735 26.9879 15.6937C26.9611 15.6563 26.9344 15.619 26.9069 15.5804C26.8831 15.5467 26.8593 15.513 26.8348 15.4783C26.7446 15.3848 26.6876 15.3642 26.5597 15.3495C26.4671 15.3878 26.4671 15.3878 26.3827 15.4489C26.2982 15.4981 26.2982 15.4981 26.212 15.5482C26.0191 15.484 25.9644 15.3903 25.8394 15.2315C25.6634 15.008 25.6634 15.008 25.4668 14.8031C25.3162 14.8704 25.2122 14.9461 25.0961 15.0629C25.0645 15.0946 25.0329 15.1264 25.0003 15.1591C24.9678 15.1922 24.9352 15.2253 24.9017 15.2595C24.8696 15.2917 24.8374 15.3238 24.8043 15.357C24.6257 15.5372 24.4567 15.7222 24.2933 15.9161C24.1936 16.0315 24.0856 16.1373 23.9764 16.2437C23.9319 16.2883 23.8873 16.3329 23.8414 16.3788C22.4954 17.7248 21.1494 19.0707 19.8035 20.4167C19.6336 20.3432 19.5213 20.2472 19.3899 20.1177C19.327 20.056 19.327 20.056 19.2628 19.9931C19.1957 19.9263 19.1957 19.9263 19.1272 19.8582C19.081 19.8125 19.0349 19.7668 18.9873 19.7197C18.8899 19.6231 18.7927 19.5263 18.6956 19.4293C18.571 19.305 18.4456 19.1815 18.32 19.0582C18.2004 18.9404 18.0817 18.8217 17.9628 18.7032C17.8949 18.6367 17.8949 18.6367 17.8257 18.5689C17.7845 18.5275 17.7434 18.4861 17.701 18.4434C17.6644 18.4071 17.6278 18.3707 17.5902 18.3333C17.5183 18.2309 17.5183 18.2309 17.5307 18.1342C17.5943 17.9599 17.7361 17.8447 17.8661 17.7171C17.8972 17.686 17.9283 17.6549 17.9603 17.6228C18.0633 17.5199 18.1669 17.4175 18.2704 17.3151C18.3422 17.2436 18.4139 17.1721 18.4856 17.1006C18.6747 16.9121 18.8642 16.724 19.0538 16.5361C19.246 16.3453 19.4379 16.1542 19.6298 15.963C19.9402 15.654 20.2508 15.3452 20.5618 15.0367C20.6402 14.9588 20.7186 14.881 20.797 14.8031C20.8431 14.7573 20.8891 14.7116 20.9365 14.6645C21.0273 14.573 21.1101 14.4806 21.1914 14.3808C21.2868 14.2676 21.3741 14.1816 21.4894 14.0858C21.6072 13.9872 21.6938 13.9017 21.791 13.786C22.0248 13.5156 22.2789 13.2661 22.5327 13.0146C22.5814 12.9662 22.63 12.9178 22.6787 12.8693C22.7965 12.752 22.9145 12.6349 23.0326 12.5179C22.9633 12.3613 22.8823 12.2565 22.7605 12.1367C22.7272 12.1038 22.6939 12.0708 22.6596 12.0368C22.6249 12.0029 22.5902 11.969 22.5544 11.9341C22.5193 11.8995 22.4842 11.8648 22.4481 11.8292C22.3616 11.7439 22.2749 11.6588 22.188 11.574C22.2554 11.3696 22.3426 11.2552 22.4985 11.1082C22.6895 10.9241 22.8632 10.7348 23.0326 10.5307C22.9615 10.3046 22.8473 10.1793 22.6786 10.0153C22.6539 9.99123 22.6293 9.96715 22.6039 9.94233C22.4402 9.78374 22.2722 9.6315 22.0988 9.48379C21.9856 9.3849 21.8763 9.28245 21.7669 9.1794C21.4106 8.84476 21.0393 8.53835 20.648 8.24552C20.6008 8.2098 20.6008 8.2098 20.5526 8.17336C19.8709 7.66107 19.1346 7.25787 18.3687 6.88559C17.6825 6.55193 17.6825 6.55193 17.4965 6.23665C17.4469 6.01041 17.445 5.82947 17.5214 5.60946C17.8857 5.05707 18.4073 4.99082 19.0303 5.0009Z" fill="#030404"/>
<path d="M14.2613 9.22045C14.3372 9.29252 14.4128 9.36494 14.4879 9.43779C14.5335 9.47785 14.5335 9.47785 14.5799 9.51871C15.3774 10.2452 15.8268 11.4513 15.89 12.5035C15.9205 13.8545 15.4468 15.0824 14.5165 16.0646C13.6515 16.9467 12.3407 17.4286 11.1222 17.4515C9.8515 17.4541 8.67621 16.9687 7.76892 16.0856C6.81501 15.1086 6.36103 13.8893 6.3695 12.5312C6.40329 11.2715 6.98802 10.1595 7.8807 9.28875C8.4488 8.75992 9.08157 8.4229 9.81816 8.19583C9.85594 8.18418 9.89372 8.17252 9.93265 8.16051C11.4285 7.746 13.1176 8.20918 14.2613 9.22045Z" fill="#030404"/>
<path d="M16.6239 18.9758C16.9079 19.2119 17.1692 19.465 17.4294 19.7268C17.4932 19.7907 17.4932 19.7907 17.5582 19.8559C17.693 19.9909 17.8275 20.1261 17.9621 20.2613C18.0538 20.3533 18.1456 20.4452 18.2373 20.5372C18.4614 20.7618 18.6853 20.9865 18.9091 21.2114C18.8414 21.3526 18.7823 21.4578 18.6607 21.5591C18.6279 21.5591 18.5951 21.5591 18.5613 21.5591C18.5435 21.6012 18.5435 21.6012 18.5252 21.6442C18.4486 21.7819 18.3566 21.8752 18.2449 21.9865C18.1993 22.0322 18.1537 22.0779 18.1067 22.1249C18.056 22.1752 18.0053 22.2254 17.9546 22.2757C17.9013 22.3289 17.848 22.3821 17.7947 22.4354C17.68 22.55 17.5651 22.6644 17.4501 22.7787C17.268 22.9597 17.0862 23.1411 16.9045 23.3225C16.6167 23.6097 16.3287 23.8966 16.0406 24.1835C15.5255 24.6964 15.0107 25.2095 14.4962 25.723C14.3158 25.903 14.1352 26.0828 13.9546 26.2626C13.8417 26.3748 13.729 26.4872 13.6163 26.5997C13.5644 26.6515 13.5123 26.7032 13.4603 26.7549C13.2049 27.0086 12.9551 27.2637 12.7208 27.5371C12.6324 27.6399 12.5396 27.7375 12.4447 27.8343C12.4086 27.8713 12.3724 27.9083 12.3351 27.9463C12.1717 28.112 12.0081 28.2776 11.8441 28.4427C11.7581 28.5296 11.6723 28.6168 11.5867 28.7042C11.4621 28.8315 11.3367 28.958 11.2111 29.0844C11.1734 29.1232 11.1358 29.1619 11.097 29.2019C10.7399 29.5576 10.3369 29.8055 9.82415 29.8305C9.38363 29.8266 9.04984 29.6453 8.71531 29.3673C8.31373 28.9527 8.19015 28.4513 8.19905 27.8902C8.24088 27.0527 9.1078 26.4349 9.66529 25.8783C9.73952 25.804 9.81374 25.7297 9.88794 25.6554C10.0882 25.4549 10.2885 25.2547 10.4889 25.0544C10.699 24.8445 10.9089 24.6344 11.1189 24.4244C11.471 24.0722 11.8232 23.7201 12.1755 23.3681C12.5829 22.9609 12.9902 22.5536 13.3973 22.1461C13.7473 21.7959 14.0974 21.4458 14.4475 21.0958C14.6565 20.8869 14.8654 20.678 15.0743 20.4689C15.2703 20.2728 15.4665 20.0767 15.6627 19.8808C15.7348 19.8088 15.8068 19.7367 15.8788 19.6646C15.9768 19.5664 16.075 19.4684 16.1733 19.3705C16.2019 19.3417 16.2305 19.313 16.26 19.2833C16.3768 19.1671 16.4863 19.0675 16.6239 18.9758Z" fill="#0A1519"/>
<path d="M11.0848 9.3103C11.209 9.33825 11.209 9.33825 11.2862 9.42301C11.365 9.54792 11.4018 9.65585 11.44 9.79835C11.4609 9.87503 11.4609 9.87503 11.4822 9.95326C11.4966 10.0075 11.5109 10.0617 11.5257 10.1176C11.5565 10.2298 11.5873 10.342 11.6181 10.4543C11.6598 10.608 11.7013 10.7618 11.742 10.9158C11.7728 11.0318 11.8044 11.1475 11.8362 11.2633C11.8446 11.2966 11.8531 11.33 11.8617 11.3643C11.9257 11.594 12.0171 11.7232 12.2026 11.8718C12.3399 11.9365 12.3399 11.9365 12.4914 11.9743C12.5767 11.9982 12.5767 11.9982 12.6637 12.0226C13.0263 12.1167 13.3893 12.2085 13.7537 12.2957C13.8274 12.3134 13.9011 12.3311 13.9748 12.349C14.0441 12.3658 14.1134 12.3824 14.1828 12.3987C14.3423 12.4376 14.4487 12.475 14.5872 12.5673C14.5708 12.6821 14.5544 12.7969 14.5375 12.9151C14.2863 13.0199 14.0335 13.0945 13.7692 13.1586C13.7354 13.1668 13.7015 13.1751 13.6666 13.1835C13.525 13.2177 13.3833 13.2515 13.2415 13.2849C12.4992 13.4318 12.4992 13.4318 11.9045 13.859C11.8429 14.0192 11.8429 14.0192 11.8017 14.2013C11.7934 14.2342 11.7851 14.2672 11.7765 14.3012C11.7502 14.4061 11.7249 14.5113 11.6996 14.6166C11.6823 14.6865 11.6649 14.7564 11.6474 14.8263C11.5891 15.0608 11.5318 15.2955 11.4757 15.5305C11.3652 15.988 11.3652 15.988 11.209 16.1442C11.0911 16.1628 11.0911 16.1628 10.9607 16.1442C10.8245 15.96 10.7731 15.7785 10.7216 15.5574C10.7047 15.4874 10.6878 15.4174 10.6709 15.3474C10.6397 15.2154 10.6088 15.0834 10.5781 14.9514C10.5406 14.791 10.5022 14.6308 10.4639 14.4706C10.4521 14.419 10.4403 14.3674 10.4282 14.3142C10.3441 13.9489 10.3441 13.9489 10.1161 13.6603C9.96349 13.5855 9.96349 13.5855 9.787 13.5361C9.73854 13.521 9.73854 13.521 9.68911 13.5056C9.58337 13.4732 9.47728 13.4423 9.37094 13.4119C9.33432 13.4014 9.2977 13.3908 9.25997 13.38C8.93122 13.2864 8.60185 13.1952 8.27065 13.1107C8.20853 13.0943 8.14641 13.0779 8.08241 13.061C8.00028 13.0402 8.00028 13.0402 7.91649 13.0189C7.76458 12.9581 7.71104 12.9077 7.6322 12.7661C7.63626 12.6322 7.66394 12.5843 7.76115 12.4926C7.91583 12.3964 8.07261 12.3625 8.24852 12.3255C8.28432 12.3175 8.32011 12.3095 8.357 12.3012C8.50915 12.2671 8.66155 12.2342 8.81395 12.2012C9.52086 12.0667 9.52086 12.0667 10.1658 11.7725C10.3103 11.5459 10.3691 11.2991 10.4328 11.0411C10.4543 10.9572 10.4758 10.8732 10.4972 10.7893C10.5304 10.6581 10.5634 10.5268 10.5963 10.3955C10.6284 10.2681 10.661 10.1407 10.6936 10.0134C10.7033 9.97429 10.7129 9.93522 10.7228 9.89496C10.86 9.3609 10.86 9.3609 11.0848 9.3103Z" fill="#FBFBFB"/>
<path d="M28.3604 11.7944C28.5346 11.8301 28.6042 11.9136 28.7149 12.0482C28.887 12.31 28.9851 12.6104 29.0931 12.9029C29.1195 12.9729 29.1458 13.0429 29.1722 13.1129C29.9074 15.0745 30.172 16.9889 30.1364 19.0754C30.1036 19.0754 30.0708 19.0754 30.037 19.0754C30.0195 19.0237 30.002 18.9719 29.984 18.9186C29.4742 17.4291 28.7436 16.0009 27.7477 14.7751C27.699 14.7152 27.699 14.7152 27.6493 14.654C27.6054 14.6018 27.6054 14.6018 27.5607 14.5485C27.5418 14.5177 27.5229 14.487 27.5034 14.4553C27.5198 14.4061 27.5362 14.357 27.5531 14.3063C27.5859 14.3063 27.6187 14.3063 27.6525 14.3063C27.6643 14.2776 27.6761 14.2489 27.6884 14.2194C27.7648 14.0848 27.854 14.0083 27.9723 13.9089C28.1176 13.7863 28.2458 13.6729 28.3479 13.5114C28.3652 13.2953 28.333 13.2089 28.2001 13.036C28.0597 12.8791 27.9159 12.7274 27.7621 12.5837C27.7021 12.5179 27.7021 12.5179 27.7052 12.4216C27.765 12.2902 27.841 12.2134 27.9505 12.1204C27.9833 12.1204 28.0161 12.1204 28.0499 12.1204C28.0714 12.0743 28.0714 12.0743 28.0933 12.0273C28.1645 11.893 28.2106 11.8319 28.3604 11.7944Z" fill="#F8F9FA"/>
<path d="M23.6223 25.412C23.8826 25.4665 24.0409 25.6815 24.1843 25.8905C24.214 25.9366 24.2437 25.9827 24.2743 26.0302C24.4843 26.2205 24.6779 26.2345 24.9541 26.2394C25.0084 26.2408 25.0627 26.2422 25.1186 26.2437C25.2324 26.2463 25.3463 26.2485 25.4601 26.2503C25.5145 26.2518 25.5688 26.2533 25.6248 26.2549C25.6742 26.2559 25.7237 26.2569 25.7747 26.2579C25.95 26.284 26.0855 26.351 26.2118 26.4773C26.2398 26.7621 26.2398 26.7621 26.2118 26.8747C26.1034 27.0065 26.0154 27.0656 25.8455 27.0913C25.7014 27.099 25.5581 27.101 25.4138 27.1014C24.8018 27.0984 24.8018 27.0984 24.2247 27.2722C24.0199 27.4955 24.0534 27.7782 24.0508 28.0639C24.0453 28.6554 24.0453 28.6554 23.8769 28.9116C23.7325 29.0292 23.5624 29.0375 23.3786 29.0334C23.1922 28.9905 23.1322 28.8701 23.0324 28.7128C22.9584 28.4784 22.9689 28.2302 22.9657 27.9863C22.9558 27.7252 22.8959 27.585 22.7343 27.3715C22.7343 27.3387 22.7343 27.306 22.7343 27.2722C22.4023 27.1376 22.1321 27.1122 21.7737 27.102C21.5695 27.07 21.4862 27.0214 21.3433 26.8747C21.2809 26.6914 21.2766 26.6132 21.3588 26.437C21.4427 26.3283 21.4427 26.3283 21.542 26.2786C21.6442 26.2749 21.7464 26.2714 21.8486 26.2693C22.3909 26.2633 22.3909 26.2633 22.8337 25.9805C22.9294 25.8674 23.0192 25.7532 23.1048 25.6322C23.2503 25.4446 23.3893 25.406 23.6223 25.412Z" fill="#FEFFFF"/>
<path d="M14.2892 28.7378C14.4382 28.7626 14.4382 28.7626 14.5176 28.8493C14.589 28.9641 14.6245 29.059 14.6583 29.1894C14.6701 29.2324 14.682 29.2755 14.6942 29.3199C14.7181 29.4097 14.7416 29.4996 14.7648 29.5896C14.8515 29.9016 14.95 30.0936 15.2383 30.2658C15.2725 30.28 15.3066 30.2942 15.3418 30.3089C15.38 30.3248 15.4182 30.3408 15.4576 30.3572C15.6259 30.4184 15.7967 30.4666 15.9701 30.5109C16.0899 30.5556 16.1475 30.6005 16.2267 30.7001C16.2515 30.8212 16.2515 30.8212 16.2267 30.9485C15.9905 31.1899 15.691 31.2432 15.3752 31.3272C15.1896 31.3806 15.0603 31.4226 14.9135 31.551C14.8097 31.7412 14.7609 31.9308 14.7115 32.1408C14.5958 32.6323 14.5958 32.6323 14.3886 32.8363C14.2613 32.8642 14.2613 32.8642 14.1402 32.8363C13.9648 32.6631 13.9386 32.4508 13.8918 32.2184C13.8152 31.7917 13.8152 31.7917 13.5411 31.473C13.259 31.3401 12.9773 31.235 12.678 31.1468C12.5483 31.0967 12.4842 31.059 12.4014 30.9485C12.3828 30.7994 12.3828 30.7994 12.4014 30.6504C12.5062 30.5174 12.6062 30.4716 12.7662 30.4234C12.8284 30.4042 12.8284 30.4042 12.8918 30.3847C12.9349 30.372 12.978 30.3593 13.0224 30.3461C13.0655 30.333 13.1086 30.3199 13.153 30.3063C13.233 30.282 13.313 30.2578 13.3931 30.2339C13.477 30.2086 13.5603 30.1813 13.6434 30.1536C13.7264 29.9443 13.7848 29.7361 13.8407 29.5181C13.8492 29.4852 13.8577 29.4523 13.8664 29.4184C13.8909 29.3217 13.9147 29.2249 13.9383 29.128C14.0087 28.906 14.0506 28.7776 14.2892 28.7378Z" fill="#030404"/>
<path d="M23.9266 13.3623C24.096 13.4421 24.2057 13.5315 24.3365 13.6666C24.3716 13.7026 24.4066 13.7386 24.4428 13.7756C24.4824 13.8169 24.4824 13.8169 24.5228 13.8591C24.4511 14.0234 24.3623 14.1308 24.2352 14.2565C24.1772 14.3142 24.1772 14.3142 24.1181 14.3731C24.0762 14.4143 24.0344 14.4555 23.9912 14.4979C23.9481 14.5408 23.905 14.5837 23.8605 14.6279C23.7224 14.7651 23.5839 14.9021 23.4454 15.0389C23.3078 15.1752 23.1702 15.3115 23.0329 15.4479C22.9474 15.5328 22.8618 15.6175 22.7761 15.702C22.5627 15.9137 22.3572 16.1288 22.1619 16.3573C22.0598 16.4756 21.9555 16.5852 21.8401 16.6908C21.8073 16.6908 21.7745 16.6908 21.7408 16.6908C21.7283 16.7193 21.7158 16.7478 21.703 16.7772C21.633 16.9047 21.5529 16.9917 21.4509 17.0952C21.4117 17.1352 21.3726 17.1751 21.3323 17.2162C21.29 17.2588 21.2476 17.3014 21.204 17.3453C21.1605 17.3892 21.117 17.4332 21.0722 17.4785C20.9802 17.5712 20.8881 17.6637 20.7958 17.7562C20.6775 17.8748 20.56 17.9941 20.4427 18.1137C20.3307 18.2276 20.2177 18.3406 20.1049 18.4538C20.0627 18.4969 20.0206 18.5399 19.9772 18.5844C19.9378 18.6235 19.8983 18.6626 19.8577 18.703C19.8231 18.7378 19.7886 18.7726 19.7529 18.8085C19.6543 18.8766 19.6543 18.8766 19.549 18.8679C19.4216 18.812 19.3402 18.7349 19.2413 18.6375C19.2057 18.6034 19.17 18.5693 19.1332 18.5341C19.0581 18.4295 19.0581 18.4295 19.0652 18.3375C19.1226 18.1938 19.2069 18.1158 19.3178 18.008C19.3824 17.9444 19.3824 17.9444 19.4484 17.8795C19.4938 17.8356 19.5392 17.7917 19.586 17.7464C19.6747 17.6599 19.7633 17.5732 19.8518 17.4864C19.9111 17.429 19.9111 17.429 19.9715 17.3704C20.0725 17.2668 20.1669 17.1625 20.261 17.0529C20.4358 16.8525 20.6192 16.663 20.8078 16.4754C20.8418 16.4415 20.8758 16.4075 20.9108 16.3725C21.0217 16.2616 21.1327 16.151 21.2438 16.0403C21.3213 15.9629 21.3987 15.8855 21.4762 15.8081C21.679 15.6054 21.882 15.4029 22.085 15.2005C22.2926 14.9934 22.5 14.7862 22.7075 14.579C23.1137 14.1733 23.5201 13.7678 23.9266 13.3623Z" fill="#F7F8F8"/>
<path d="M8.5264 19.2744C8.79732 19.2985 8.79732 19.2985 8.90286 19.398C9.02328 19.6107 9.04846 19.8485 9.09139 20.087C9.13893 20.3271 9.18662 20.4918 9.37093 20.6654C9.5045 20.7423 9.5045 20.7423 9.65347 20.7958C9.73195 20.8266 9.73195 20.8266 9.81202 20.8579C9.98232 20.9193 10.1534 20.9753 10.3276 21.0244C10.4142 21.0628 10.4142 21.0628 10.5135 21.2119C10.5197 21.333 10.5197 21.333 10.4639 21.4603C10.2384 21.6007 10.0115 21.6782 9.75904 21.7583C9.45867 21.8547 9.45867 21.8547 9.22189 22.0564C9.09359 22.3328 9.03191 22.6164 8.97059 22.9141C8.91637 23.0716 8.85462 23.1454 8.72511 23.2487C8.59781 23.2518 8.59781 23.2518 8.47672 23.199C8.30857 22.9727 8.26657 22.7185 8.21416 22.448C8.15976 22.2016 8.08597 22.0681 7.88058 21.9074C7.72799 21.8309 7.72799 21.8309 7.56388 21.777C7.47906 21.7463 7.47906 21.7463 7.39253 21.7151C7.34046 21.6965 7.2884 21.678 7.23476 21.659C6.90885 21.5318 6.90885 21.5318 6.78765 21.4106C6.76902 21.2647 6.76902 21.2647 6.78765 21.1125C6.9348 20.9709 7.07509 20.9331 7.27202 20.8921C7.71054 20.8015 7.71054 20.8015 8.043 20.5263C8.17471 20.2564 8.22875 19.9663 8.28266 19.6726C8.3336 19.5031 8.4086 19.4048 8.5264 19.2744Z" fill="#0C151B"/>
<path d="M27.6811 30.2467C28.0088 30.4125 28.2913 30.6877 28.4569 31.0167C28.5719 31.391 28.5488 31.792 28.3729 32.1411C28.153 32.4911 27.8679 32.6994 27.4711 32.8131C27.0676 32.8943 26.7199 32.8418 26.3609 32.6378C26.0857 32.4347 25.8972 32.1761 25.8144 31.843C25.7703 31.4463 25.764 31.0772 26.0131 30.7501C26.4414 30.2243 27.024 30.0253 27.6811 30.2467Z" fill="#FBFCFC"/>
<path d="M20.0022 6.30811C21.8289 6.38236 23.6045 7.13485 25.0694 8.19588C25.0002 8.35266 24.9195 8.45645 24.7969 8.57565C24.7627 8.6093 24.7285 8.64295 24.6933 8.67763C24.6576 8.7123 24.6218 8.74698 24.585 8.78271C24.3363 9.02532 24.0994 9.26987 23.8771 9.5372C23.66 9.45444 23.5215 9.2917 23.3631 9.12871C23.3327 9.09793 23.3023 9.06716 23.2709 9.03545C23.1414 8.90433 23.0125 8.77264 22.8836 8.64096C22.5024 8.25241 22.1227 7.8833 21.6913 7.55006C21.6557 7.52177 21.6201 7.49348 21.5835 7.46433C21.4855 7.38646 21.3868 7.30966 21.2876 7.23336C21.2526 7.20642 21.2176 7.17948 21.1815 7.15172C20.8842 6.92628 20.5758 6.72146 20.2596 6.52363C20.1731 6.46942 20.0875 6.41376 20.0022 6.35778C20.0022 6.34139 20.0022 6.325 20.0022 6.30811Z" fill="#FEFFFF"/>
<path d="M25.7152 23.0497C25.9829 23.26 26.2618 23.4831 26.4107 23.7949C26.4074 23.936 26.385 24.0081 26.3061 24.1239C26.164 24.2272 26.0199 24.2127 25.8508 24.2108C25.7959 24.2111 25.7959 24.2111 25.7399 24.2114C25.6188 24.2118 25.4978 24.2111 25.3767 24.2104C25.2926 24.2104 25.2086 24.2104 25.1245 24.2105C24.9483 24.2105 24.772 24.2099 24.5958 24.2091C24.3698 24.2079 24.1438 24.2079 23.9177 24.2082C23.7441 24.2084 23.5705 24.2081 23.3969 24.2076C23.3135 24.2074 23.2302 24.2073 23.1468 24.2074C23.0304 24.2074 22.914 24.2068 22.7975 24.206C22.7457 24.2062 22.7457 24.2062 22.6929 24.2064C22.5132 24.2044 22.4415 24.1957 22.2874 24.093C22.3068 23.7031 22.5689 23.4512 22.8369 23.1926C23.6597 22.4831 24.8278 22.4627 25.7152 23.0497Z" fill="#F8F9F9"/>
<path d="M24.3242 10.7295C24.5745 10.9387 24.8071 11.1578 25.0352 11.3908C25.0959 11.4529 25.1568 11.5148 25.2178 11.5765C25.2574 11.617 25.2574 11.617 25.2978 11.6583C25.3668 11.7286 25.3668 11.7286 25.4668 11.7727C25.4668 11.8055 25.4668 11.8383 25.4668 11.8721C25.4965 11.8856 25.5261 11.8991 25.5567 11.9131C25.663 11.9701 25.7313 12.0253 25.8157 12.1104C25.8436 12.1383 25.8714 12.1661 25.9001 12.1948C25.9295 12.2247 25.9589 12.2546 25.9892 12.2854C26.0198 12.3162 26.0504 12.3469 26.0819 12.3786C26.1793 12.4765 26.2763 12.5748 26.3734 12.6732C26.4395 12.7397 26.5056 12.8063 26.5717 12.8728C26.7336 13.0358 26.8951 13.199 27.0565 13.3624C26.9928 13.5025 26.9268 13.6035 26.817 13.711C26.7904 13.7372 26.7639 13.7635 26.7365 13.7905C26.7089 13.8173 26.6813 13.8441 26.6528 13.8716C26.6249 13.8992 26.5969 13.9267 26.568 13.9551C26.4992 14.0227 26.4301 14.09 26.361 14.1573C26.0551 13.904 25.7745 13.6286 25.4937 13.3481C25.4444 13.2989 25.395 13.2496 25.3456 13.2004C25.2427 13.0979 25.14 12.9952 25.0373 12.8925C24.9059 12.7611 24.7741 12.63 24.6423 12.499C24.5405 12.3977 24.4389 12.2963 24.3373 12.1947C24.2888 12.1463 24.2403 12.0979 24.1916 12.0496C24.1237 11.9822 24.0562 11.9145 23.9887 11.8467C23.9502 11.8084 23.9118 11.77 23.8722 11.7305C23.7846 11.6315 23.73 11.5458 23.6783 11.425C23.7 11.4039 23.7216 11.3829 23.7439 11.3611C23.9491 11.1591 24.1394 10.9503 24.3242 10.7295Z" fill="#F8F9F8"/>
<path d="M28.702 24.77C29.0831 24.7804 29.3657 24.9748 29.6416 25.2257C29.9749 25.6001 30.1526 25.9948 30.1473 26.4911C30.1296 26.7124 30.0526 26.8522 29.9067 27.0149C29.6925 27.122 29.467 27.162 29.2347 27.0907C28.7954 26.8825 28.574 26.6002 28.3481 26.1796C28.3173 26.1253 28.2866 26.071 28.2549 26.0151C28.1658 25.723 28.1252 25.3725 28.2404 25.0817C28.3674 24.8885 28.4695 24.7741 28.702 24.77Z" fill="#FEFFFF"/>
<path d="M21.1943 29.756C21.7117 29.932 22.0479 30.2176 22.3089 30.6906C22.4352 30.9608 22.5013 31.1987 22.4362 31.4947C22.347 31.6405 22.29 31.7169 22.1382 31.7928C21.6191 31.8596 21.2483 31.7099 20.8289 31.4115C20.5418 31.1772 20.2826 30.8674 20.2368 30.4878C20.2279 30.2645 20.2216 30.1046 20.3684 29.9268C20.6152 29.6976 20.8694 29.7168 21.1943 29.756Z" fill="#FEFFFF"/>
<path d="M18.5087 9.05566C18.6795 9.09399 18.7568 9.15251 18.8617 9.29241C18.9334 9.43637 18.9395 9.57398 18.9423 9.73311C18.9518 9.83855 18.9518 9.83855 19.0211 9.92174C19.1291 9.99916 19.1935 10.0004 19.3253 10.0027C19.507 10.0175 19.5525 10.0318 19.7072 10.1455C19.8035 10.2821 19.8035 10.2821 19.8345 10.4094C19.8035 10.5305 19.8035 10.5305 19.7072 10.6392C19.5646 10.7236 19.484 10.7478 19.3253 10.7758C19.1464 10.8095 19.1464 10.8095 19.0117 10.931C18.9658 11.0581 18.94 11.1716 18.9155 11.3036C18.8818 11.4689 18.8619 11.5213 18.7478 11.6545C18.6112 11.7228 18.6112 11.7228 18.456 11.729C18.3131 11.6731 18.3131 11.6731 18.2262 11.552C18.1485 11.3306 18.1036 11.1093 18.0647 10.8782C18.024 10.8698 17.9833 10.8613 17.9413 10.8526C17.8878 10.8406 17.8343 10.8285 17.7791 10.8161C17.6996 10.7988 17.6996 10.7988 17.6184 10.7812C17.4525 10.7236 17.376 10.6695 17.2699 10.5305C17.2668 10.3535 17.2668 10.3535 17.3196 10.1827C17.4975 10.0163 17.7269 9.99501 17.96 9.9557C18.0636 9.94462 18.0636 9.94462 18.1144 9.88467C18.121 9.79783 18.1259 9.71086 18.1299 9.62386C18.1455 9.4422 18.1614 9.3433 18.2479 9.17986C18.3628 9.08982 18.3628 9.08982 18.5087 9.05566Z" fill="#0B161A"/>
<path d="M30.8601 6.75537C31.0522 6.81128 31.0812 6.83713 31.1799 7.00376C31.2162 7.14271 31.2162 7.14271 31.2389 7.28941C31.2467 7.33834 31.2546 7.38726 31.2627 7.43767C31.2682 7.47481 31.2736 7.51196 31.2792 7.55022C31.3528 7.56915 31.3528 7.56915 31.4279 7.58845C31.4922 7.60569 31.5565 7.62297 31.6208 7.64027C31.6842 7.65698 31.7476 7.67369 31.8129 7.69091C31.9747 7.74894 31.9747 7.74894 32.0741 7.89797C32.078 8.01382 32.0784 8.12989 32.0741 8.24572C31.8957 8.34634 31.7403 8.40459 31.54 8.43822C31.3686 8.46901 31.3686 8.46901 31.2575 8.59657C31.2411 8.68195 31.225 8.76738 31.2096 8.85292C31.1471 9.17036 31.1471 9.17036 31.0401 9.29207C30.9056 9.34973 30.8279 9.36399 30.6831 9.33864C30.5443 9.22988 30.4905 9.16754 30.452 8.99361C30.4425 8.88806 30.4332 8.78249 30.424 8.67691C30.3989 8.53408 30.3989 8.53408 30.2701 8.47859C30.1585 8.45004 30.0478 8.42299 29.9348 8.40097C29.7535 8.35676 29.6494 8.30518 29.5405 8.14636C29.5156 8.02217 29.5156 8.02217 29.5405 7.89797C29.6943 7.70237 29.8345 7.66032 30.0745 7.61232C30.1327 7.60028 30.1908 7.58824 30.2507 7.57584C30.295 7.56739 30.3394 7.55893 30.385 7.55022C30.3899 7.5095 30.3947 7.46877 30.3998 7.4268C30.4072 7.37327 30.4146 7.31973 30.4223 7.26457C30.4292 7.21155 30.4361 7.15853 30.4432 7.1039C30.5108 6.85791 30.6022 6.75537 30.8601 6.75537Z" fill="#0E171C"/>
<path d="M25.7166 9.28978C25.8364 9.34907 25.9259 9.42017 26.0257 9.50906C26.0608 9.53974 26.0959 9.57041 26.1321 9.60202C26.212 9.68604 26.212 9.68604 26.212 9.7854C26.2397 9.79707 26.2673 9.80873 26.2958 9.82075C26.5207 9.94599 26.6926 10.1442 26.8742 10.3243C26.9478 10.397 27.0225 10.4686 27.0972 10.5402C27.1436 10.586 27.1899 10.6318 27.2376 10.679C27.2803 10.7208 27.323 10.7626 27.367 10.8056C27.454 10.928 27.454 10.928 27.4487 11.06C27.39 11.2139 27.3063 11.3025 27.1901 11.4186C27.1513 11.4584 27.1126 11.4982 27.0727 11.5393C26.9572 11.6235 26.9572 11.6235 26.8615 11.6135C26.7408 11.567 26.6767 11.5115 26.5847 11.4208C26.5517 11.3887 26.5187 11.3565 26.4848 11.3233C26.4498 11.2884 26.4148 11.2534 26.3787 11.2173C26.3425 11.1815 26.3063 11.1456 26.269 11.1087C26.1926 11.0329 26.1164 10.9568 26.0404 10.8806C25.9235 10.7637 25.8057 10.648 25.6878 10.5322C25.6138 10.4585 25.5398 10.3846 25.4659 10.3107C25.4304 10.276 25.3949 10.2414 25.3583 10.2056C25.3101 10.1567 25.3101 10.1567 25.2608 10.1067C25.2322 10.0782 25.2035 10.0496 25.174 10.0202C25.1191 9.93443 25.1191 9.93443 25.1291 9.83175C25.187 9.69158 25.2769 9.60412 25.383 9.49664C25.4411 9.43622 25.4411 9.43622 25.5004 9.37458C25.6159 9.28862 25.6159 9.28862 25.7166 9.28978Z" fill="#FEFFFF"/>
<path d="M26.3112 18.1812C26.4801 18.284 26.6038 18.3855 26.659 18.5786C26.659 18.8042 26.6324 18.8993 26.4851 19.0723C26.2914 19.2162 26.0949 19.1956 25.8641 19.1748C25.8313 19.1748 25.7985 19.1748 25.7648 19.1748C25.7726 19.203 25.7804 19.2313 25.7884 19.2604C25.8484 19.5213 25.8636 19.7403 25.7213 19.9727C25.5051 20.1068 25.3175 20.1227 25.0693 20.069C24.914 19.9251 24.8308 19.7942 24.8022 19.5846C24.8282 19.3598 24.9124 19.2857 25.0693 19.1251C25.1888 19.0654 25.2655 19.0704 25.3984 19.0723C25.4593 19.073 25.4593 19.073 25.5214 19.0737C25.5525 19.0743 25.5837 19.0748 25.6157 19.0754C25.6134 19.0394 25.6111 19.0034 25.6087 18.9664C25.597 18.6522 25.6016 18.4687 25.8144 18.2309C25.9737 18.1513 26.1384 18.157 26.3112 18.1812Z" fill="#0A131B"/>
<path d="M12.0039 25.3845C12.0845 25.4662 12.0845 25.4662 12.1747 25.5739C12.2794 25.698 12.3841 25.8179 12.5007 25.931C12.4269 26.1032 12.329 26.2137 12.196 26.3447C12.156 26.3844 12.116 26.4241 12.0748 26.465C12.0329 26.506 11.9911 26.547 11.948 26.5892C11.9058 26.631 11.8636 26.6727 11.8202 26.7157C11.716 26.8187 11.6117 26.9214 11.5072 27.0239C11.3377 26.9442 11.2281 26.8547 11.0973 26.7196C11.0622 26.6836 11.0271 26.6476 10.991 26.6106C10.9646 26.583 10.9382 26.5555 10.911 26.5271C10.9776 26.3777 11.05 26.2788 11.1687 26.167C11.2995 26.0403 11.4223 25.9104 11.5413 25.7726C11.8774 25.3845 11.8774 25.3845 12.0039 25.3845Z" fill="#F4F6F6"/>
<path d="M16.8723 20.5164C16.9528 20.5963 16.9528 20.5963 17.0431 20.7027C17.0875 20.7545 17.0875 20.7545 17.1329 20.8074C17.2146 20.9072 17.2921 21.0091 17.3691 21.1125C17.3475 21.1338 17.326 21.155 17.3038 21.177C17.2054 21.2744 17.1071 21.372 17.0089 21.4696C16.975 21.503 16.9412 21.5365 16.9063 21.571C16.7344 21.742 16.5714 21.912 16.4252 22.1061C16.2378 22.0777 16.1456 21.9984 16.0122 21.867C15.9766 21.8329 15.9409 21.7987 15.9042 21.7636C15.8291 21.659 15.8291 21.659 15.83 21.5612C15.9426 21.3278 16.1488 21.1491 16.3258 20.9635C16.3673 20.92 16.4087 20.8765 16.4514 20.8317C16.7588 20.5164 16.7588 20.5164 16.8723 20.5164Z" fill="#FEFFFF"/>
<path d="M13.5439 23.7451C13.6606 23.8435 13.7763 23.9431 13.8916 24.0432C13.9531 24.0954 13.9531 24.0954 14.0158 24.1488C14.0903 24.2419 14.0903 24.2419 14.0814 24.3354C14.0305 24.4669 13.9634 24.5308 13.8606 24.6269C13.6853 24.7943 13.529 24.9691 13.377 25.1577C13.2811 25.2492 13.2295 25.2798 13.0968 25.2851C12.8845 25.141 12.7176 24.938 12.6497 24.689C12.9296 24.3556 13.2338 24.0501 13.5439 23.7451Z" fill="#F6F7F8"/>
<path d="M15.0839 22.2051C15.2637 22.2884 15.3642 22.383 15.4938 22.5342C15.5289 22.5748 15.564 22.6154 15.6001 22.6572C15.6265 22.6884 15.6529 22.7195 15.6801 22.7515C15.6087 22.916 15.5199 23.0217 15.3913 23.1459C15.3559 23.1803 15.3205 23.2146 15.284 23.2501C15.2508 23.2823 15.2175 23.3145 15.1833 23.3477C15.1382 23.3948 15.0931 23.4419 15.0467 23.4905C14.9436 23.5878 14.8626 23.6365 14.7362 23.6954C14.6516 23.6176 14.5679 23.5387 14.4847 23.4595C14.4147 23.3938 14.4147 23.3938 14.3432 23.3267C14.2394 23.1986 14.2394 23.1986 14.2466 23.1034C14.2996 22.9744 14.3681 22.904 14.4678 22.8067C14.5035 22.7714 14.5392 22.7362 14.576 22.6999C14.6135 22.6637 14.651 22.6274 14.6896 22.5901C14.7273 22.5531 14.765 22.5161 14.8038 22.4779C14.8969 22.3866 14.9902 22.2957 15.0839 22.2051Z" fill="#FEFFFF"/>
<path d="M10.2157 27.1235C10.3979 27.1982 10.4983 27.3042 10.6255 27.4527C10.6606 27.4933 10.6957 27.5339 10.7319 27.5757C10.7583 27.6068 10.7847 27.6379 10.8118 27.67C10.7418 27.8344 10.6609 27.9241 10.5231 28.0364C10.3931 28.1448 10.2867 28.247 10.1878 28.3841C10.0667 28.5145 10.0667 28.5145 9.89278 28.5766C9.71891 28.5642 9.71891 28.5642 9.57609 28.4369C9.46799 28.2791 9.40516 28.1641 9.42084 27.9681C9.51859 27.8176 9.64141 27.6965 9.76859 27.5706C9.80913 27.5295 9.84966 27.4883 9.89143 27.4459C9.99871 27.3376 10.1068 27.2302 10.2157 27.1235Z" fill="#FEFFFF"/>
<path d="M17.8164 31.9921C17.959 32.1139 18.0442 32.204 18.0884 32.3895C18.1028 32.5889 18.072 32.6785 17.9468 32.8335C17.758 32.9818 17.6595 33.0087 17.4189 32.9856C17.2678 32.9043 17.1563 32.8316 17.0494 32.6969C17.0059 32.5277 17.0269 32.4087 17.0712 32.2404C17.2995 31.9711 17.4695 31.886 17.8164 31.9921Z" fill="#0E171D"/>
<path d="M17.2201 26.7753C17.3756 26.9076 17.4483 26.9863 17.4941 27.1838C17.5105 27.4069 17.4891 27.4953 17.3443 27.6726C17.1511 27.8041 17.0014 27.8015 16.773 27.7689C16.6334 27.6798 16.549 27.6189 16.475 27.4708C16.4515 27.2363 16.4385 27.0903 16.5898 26.9026C16.8001 26.7021 16.945 26.7041 17.2201 26.7753Z" fill="#0B1218"/>
<path d="M18.9587 33.9788C19.1047 34.075 19.1047 34.075 19.2071 34.2272C19.2577 34.4776 19.2463 34.6608 19.1109 34.8792C18.9074 35.0038 18.7445 35.0263 18.5116 34.9724C18.3747 34.864 18.2913 34.78 18.2136 34.6246C18.1949 34.4631 18.1805 34.3343 18.2638 34.1895C18.4765 33.9251 18.6365 33.901 18.9587 33.9788Z" fill="#0C141A"/>
<path d="M16.3756 7.25212C16.5573 7.35346 16.6573 7.4262 16.773 7.59987C16.8022 7.82071 16.7882 7.92204 16.6737 8.11528C16.5169 8.25246 16.434 8.30218 16.2299 8.31341C16.0291 8.27811 15.9015 8.15446 15.7795 7.99729C15.7083 7.80752 15.7181 7.73053 15.7888 7.54087C15.9487 7.29272 16.0758 7.21015 16.3756 7.25212Z" fill="#10171B"/>
<path d="M6.97862 24.4154C7.14844 24.4551 7.22967 24.555 7.33413 24.6888C7.35052 24.7052 7.36691 24.7216 7.3838 24.7385C7.4131 25.09 7.4131 25.09 7.29066 25.2818C7.14964 25.4187 7.06362 25.4451 6.8715 25.4557C6.67957 25.4526 6.6455 25.4394 6.48649 25.3129C6.37384 25.1472 6.35374 24.992 6.36676 24.7944C6.39024 24.6888 6.39024 24.6888 6.48649 24.5367C6.66376 24.4245 6.77215 24.4047 6.97862 24.4154Z" fill="#0C1419"/>
<path d="M32.3718 22.7516C32.5195 22.8401 32.6414 22.943 32.7196 23.0993C32.7392 23.3071 32.7419 23.4128 32.6264 23.5899C32.4851 23.7312 32.4022 23.7553 32.2072 23.7638C32.027 23.7612 31.9806 23.7495 31.8253 23.6427C31.7051 23.4661 31.6726 23.3628 31.6763 23.149C31.8464 22.827 32.0042 22.708 32.3718 22.7516Z" fill="#0F171B"/>
<path d="M12.1034 19.175C12.2792 19.257 12.3424 19.3099 12.4511 19.4731C12.4845 19.8182 12.4845 19.8182 12.358 20.0164C12.1963 20.1734 12.0823 20.1852 11.8569 20.1831C11.6994 20.1605 11.6156 20.0815 11.5072 19.9699C11.4277 19.8108 11.4328 19.6457 11.4576 19.4731C11.6395 19.188 11.7711 19.1525 12.1034 19.175Z" fill="#0D1618"/>
<path d="M18.4125 13.5113C18.586 13.5941 18.6522 13.6474 18.7602 13.8094C18.8014 14.0411 18.7906 14.2084 18.664 14.4086C18.4601 14.5376 18.3 14.5522 18.0647 14.5048C17.9221 14.4157 17.8416 14.3567 17.7666 14.2068C17.733 13.9155 17.733 13.9155 17.8186 13.7717C18.0077 13.5414 18.118 13.4882 18.4125 13.5113Z" fill="#10161A"/>
<path d="M25.6157 18.5291C25.6321 18.5291 25.6485 18.5291 25.6654 18.5291C25.6654 18.7422 25.6654 18.9553 25.6654 19.1749C25.567 19.1749 25.4687 19.1749 25.3673 19.1749C25.3509 19.2404 25.3345 19.306 25.3177 19.3736C25.3832 19.39 25.4488 19.4064 25.5164 19.4233C25.5328 19.3577 25.5492 19.2921 25.5661 19.2245C25.6316 19.2082 25.6972 19.1918 25.7648 19.1749C25.8248 19.392 25.8479 19.5968 25.8144 19.8207C25.7213 19.9728 25.7213 19.9728 25.5661 20.0691C25.3936 20.1028 25.2413 20.1063 25.0693 20.0691C24.914 19.9252 24.8308 19.7942 24.8022 19.5847C24.8282 19.3599 24.9124 19.2858 25.0693 19.1252C25.2396 19.04 25.4278 19.0728 25.6157 19.0755C25.6157 18.8952 25.6157 18.7148 25.6157 18.5291Z" fill="#141B22"/>
<path d="M15.9783 30.6006C16.1708 30.6441 16.1708 30.6441 16.2267 30.6999C16.2453 30.8148 16.2453 30.8148 16.2267 30.9483C16.1025 31.0632 16.1025 31.0632 15.9783 31.147C15.9006 31.0632 15.9006 31.0632 15.8292 30.9483C15.8447 30.8117 15.8447 30.8117 15.8789 30.6999C15.9117 30.6999 15.9445 30.6999 15.9783 30.6999C15.9783 30.6672 15.9783 30.6344 15.9783 30.6006Z" fill="#111A1F"/>
<path d="M27.5532 14.5049C27.7788 14.7106 27.9367 14.9432 28.0997 15.2004C27.9506 15.2004 27.9506 15.2004 27.8016 15.1507C27.8016 15.1179 27.8016 15.0851 27.8016 15.0513C27.7524 15.0677 27.7033 15.0841 27.6526 15.101C27.6526 15.0017 27.6526 14.9023 27.6526 14.803C27.6198 14.7866 27.587 14.7702 27.5532 14.7533C27.5532 14.6713 27.5532 14.5893 27.5532 14.5049Z" fill="#111B1E"/>
<path d="M25.1685 14.9524C25.1685 15.1014 25.1685 15.1014 25.1092 15.1776C25.0821 15.2039 25.0551 15.2302 25.0272 15.2573C24.9835 15.3002 24.9835 15.3002 24.9389 15.3441C24.9081 15.3736 24.8773 15.4032 24.8456 15.4337C24.8148 15.4638 24.784 15.4939 24.7522 15.525C24.676 15.5994 24.5994 15.6734 24.5227 15.7472C24.5227 15.5982 24.5227 15.5982 24.5819 15.522C24.609 15.4957 24.6361 15.4695 24.6639 15.4424C24.6931 15.4137 24.7222 15.3851 24.7522 15.3555C24.783 15.326 24.8138 15.2964 24.8456 15.266C24.8764 15.2359 24.9072 15.2057 24.9389 15.1747C25.0151 15.1002 25.0918 15.0263 25.1685 14.9524ZM24.3736 15.7472C24.4064 15.7636 24.4392 15.78 24.473 15.7969C24.391 15.8625 24.309 15.9281 24.2246 15.9956C24.3177 15.8031 24.3177 15.8031 24.3736 15.7472ZM24.1252 15.9956C24.1744 16.012 24.2236 16.0284 24.2743 16.0453C24.2415 16.0781 24.2087 16.1109 24.1749 16.1447C24.1257 16.1283 24.0766 16.1119 24.0259 16.095C24.0587 16.0622 24.0915 16.0294 24.1252 15.9956Z" fill="#D1D6D7"/>
<path d="M22.7343 25.9307C22.7671 25.9635 22.7999 25.9962 22.8336 26.03C22.4719 26.3253 22.1346 26.3044 21.691 26.2784C21.691 26.262 21.691 26.2456 21.691 26.2287C21.7521 26.2268 21.7521 26.2268 21.8145 26.2249C21.8948 26.2206 21.8948 26.2206 21.9767 26.2163C22.0297 26.214 22.0827 26.2117 22.1374 26.2093C22.3153 26.1734 22.3681 26.1138 22.4859 25.9803C22.6163 25.9369 22.6163 25.9369 22.7343 25.9307Z" fill="#272D30"/>
<path d="M22.2873 6.45695C22.2709 6.50613 22.2545 6.55531 22.2376 6.60598C22.2868 6.63877 22.336 6.67156 22.3867 6.70534C22.3867 6.73813 22.3867 6.77092 22.3867 6.8047C22.0916 6.73092 22.0916 6.73092 21.7905 6.65566C21.9338 6.36912 21.9936 6.39949 22.2873 6.45695Z" fill="#171F24"/>
<path d="M26.3611 18.5291C26.5086 18.5536 26.5086 18.5536 26.6591 18.5787C26.6428 18.6935 26.6264 18.8082 26.6095 18.9265C26.4915 18.911 26.4915 18.911 26.3611 18.8768C26.3283 18.8276 26.2955 18.7784 26.2617 18.7278C26.2945 18.6622 26.3273 18.5966 26.3611 18.5291Z" fill="#161F24"/>
<path d="M8.12909 20.3174C8.18498 20.4012 8.18498 20.4012 8.22845 20.5161C8.20051 20.6465 8.20051 20.6465 8.12909 20.7645C8.01111 20.8266 8.01111 20.8266 7.8807 20.8638C7.82998 20.8808 7.82998 20.8808 7.77824 20.898C7.66608 20.9161 7.59174 20.8938 7.48328 20.8638C7.53448 20.8421 7.53448 20.8421 7.58671 20.82C7.88011 20.6898 7.88011 20.6898 8.08563 20.4509C8.09997 20.4068 8.11432 20.3628 8.12909 20.3174Z" fill="#1C2225"/>
<path d="M10.6129 27.8687C10.6457 27.9178 10.6785 27.967 10.7122 28.0177C10.6631 28.0915 10.6631 28.0915 10.6129 28.1667C10.5801 28.1667 10.5473 28.1667 10.5135 28.1667C10.5135 28.1995 10.5135 28.2323 10.5135 28.2661C10.3893 28.3468 10.3893 28.3468 10.2651 28.4151C10.2323 28.3823 10.1996 28.3495 10.1658 28.3158C10.3133 28.1682 10.4609 28.0207 10.6129 27.8687Z" fill="#20282D"/>
<path d="M30.9314 25.0867C30.9806 25.0867 31.0298 25.0867 31.0804 25.0867C31.1296 25.2342 31.1788 25.3818 31.2295 25.5338C31.1065 25.6075 31.1065 25.6075 30.9811 25.6828C30.9975 25.5189 31.0139 25.3549 31.0308 25.186C30.998 25.186 30.9652 25.186 30.9314 25.186C30.9314 25.1532 30.9314 25.1205 30.9314 25.0867Z" fill="#172023"/>
<path d="M19.3066 10.0342C19.6261 10.0583 19.6261 10.0583 19.7506 10.1708C19.8117 10.3002 19.8152 10.3895 19.8034 10.531C19.7942 10.5012 19.785 10.4715 19.7755 10.4409C19.6715 10.2827 19.5276 10.2549 19.3563 10.1832C19.3399 10.134 19.3235 10.0849 19.3066 10.0342Z" fill="#252B2E"/>
<path d="M22.0886 18.0815C22.0886 18.2118 22.073 18.3056 22.0389 18.4293C22.0061 18.4293 21.9733 18.4293 21.9395 18.4293C21.9231 18.4621 21.9067 18.4949 21.8899 18.5286C21.8571 18.5286 21.8243 18.5286 21.7905 18.5286C21.7129 18.5833 21.7129 18.5833 21.6353 18.6528C21.5881 18.6938 21.541 18.7348 21.4924 18.777C21.5713 18.5832 21.6978 18.4623 21.8464 18.3175C21.8916 18.2732 21.9368 18.2289 21.9834 18.1832C22.0181 18.1497 22.0528 18.1161 22.0886 18.0815Z" fill="#F4F8F9"/>
<path d="M29.9378 27.0734C29.9542 27.1226 29.9706 27.1718 29.9875 27.2224C29.6752 27.3431 29.6752 27.3431 29.4907 27.2721C29.5235 27.2721 29.5563 27.2721 29.5901 27.2721C29.5952 27.2403 29.6003 27.2086 29.6056 27.1759C29.6169 27.142 29.6281 27.1082 29.6398 27.0734C29.7888 27.0237 29.7888 27.0237 29.9378 27.0734Z" fill="#131B1D"/>
<path d="M20.4988 15.1013C20.4988 15.2424 20.4788 15.3615 20.4492 15.4987C20.4 15.4824 20.3508 15.466 20.3001 15.4491C20.2018 15.5474 20.1034 15.6458 20.0021 15.7471C19.9693 15.7307 19.9365 15.7143 19.9027 15.6975C20.0994 15.5007 20.2962 15.304 20.4988 15.1013Z" fill="#030404"/>
<path d="M15.0342 9.93457C15.1161 10.0001 15.1981 10.0657 15.2826 10.1333C15.2662 10.1661 15.2498 10.1989 15.2329 10.2326C15.2657 10.2326 15.2985 10.2326 15.3322 10.2326C15.3159 10.3146 15.2995 10.3966 15.2826 10.481C15.1463 10.3221 15.0525 10.1827 14.9845 9.98425C15.0009 9.96785 15.0173 9.95146 15.0342 9.93457Z" fill="#FEFFFF"/>
<path d="M21.7408 22.5029C21.7408 22.6617 21.724 22.7186 21.6414 22.8507C21.5452 22.9407 21.5452 22.9407 21.4427 22.9997C21.3936 22.9833 21.3444 22.9669 21.2937 22.95C21.4412 22.8025 21.5888 22.6549 21.7408 22.5029Z" fill="#1C2224"/>
<path d="M26.0629 15.1509C26.1448 15.2165 26.2268 15.282 26.3112 15.3496C26.2785 15.4152 26.2457 15.4807 26.2119 15.5483C26.1627 15.5319 26.1135 15.5155 26.0629 15.4986C26.0039 15.3713 26.0039 15.3713 25.9635 15.2502C25.9963 15.2174 26.0291 15.1847 26.0629 15.1509Z" fill="#151C1F"/>
<path d="M18.5086 9.07764C18.5588 9.08174 18.609 9.08583 18.6607 9.09006C18.6935 9.13924 18.7263 9.18842 18.7601 9.23909C18.6125 9.2145 18.6125 9.2145 18.462 9.18941C18.4456 9.23859 18.4292 9.28778 18.4123 9.33845C18.3468 9.33845 18.2812 9.33845 18.2136 9.33845C18.3326 9.09262 18.3326 9.09262 18.5086 9.07764Z" fill="#191F21"/>
<path d="M20.2009 30.6006C20.2337 30.6006 20.2665 30.6006 20.3003 30.6006C20.3338 30.6635 20.3668 30.7267 20.3996 30.79C20.4273 30.8427 20.4273 30.8427 20.4555 30.8965C20.499 30.998 20.499 30.998 20.499 31.147C20.417 31.1307 20.3351 31.1143 20.2506 31.0974C20.2342 30.9334 20.2178 30.7695 20.2009 30.6006Z" fill="#161E20"/>
<path d="M14.2393 25.9307C14.2557 25.9798 14.2721 26.029 14.289 26.0797C14.2106 26.1524 14.1319 26.2248 14.053 26.297C14.0092 26.3374 13.9654 26.3777 13.9203 26.4193C13.8122 26.51 13.7223 26.5714 13.5935 26.6262C13.798 26.3818 14.011 26.1529 14.2393 25.9307Z" fill="#D0D5D5"/>
<path d="M14.2859 28.75C14.3361 28.7541 14.3864 28.7582 14.4381 28.7624C14.4709 28.8116 14.5037 28.8608 14.5374 28.9115C14.4063 28.9442 14.2751 28.977 14.14 29.0108C14.1236 28.9452 14.1072 28.8797 14.0903 28.8121C14.14 28.7624 14.14 28.7624 14.2859 28.75Z" fill="#161B22"/>
<path d="M28.6461 33.5815C28.6789 33.5979 28.7117 33.6143 28.7454 33.6312C28.7045 33.6691 28.6635 33.707 28.6212 33.7461C28.4801 33.8674 28.4801 33.8674 28.497 34.0286C28.4008 34.0131 28.4008 34.0131 28.2983 33.979C28.2819 33.9298 28.2655 33.8806 28.2487 33.8299C28.3125 33.787 28.3767 33.7447 28.4412 33.7026C28.4948 33.6672 28.4948 33.6672 28.5494 33.631C28.5813 33.6147 28.6132 33.5984 28.6461 33.5815Z" fill="#E2E7E8"/>
<path d="M16.4253 27.1235C16.4417 27.1235 16.4581 27.1235 16.475 27.1235C16.481 27.1541 16.4871 27.1846 16.4933 27.2161C16.5016 27.2563 16.5099 27.2964 16.5185 27.3378C16.5266 27.3775 16.5346 27.4173 16.5429 27.4583C16.5716 27.5832 16.5716 27.5832 16.6737 27.7197C16.6245 27.7443 16.6245 27.7443 16.5744 27.7694C16.5252 27.753 16.476 27.7366 16.4253 27.7197C16.3792 27.5044 16.3792 27.3388 16.4253 27.1235Z" fill="#DADEDF"/>
<path d="M6.8872 21.1621C6.98966 21.1838 6.98966 21.1838 7.08591 21.2118C7.05312 21.3102 7.02034 21.4085 6.98656 21.5099C6.92098 21.4771 6.8554 21.4443 6.78784 21.4105C6.83131 21.218 6.83131 21.218 6.8872 21.1621Z" fill="#0A0E13"/>
<path d="M14.0903 32.5386C14.1897 32.5883 14.289 32.6379 14.3884 32.6876C14.3884 32.7368 14.3884 32.786 14.3884 32.8366C14.2704 32.8429 14.2704 32.8429 14.14 32.8366C14.1072 32.8039 14.0744 32.7711 14.0406 32.7373C14.0593 32.6317 14.0593 32.6317 14.0903 32.5386Z" fill="#192126"/>
<path d="M20.7969 14.8027C20.9117 14.812 20.9117 14.812 20.9956 14.8524C20.9628 14.918 20.93 14.9836 20.8962 15.0511C20.8798 15.0347 20.8634 15.0183 20.8465 15.0014C20.8137 15.0342 20.781 15.067 20.7472 15.1008C20.6416 15.0822 20.6416 15.0822 20.5485 15.0511C20.6602 14.9238 20.6602 14.9238 20.7969 14.8027Z" fill="#050B0F"/>
<path d="M18.1145 9.58691C18.1309 9.58691 18.1473 9.58691 18.1641 9.58691C18.1704 9.72974 18.1704 9.72974 18.1641 9.88498C18.0269 10.0222 17.9055 10.0131 17.717 10.034C17.8292 9.91801 17.9297 9.82601 18.0648 9.73595C18.0812 9.68677 18.0976 9.63759 18.1145 9.58691Z" fill="#D8DDDF"/>
<path d="M23.9764 9.14014C24.0256 9.15653 24.0748 9.17292 24.1255 9.18982C24.0612 9.33311 23.9933 9.43186 23.8771 9.53756C23.8279 9.52117 23.7787 9.50478 23.728 9.48789C23.81 9.37313 23.892 9.25837 23.9764 9.14014Z" fill="#E3E9E9"/>
<path d="M12.4511 30.6006C12.5003 30.617 12.5494 30.6334 12.6001 30.6503C12.5909 30.681 12.5817 30.7117 12.5722 30.7434C12.5387 30.851 12.5387 30.851 12.6001 30.9483C12.5673 30.9811 12.5345 31.0139 12.5008 31.0477C12.4014 30.9483 12.4014 30.9483 12.3921 30.7962C12.4014 30.6503 12.4014 30.6503 12.4511 30.6006Z" fill="#090E13"/>
<path d="M15.0838 15.2998C15.0196 15.4431 14.9517 15.5418 14.8354 15.6476C14.8027 15.582 14.7699 15.5164 14.7361 15.4488C14.8603 15.2998 14.8721 15.2998 15.0838 15.2998Z" fill="#121C21"/>
<path d="M27.8015 12.6665C27.99 12.7406 28.0802 12.8531 28.1989 13.0143C28.0222 13.0143 27.9847 12.9729 27.8512 12.8652C27.8184 12.8488 27.7856 12.8324 27.7518 12.8155C27.7682 12.7664 27.7846 12.7172 27.8015 12.6665Z" fill="#1E2427"/>
<path d="M25.119 11.375C25.2122 11.3812 25.2122 11.3812 25.3177 11.4247C25.4047 11.552 25.4047 11.552 25.4668 11.6731C25.434 11.7059 25.4012 11.7386 25.3674 11.7724C25.269 11.6577 25.1707 11.5429 25.0693 11.4247C25.0857 11.4083 25.1021 11.3919 25.119 11.375Z" fill="#292D2F"/>
<path d="M25.3176 19.8701C25.3996 19.8865 25.4816 19.9029 25.566 19.9198C25.566 19.969 25.566 20.0182 25.566 20.0688C25.4513 20.0688 25.3365 20.0688 25.2183 20.0688C25.251 20.0033 25.2838 19.9377 25.3176 19.8701Z" fill="#0C1016"/>
<path d="M12.1032 19.1747C12.0398 19.3015 11.9854 19.3235 11.8548 19.3734C11.8057 19.357 11.7565 19.3407 11.7058 19.3238C11.6566 19.3238 11.6074 19.3238 11.5568 19.3238C11.7314 19.1562 11.8678 19.1611 12.1032 19.1747Z" fill="#1C2122"/>
<path d="M24.3241 10.7295C24.3897 10.7951 24.4552 10.8606 24.5228 10.9282C24.4921 10.9344 24.4613 10.9405 24.4296 10.9468C24.3146 10.9715 24.3146 10.9715 24.2247 11.0772C24.1755 11.0445 24.1264 11.0117 24.0757 10.9779C24.1577 10.8959 24.2396 10.8139 24.3241 10.7295Z" fill="#E4E8EA"/>
<path d="M7.13535 10.1831C7.18503 10.3321 7.18503 10.3321 7.14991 10.4319C7.12272 10.4839 7.12272 10.4839 7.09499 10.5371C7.07725 10.572 7.05951 10.607 7.04124 10.643C6.98632 10.7296 6.98632 10.7296 6.88696 10.7792C6.91062 10.5309 6.98789 10.3829 7.13535 10.1831Z" fill="#13191D"/>
<path d="M19.6046 10.2827C19.6538 10.2991 19.703 10.3155 19.7536 10.3324C19.7536 10.398 19.7536 10.4635 19.7536 10.5311C19.6356 10.5622 19.6356 10.5622 19.5052 10.5808C19.4725 10.548 19.4397 10.5152 19.4059 10.4814C19.4715 10.4159 19.537 10.3503 19.6046 10.2827Z" fill="#050E10"/>
<path d="M15.9781 30.6006C16.1706 30.6441 16.1706 30.6441 16.2265 30.6999C16.2286 30.7827 16.2287 30.8656 16.2265 30.9483C16.1937 30.9483 16.161 30.9483 16.1272 30.9483C16.1108 30.8992 16.0944 30.85 16.0775 30.7993C16.0283 30.8239 16.0283 30.8239 15.9781 30.849C15.9618 30.7998 15.9454 30.7506 15.9285 30.6999C15.9449 30.6672 15.9613 30.6344 15.9781 30.6006Z" fill="#1A2023"/>
<path d="M23.3307 16.79C23.3798 16.8064 23.429 16.8228 23.4797 16.8397C23.4145 16.9391 23.4145 16.9391 23.3307 17.0384C23.2815 17.0384 23.2323 17.0384 23.1816 17.0384C23.2308 16.9565 23.28 16.8745 23.3307 16.79ZM23.1319 17.0384C23.1483 17.0712 23.1647 17.104 23.1816 17.1378C23.1652 17.1706 23.1488 17.2034 23.1319 17.2371C23.0992 17.2371 23.0664 17.2371 23.0326 17.2371C23.0654 17.1716 23.0982 17.106 23.1319 17.0384Z" fill="#E6E9EA"/>
<path d="M22.1881 33.4819C22.3092 33.5192 22.3092 33.5192 22.4365 33.5813C22.4769 33.6869 22.4769 33.6869 22.4862 33.78C22.437 33.78 22.3878 33.78 22.3371 33.78C22.2285 33.6558 22.2285 33.6558 22.1384 33.5316C22.1548 33.5152 22.1712 33.4988 22.1881 33.4819Z" fill="#1A2022"/>
<path d="M19.4558 16.1445C19.4558 16.359 19.3498 16.439 19.2074 16.5916C19.1746 16.5916 19.1418 16.5916 19.108 16.5916C19.0916 16.6244 19.0752 16.6572 19.0583 16.691C19.0583 16.542 19.0583 16.542 19.1453 16.4405C19.1822 16.4053 19.2191 16.3702 19.2571 16.3339C19.3124 16.2806 19.3124 16.2806 19.3688 16.2262C19.3975 16.1993 19.4262 16.1723 19.4558 16.1445Z" fill="#040C0E"/>
<path d="M27.8514 12.2197C27.9508 12.3688 27.9508 12.3688 27.9508 12.4681C27.918 12.4681 27.8852 12.4681 27.8514 12.4681C27.835 12.5173 27.8186 12.5665 27.8017 12.6172C27.769 12.5844 27.7362 12.5516 27.7024 12.5178C27.7206 12.372 27.7453 12.3258 27.8514 12.2197Z" fill="#FEFFFF"/>
<path d="M24.4732 8.84155C24.4732 8.98262 24.4532 9.10174 24.4236 9.23898C24.3252 9.23898 24.2268 9.23898 24.1255 9.23898C24.1741 9.18203 24.2228 9.12512 24.2714 9.06821C24.2985 9.03651 24.3256 9.00481 24.3535 8.97215C24.3922 8.9275 24.4315 8.88331 24.4732 8.84155Z" fill="#1D2528"/>
<path d="M22.4363 31.1968C22.4527 31.1968 22.469 31.1968 22.4859 31.1968C22.5023 31.3279 22.5187 31.4591 22.5356 31.5942C22.4864 31.6106 22.4373 31.627 22.3866 31.6439C22.3866 31.6767 22.3866 31.7095 22.3866 31.7432C22.3374 31.7268 22.2882 31.7105 22.2375 31.6936C22.2611 31.6669 22.2847 31.6403 22.309 31.6128C22.4006 31.4736 22.4176 31.3609 22.4363 31.1968Z" fill="#2F353A"/>
<path d="M25.7151 19.0752C25.961 19.1244 25.961 19.1244 26.2119 19.1746C26.2119 19.1909 26.2119 19.2073 26.2119 19.2242C26.1135 19.2406 26.0151 19.257 25.9138 19.2739C25.9138 19.3067 25.9138 19.3395 25.9138 19.3733C25.8646 19.3733 25.8154 19.3733 25.7648 19.3733C25.7484 19.2749 25.732 19.1765 25.7151 19.0752Z" fill="#E3E7EA"/>
<path d="M18.6111 16.9893C18.6438 17.0057 18.6766 17.022 18.7104 17.0389C18.6612 17.0389 18.612 17.0389 18.5614 17.0389C18.5778 17.0225 18.5942 17.0061 18.6111 16.9893ZM18.5117 17.0886C18.5117 17.188 18.5117 17.2873 18.5117 17.3867C18.4625 17.4031 18.4133 17.4195 18.3627 17.4364C18.3299 17.4036 18.2971 17.3708 18.2633 17.337C18.3453 17.255 18.4272 17.1731 18.5117 17.0886Z" fill="#070D10"/>
<path d="M15.1832 14.9023C15.216 14.9023 15.2488 14.9023 15.2826 14.9023C15.2578 15.0855 15.2279 15.1808 15.0839 15.2998C15.0497 15.2128 15.0497 15.2128 15.0342 15.1011C15.0994 14.9893 15.0994 14.9893 15.1832 14.9023Z" fill="#131D20"/>
<path d="M13.3949 13.263C13.3129 13.3286 13.2309 13.3942 13.1465 13.4617C13.0809 13.4289 13.0153 13.3961 12.9478 13.3624C13.1184 13.2486 13.1954 13.2541 13.3949 13.263Z" fill="#1B2225"/>
<path d="M24.5725 12.4182C24.6873 12.5166 24.802 12.6149 24.9203 12.7163C24.8711 12.7491 24.8219 12.7819 24.7712 12.8156C24.6222 12.7163 24.6222 12.7163 24.588 12.561C24.5829 12.5139 24.5778 12.4668 24.5725 12.4182Z" fill="#060E14"/>
<path d="M18.8595 34.7734C18.925 34.7734 18.9906 34.7734 19.0582 34.7734C19.0254 34.839 18.9926 34.9046 18.9588 34.9722C18.8113 34.9722 18.6637 34.9722 18.5117 34.9722C18.5117 34.9558 18.5117 34.9394 18.5117 34.9225C18.5937 34.9225 18.6757 34.9225 18.7601 34.9225C18.7765 34.8897 18.7929 34.8569 18.8098 34.8231C18.8262 34.8067 18.8426 34.7903 18.8595 34.7734Z" fill="#222629"/>
<path d="M25.9635 32.29C26.1308 32.3593 26.2112 32.438 26.3112 32.5881C26.181 32.5881 26.0872 32.5726 25.9635 32.5384C25.9635 32.4565 25.9635 32.3745 25.9635 32.29Z" fill="#1D2225"/>
<path d="M17.4189 31.9421C17.5501 31.9585 17.6812 31.9749 17.8164 31.9918C17.7672 32.0656 17.7672 32.0656 17.717 32.1409C17.5695 32.1163 17.5695 32.1163 17.4189 32.0912C17.4189 32.042 17.4189 31.9928 17.4189 31.9421Z" fill="#252C30"/>
<path d="M19.2074 31.0974C19.2566 31.1138 19.3058 31.1302 19.3564 31.1471C19.34 31.1799 19.3236 31.2127 19.3067 31.2464C19.3266 31.3507 19.3266 31.3507 19.3564 31.4452C19.3072 31.4452 19.2581 31.4452 19.2074 31.4452C19.1746 31.3468 19.1418 31.2484 19.108 31.1471C19.1408 31.1307 19.1736 31.1143 19.2074 31.0974Z" fill="#192022"/>
<path d="M8.87413 26.676C8.92331 26.7416 8.9725 26.8072 9.02317 26.8747C8.97399 26.9239 8.9248 26.9731 8.87413 27.0238C8.82495 26.9582 8.77577 26.8926 8.7251 26.8251C8.77428 26.7759 8.82346 26.7267 8.87413 26.676Z" fill="#131A1E"/>
<path d="M9.27146 8.39478C9.30425 8.41117 9.33703 8.42756 9.37082 8.44445C9.28388 8.54692 9.28388 8.54692 9.1721 8.64317C9.06033 8.63075 9.06033 8.63075 8.97339 8.59349C9.07535 8.48182 9.12276 8.44434 9.27146 8.39478Z" fill="#181E20"/>
<path d="M16.2264 8.04688C16.3248 8.07147 16.3248 8.07147 16.4251 8.09655C16.4251 8.14573 16.4251 8.19492 16.4251 8.24559C16.3432 8.24559 16.2612 8.24559 16.1768 8.24559C16.1932 8.18001 16.2095 8.11444 16.2264 8.04688ZM16.4251 8.04688C16.5245 8.09655 16.5245 8.09655 16.5245 8.09655L16.4251 8.04688Z" fill="#060B0F"/>
<path d="M21.3433 7.2522C21.458 7.33417 21.5728 7.41614 21.691 7.50059C21.6582 7.53338 21.6254 7.56616 21.5916 7.59995C21.5527 7.57638 21.5138 7.55281 21.4737 7.52853C21.3984 7.48375 21.3222 7.44039 21.2439 7.40123C21.2936 7.30188 21.2936 7.30188 21.3433 7.2522Z" fill="#1B2324"/>
<path d="M24.821 34.2768C24.8046 34.3259 24.7882 34.3751 24.7713 34.4258C24.6533 34.4568 24.6533 34.4568 24.5229 34.4755C24.4902 34.4427 24.4574 34.4099 24.4236 34.3761C24.5839 34.2692 24.6364 34.2668 24.821 34.2768Z" fill="#030404"/>
<path d="M28.3977 31.9421C28.4305 32.0077 28.4633 32.0733 28.497 32.1409C28.4151 32.2228 28.3331 32.3048 28.2487 32.3892C28.2487 32.2057 28.3123 32.1022 28.3977 31.9421Z" fill="#23282D"/>
<path d="M17.2201 32.0415C17.2529 32.0415 17.2857 32.0415 17.3194 32.0415C17.2908 32.16 17.2587 32.2733 17.2201 32.3893C17.1709 32.3729 17.1217 32.3565 17.071 32.3396C17.1642 32.0974 17.1642 32.0974 17.2201 32.0415Z" fill="#161C21"/>
<path d="M19.2074 25.0867C19.2553 25.2358 19.2682 25.3372 19.2074 25.4841C19.1582 25.5005 19.109 25.5169 19.0583 25.5338C19.086 25.3677 19.1255 25.2341 19.2074 25.0867Z" fill="#232829"/>
<path d="M20.6976 16.3433C20.7468 16.3597 20.796 16.376 20.8467 16.3929C20.7786 16.55 20.7479 16.5913 20.5983 16.691C20.5921 16.573 20.5921 16.573 20.5983 16.4426C20.6311 16.4098 20.6639 16.377 20.6976 16.3433Z" fill="#051011"/>
<path d="M19.4557 15.9956C19.5048 16.012 19.554 16.0284 19.6047 16.0453C19.4326 16.1928 19.4326 16.1928 19.257 16.3434C19.2406 16.3106 19.2242 16.2778 19.2073 16.244C19.2401 16.244 19.2729 16.244 19.3066 16.244C19.3066 16.1948 19.3066 16.1456 19.3066 16.095C19.3558 16.0622 19.405 16.0294 19.4557 15.9956Z" fill="#DFE4E3"/>
<path d="M23.7777 14.6538C23.7777 14.8028 23.7777 14.8028 23.728 14.9519C23.5759 15.0109 23.5759 15.0109 23.4299 15.0512C23.4786 14.9943 23.5272 14.9374 23.5759 14.8805C23.603 14.8488 23.63 14.8171 23.6579 14.7844C23.6966 14.7398 23.7359 14.6956 23.7777 14.6538Z" fill="#1F2529"/>
<path d="M28.2487 13.114C28.3232 13.173 28.3232 13.173 28.3977 13.263C28.407 13.3966 28.407 13.3966 28.3977 13.5114C28.3813 13.4787 28.3649 13.4459 28.348 13.4121C28.2988 13.4285 28.2496 13.4449 28.199 13.4618C28.2154 13.347 28.2318 13.2322 28.2487 13.114Z" fill="#171D21"/>
<path d="M14.4381 12.5176C14.4873 12.534 14.5365 12.5504 14.5871 12.5673C14.5707 12.682 14.5544 12.7968 14.5375 12.915C14.4883 12.9314 14.4391 12.9478 14.3884 12.9647C14.4048 12.8171 14.4212 12.6696 14.4381 12.5176Z" fill="#E2E8EB"/>
<path d="M28.8944 10.7295C29.0392 10.7828 29.1318 10.8178 29.2422 10.9282C29.139 10.9557 29.0512 10.9779 28.9441 10.9779C28.9277 10.8959 28.9113 10.8139 28.8944 10.7295Z" fill="#1B2124"/>
<path d="M28.3977 10.0835C28.4305 10.0999 28.4633 10.1163 28.4971 10.1332C28.5281 10.2605 28.5281 10.2605 28.5467 10.3816C28.4975 10.4144 28.4484 10.4471 28.3977 10.4809C28.3418 10.366 28.3418 10.366 28.2983 10.2325C28.3311 10.1833 28.3639 10.1342 28.3977 10.0835Z" fill="#2B3234"/>
<path d="M25.7649 9.28906C25.9124 9.31365 25.9124 9.31365 26.063 9.33874C26.0794 9.40432 26.0958 9.46989 26.1126 9.53745C26.0635 9.53745 26.0143 9.53745 25.9636 9.53745C25.8549 9.41326 25.8549 9.41326 25.7649 9.28906Z" fill="#20272A"/>
<path d="M24.225 9.18945C24.2577 9.20585 24.2905 9.22224 24.3243 9.23913C24.2714 9.34499 24.2105 9.40634 24.1256 9.48752C24.0764 9.47113 24.0272 9.45474 23.9766 9.43784C24.0585 9.35588 24.1405 9.27391 24.225 9.18945Z" fill="#060F11"/>
<path d="M18.7103 34.7241C18.7103 34.7897 18.7103 34.8553 18.7103 34.9228C18.6283 34.9228 18.5464 34.9228 18.4619 34.9228C18.4619 34.8737 18.4619 34.8245 18.4619 34.7738C18.6109 34.7241 18.6109 34.7241 18.7103 34.7241Z" fill="#060D13"/>
<path d="M15.8292 31.1968C15.6816 31.2296 15.5341 31.2624 15.3821 31.2961C15.3821 31.247 15.3821 31.1978 15.3821 31.1471C15.5905 31.0892 15.6216 31.093 15.8292 31.1968Z" fill="#2D3437"/>
<path d="M17.9653 21.9568C18.0145 21.9732 18.0637 21.9896 18.1144 22.0065C18.0463 22.1635 18.0155 22.2048 17.866 22.3045C17.9094 22.0127 17.9094 22.0127 17.9653 21.9568Z" fill="#1A2225"/>
<path d="M18.3627 21.6089C18.4118 21.6089 18.461 21.6089 18.5117 21.6089C18.4436 21.7659 18.4129 21.8072 18.2633 21.907C18.2469 21.8578 18.2305 21.8086 18.2136 21.7579C18.2464 21.7579 18.2792 21.7579 18.313 21.7579C18.3294 21.7087 18.3458 21.6596 18.3627 21.6089Z" fill="#22292C"/>
<path d="M7.04244 21.0063C7.08958 21.0084 7.13671 21.0104 7.18527 21.0126C6.99897 21.1616 6.99897 21.1616 6.8872 21.1616C6.8708 21.2108 6.85441 21.26 6.83752 21.3106C6.80647 21.2175 6.80647 21.2175 6.78784 21.1119C6.8872 21.0126 6.8872 21.0126 7.04244 21.0063Z" fill="#1D2226"/>
<path d="M12.4012 19.5723C12.4176 19.5723 12.434 19.5723 12.4509 19.5723C12.4633 19.7089 12.4633 19.7089 12.4509 19.8703C12.3515 19.9883 12.3515 19.9883 12.2522 20.069C12.2358 20.0199 12.2194 19.9707 12.2025 19.92C12.2517 19.8872 12.3009 19.8544 12.3515 19.8207C12.3878 19.6933 12.3878 19.6933 12.4012 19.5723Z" fill="#090E10"/>
<path d="M20.4491 19.5227C20.5147 19.5391 20.5802 19.5555 20.6478 19.5724C20.5003 19.6953 20.5003 19.6953 20.3497 19.8208C20.3333 19.7716 20.3169 19.7224 20.3 19.6717C20.3492 19.6553 20.3984 19.639 20.4491 19.6221C20.4491 19.5893 20.4491 19.5565 20.4491 19.5227Z" fill="#1E2628"/>
<path d="M16.5744 19.0259C16.6072 19.0587 16.64 19.0915 16.6738 19.1252C16.6246 19.199 16.6246 19.199 16.5744 19.2743C16.444 19.2836 16.444 19.2836 16.326 19.2743C16.408 19.1923 16.49 19.1103 16.5744 19.0259Z" fill="#182020"/>
<path d="M18.3131 18.7275C18.3295 18.7603 18.3459 18.7931 18.3628 18.8269C18.3956 18.8433 18.4284 18.8597 18.4621 18.8766C18.4457 18.9421 18.4293 19.0077 18.4125 19.0753C18.3305 18.9933 18.2485 18.9113 18.1641 18.8269C18.2132 18.8269 18.2624 18.8269 18.3131 18.8269C18.3131 18.7941 18.3131 18.7613 18.3131 18.7275Z" fill="#030404"/>
<path d="M27.5532 14.5049C27.6352 14.5869 27.7172 14.6688 27.8016 14.7533C27.7524 14.8025 27.7033 14.8516 27.6526 14.9023C27.6526 14.8695 27.6526 14.8367 27.6526 14.803C27.6198 14.7866 27.587 14.7702 27.5532 14.7533C27.5532 14.6713 27.5532 14.5893 27.5532 14.5049Z" fill="#1C2127"/>
<path d="M12.9976 8.44434C13.2832 8.53127 13.2832 8.53127 13.395 8.64305C13.2801 8.6772 13.2801 8.6772 13.1466 8.69273C13.0566 8.62752 13.0566 8.62752 12.9976 8.54369C12.9976 8.5109 12.9976 8.47812 12.9976 8.44434Z" fill="#1F2729"/>
<path d="M30.6333 30.2527C30.6661 30.3019 30.6989 30.351 30.7326 30.4017C30.6386 30.4958 30.5416 30.5716 30.4346 30.6501C30.4018 30.6337 30.369 30.6173 30.3352 30.6004C30.4336 30.4857 30.5319 30.3709 30.6333 30.2527Z" fill="#E7E9EA"/>
<path d="M27.2551 30.1535C27.2551 30.1699 27.2551 30.1863 27.2551 30.2031C27.1598 30.2262 27.1598 30.2262 27.0626 30.2497C26.952 30.2765 26.8603 30.3012 26.7583 30.3522C26.7091 30.3194 26.6599 30.2866 26.6093 30.2528C26.833 30.1655 27.0154 30.1439 27.2551 30.1535Z" fill="#ADB2B4"/>
<path d="M13.4941 24.937C13.5433 24.9534 13.5925 24.9698 13.6432 24.9867C13.5612 25.0687 13.4792 25.1506 13.3948 25.2351C13.3784 25.2023 13.362 25.1695 13.3451 25.1357C13.3943 25.0701 13.4435 25.0046 13.4941 24.937Z" fill="#1A2226"/>
<path d="M25.8143 18.2305C25.8635 18.2469 25.9127 18.2633 25.9634 18.2801C25.947 18.3293 25.9306 18.3785 25.9137 18.4292C25.8317 18.4456 25.7497 18.462 25.6653 18.4789C25.7145 18.3969 25.7636 18.3149 25.8143 18.2305Z" fill="#1D2228"/>
<path d="M21.6913 13.9087C21.7241 13.9251 21.7568 13.9415 21.7906 13.9584C21.7565 14.0546 21.7565 14.0546 21.6913 14.1571C21.5609 14.1943 21.5609 14.1943 21.4429 14.2068C21.5248 14.1084 21.6068 14.01 21.6913 13.9087Z" fill="#040B0D"/>
<path d="M22.337 13.2134C22.3534 13.2626 22.3698 13.3117 22.3867 13.3624C22.2391 13.4854 22.2391 13.4854 22.0886 13.6108C22.0558 13.5944 22.023 13.578 21.9893 13.5611C22.104 13.4464 22.2188 13.3316 22.337 13.2134Z" fill="#3A3F40"/>
<path d="M18.7106 11.3257C18.7433 11.3257 18.7761 11.3257 18.8099 11.3257C18.8263 11.3913 18.8427 11.4568 18.8596 11.5244C18.794 11.5736 18.7284 11.6228 18.6609 11.6734C18.6281 11.6406 18.5953 11.6079 18.5615 11.5741C18.5861 11.5515 18.6107 11.529 18.636 11.5058C18.7218 11.4312 18.7218 11.4312 18.7106 11.3257Z" fill="#131E1F"/>
<path d="M18.8098 10.9778C18.859 10.9778 18.9082 10.9778 18.9588 10.9778C18.9425 11.1253 18.9261 11.2729 18.9092 11.4249C18.86 11.3757 18.8108 11.3265 18.7601 11.2759C18.7757 11.1175 18.7757 11.1175 18.8098 10.9778Z" fill="#2A3134"/>
<path d="M20.1511 7.64941C20.1839 7.64941 20.2167 7.64941 20.2505 7.64941C20.2505 7.6822 20.2505 7.71499 20.2505 7.74877C20.2833 7.76516 20.316 7.78156 20.3498 7.79845C20.2515 7.84763 20.2515 7.84763 20.1511 7.89781C20.0855 7.83223 20.02 7.76665 19.9524 7.69909C20.018 7.71549 20.0835 7.73188 20.1511 7.74877C20.1511 7.71598 20.1511 7.6832 20.1511 7.64941Z" fill="#151C20"/>
</svg>
