<svg width="54" height="54" viewBox="0 0 54 54" fill="none" xmlns="http://www.w3.org/2000/svg">
<g style="mix-blend-mode:hue" opacity="0.5" clip-path="url(#clip0_3538_2505)">
<path fill-rule="evenodd" clip-rule="evenodd" d="M53.8874 30.1176C53.8874 30.3735 53.8281 30.6167 53.7158 30.8277L42.1595 50.8439C41.6693 51.6928 40.7636 52.2157 39.7834 52.2157H14.1037C13.1235 52.2157 12.2178 51.6928 11.7277 50.8439L0.17021 30.8258C0.0582261 30.6151 -0.000244141 30.3731 -0.000244141 30.1176C-0.000244141 29.2892 0.671366 28.6175 1.49984 28.6175H14.1793L17.3927 34.0756L17.4124 34.1082C17.8412 34.7967 18.7435 35.0211 19.4464 34.6072L19.4828 34.5851C19.8069 34.3817 20.0415 34.0617 20.1376 33.6902L24.2321 17.8618L27.7478 43.3446L27.7531 43.3801C27.883 44.1818 28.63 44.7372 29.4388 44.6256L29.4756 44.6201C30.0612 44.5245 30.5369 44.092 30.6861 43.5153L35.6214 24.4365L37.6478 27.8785L37.6679 27.9117C37.9414 28.35 38.4221 28.6175 38.9405 28.6175H52.3873C53.2157 28.6175 53.8874 29.2892 53.8874 30.1176ZM39.7834 2.24997C40.7636 2.24997 41.6693 2.77291 42.1595 3.62179L53.7165 23.6389C53.8283 23.8497 53.8874 24.0928 53.8874 24.3481C53.8874 25.1766 53.2157 25.8482 52.3873 25.8482H39.6662L36.4529 20.3901L36.4308 20.3538C36.2274 20.0296 35.9074 19.795 35.5359 19.6989L35.501 19.6903C34.7102 19.5054 33.9124 19.985 33.7079 20.7755L29.6134 36.6038L26.0978 11.1211L26.0922 11.0844C25.9967 10.4988 25.5641 10.023 24.9874 9.87383C24.1854 9.66635 23.367 10.1484 23.1595 10.9504L18.224 30.0291L16.1978 26.5872L16.1776 26.554C15.9042 26.1157 15.4235 25.8482 14.9051 25.8482H1.49984C0.671366 25.8482 -0.000244141 25.1766 -0.000244141 24.3481C-0.000244141 24.0948 0.0566566 23.8552 0.166577 23.6458L11.7277 3.62179C12.2178 2.77291 13.1235 2.24997 14.1037 2.24997H39.7834Z" fill="#FEFFFF"/>
</g>
<defs>
<clipPath id="clip0_3538_2505">
<rect width="54" height="54" fill="white"/>
</clipPath>
</defs>
</svg>
